<svg xmlns="http://www.w3.org/2000/svg" xmlns:xlink="http://www.w3.org/1999/xlink" viewBox="0 0 725.93 628.56"><defs><style>.cls-1{fill:url(#linear-gradient);}.cls-2{fill:#7fd686;}.cls-3{font-size:3.19px;letter-spacing:0.02em;}.cls-26,.cls-27,.cls-3,.cls-31,.cls-8,.cls-9{fill:#fff;}.cls-3,.cls-9{font-family:Nunito-Bold, Nunito;font-weight:700;}.cls-4{letter-spacing:0.02em;}.cls-23,.cls-5{fill:#e6e6e6;}.cls-14,.cls-20,.cls-6{font-size:2.66px;}.cls-14,.cls-20,.cls-26,.cls-27,.cls-31,.cls-6{font-family:Nunito-Regular, Nunito;}.cls-6{letter-spacing:0.03em;}.cls-7{letter-spacing:0.06em;}.cls-9{font-size:4.49px;letter-spacing:0.03em;}.cls-10{letter-spacing:0.02em;}.cls-11{letter-spacing:0.02em;}.cls-12{letter-spacing:0.02em;}.cls-13{letter-spacing:0em;}.cls-14{letter-spacing:0.02em;}.cls-15{letter-spacing:0.02em;}.cls-16{letter-spacing:0.02em;}.cls-17{letter-spacing:0.03em;}.cls-18{letter-spacing:0.01em;}.cls-19{letter-spacing:0.02em;}.cls-20{letter-spacing:0.02em;}.cls-21{fill:#333;}.cls-22{fill:#444;}.cls-23{opacity:0.12;}.cls-24{fill:#f2f2f2;opacity:0.49;}.cls-25{opacity:0.91;fill:url(#linear-gradient-2);}.cls-26,.cls-31{font-size:3.18px;}.cls-26,.cls-32{letter-spacing:0.02em;}.cls-27{font-size:3.79px;}.cls-28{fill:url(#linear-gradient-3);}.cls-29{fill:url(#main_gradient);}.cls-30{fill:url(#radial-gradient);}.cls-31{letter-spacing:0.02em;}.cls-33{fill:#4d4d4d;}.cls-34{fill:#b3b3b3;}.cls-35{fill:#ffebab;}.cls-36{fill:#b67add;}.cls-37{fill:#874fb2;}.cls-38{fill:#48374c;}.cls-39{fill:#97dd9a;}.cls-40{fill:#6cb770;}.cls-41{fill:#3f2e43;}</style><linearGradient id="linear-gradient" x1="755.64" y1="-575.47" x2="32.01" y2="64.13" gradientTransform="translate(754.3 76.02) rotate(180) scale(0.98)" gradientUnits="userSpaceOnUse"><stop offset="0" stop-color="#485fab"/><stop offset="1" stop-color="#8b0094"/></linearGradient><linearGradient id="linear-gradient-2" x1="260.23" y1="133.12" x2="465.7" y2="133.12" gradientTransform="matrix(1, 0, 0, 1, 0, 0)" xlink:href="#linear-gradient"/><linearGradient id="linear-gradient-3" x1="272.28" y1="138.76" x2="272.62" y2="131.03" gradientUnits="userSpaceOnUse"><stop offset="0" stop-color="#8400ff"/><stop offset="1" stop-color="#8b0094"/></linearGradient><linearGradient id="main_gradient" x1="272.5" y1="135.74" x2="272.61" y2="128.02" gradientUnits="userSpaceOnUse"><stop offset="0" stop-color="#00af73"/><stop offset="1" stop-color="#7fd686"/></linearGradient><radialGradient id="radial-gradient" cx="663.07" cy="-688.18" r="6.27" gradientTransform="translate(-212.25 955.72) rotate(-13.37)" xlink:href="#linear-gradient-3"/></defs><title>adminicon</title><g id="Layer_2" data-name="Layer 2"><g id="Layer_1-2" data-name="Layer 1"><path class="cls-1" d="M578.49,589.5c-36.73,34.17-153.62-2.26-191.28-6.78s-143.08,61-200.31,27.87-30.55-109-84.35-137.81C49,444.15-3,387.79.14,335.58c2.42-39.76,46.41-80.44,63-109.81s19.1-82.83,56-127.26,116-30.13,136.31-28.62S322.88-13.86,402.27,2s97.53,71.69,132.93,98.8,127.63,5.28,166,75.31c73.77,134.52-39.51,194.69-58,223.66C626.71,425.65,665.09,508.92,578.49,589.5Z"/><rect class="cls-2" x="354.48" y="217.03" width="22.64" height="6.5" rx="2.52"/><text class="cls-3" transform="translate(360.54 221.2)">Sea<tspan class="cls-4" x="5.68" y="0">r</tspan><tspan x="6.95" y="0">ch</tspan></text><rect class="cls-5" x="347.75" y="202.85" width="36.2" height="8.32"/><path class="cls-5" d="M420.4,202.85H384.83v8.32H420.4a1.07,1.07,0,0,0,1.12-1v-6.33A1.06,1.06,0,0,0,420.4,202.85Z"/><path class="cls-5" d="M346.86,202.85H311.2a1.07,1.07,0,0,0-1.12,1v6.33a1.07,1.07,0,0,0,1.12,1h35.66Z"/><text class="cls-6" transform="translate(313.4 207.81)">Internship Title</text><text class="cls-6" transform="translate(349.53 207.81)"><tspan xml:space="preserve"> Location</tspan></text><text class="cls-6" transform="translate(386.87 207.81)">So<tspan class="cls-7" x="3.24" y="0">r</tspan><tspan x="4.35" y="0">t By</tspan></text><path class="cls-2" d="M420.4,202.85h-7.33v8.32h7.33a1.07,1.07,0,0,0,1.12-1v-6.33A1.06,1.06,0,0,0,420.4,202.85Z"/><polygon class="cls-8" points="417.29 206.02 418.75 206.02 418.02 207.28 417.29 208.54 416.57 207.28 415.84 206.02 417.29 206.02"/><text class="cls-9" transform="translate(326.14 195.25)">Help us find what <tspan class="cls-10" x="39.85" y="0">y</tspan><tspan x="42.28" y="0">ou’</tspan><tspan class="cls-11" x="48.92" y="0">r</tspan><tspan x="50.7" y="0">e looking </tspan><tspan class="cls-12" x="71.84" y="0">f</tspan><tspan x="73.54" y="0">o</tspan><tspan class="cls-13" x="76.23" y="0">r</tspan><tspan x="77.96" y="0">.</tspan></text><rect class="cls-5" x="388.4" y="211.17" width="24.67" height="20.01"/><text class="cls-14" transform="translate(390.88 215.12)">Rel<tspan class="cls-15" x="4.04" y="0">e</tspan><tspan class="cls-16" x="5.49" y="0">v</tspan><tspan class="cls-17" x="6.89" y="0">ance</tspan></text><text class="cls-6" transform="translate(390.88 221.24)">Date <tspan class="cls-18" x="6.69" y="0">P</tspan><tspan x="8.43" y="0">o</tspan><tspan class="cls-19" x="9.97" y="0">s</tspan><tspan x="11.29" y="0">ted</tspan></text><text class="cls-20" transform="translate(390.88 227.36)">Location</text><path class="cls-21" d="M540.86,80.6H185.14a19,19,0,0,0-19,19V315.75a19,19,0,0,0,19,19H337.37a4.77,4.77,0,0,0-.18,1.2V374.5a4.57,4.57,0,0,1-3.08,4.33c-10,3.52-39.2,6.74-48.52,15.05a4.55,4.55,0,0,0,1.11,7.43c16.5,8.12,81.43,35.25,149.29-2a5.83,5.83,0,0,0-.75-10.58c-7.93-3-22.52-7-49.33-11.9a4.57,4.57,0,0,1-3.76-4.4c-.16-8.5-.63-27.83-.84-36.59a4.86,4.86,0,0,0-.17-1.09H540.86a19,19,0,0,0,19-19V99.64A19,19,0,0,0,540.86,80.6Z"/><rect class="cls-5" x="189.8" y="101.25" width="346.39" height="212.89" rx="8.36"/><path class="cls-22" d="M339.69,407.47s52,6.63,83-11.88C422.7,395.59,393.8,422.18,339.69,407.47Z"/><path class="cls-23" d="M519.84,80.6H185.14a19,19,0,0,0-19,19V315.75a19,19,0,0,0,19,19h32.45C270.82,289,438.2,148.85,519.84,80.6Z"/><rect class="cls-24" x="260.23" y="125.79" width="205.46" height="158.31"/><rect class="cls-25" x="260.23" y="125.79" width="205.46" height="14.66"/><text class="cls-26" transform="translate(445.08 134.5)">Log Out</text><text class="cls-27" transform="translate(279.02 134.8) scale(1.15 1)">Intern Galactic</text><circle class="cls-28" cx="272.53" cy="133.19" r="3.87"/><path class="cls-29" d="M268.92,132.92v1s0,.35.3.35.14-.83.14-.83a.27.27,0,0,1,.22-.3c.26,0,.22.32.22.32V134s0,.12.23.13a.17.17,0,0,0,.21-.17v-.5s0-.15.16-.15a.16.16,0,0,1,.16.17v1.36a.18.18,0,0,0,.19.23c.23,0,.19-.29.19-.29v-1.16s0-.39.31-.39.29.36.29.36v2.08s-.05.3.17.32.18-.35.18-.35V132a.69.69,0,0,1,.66-.62.68.68,0,0,1,.7.55l.08,3.38a.25.25,0,0,0,.27.22c.25,0,.24-.27.24-.27v-1.12s0-.38.23-.38.27.27.27.27v.66s0,.11.19.13.15-.16.15-.16v-1.54s-.07-.38.25-.38.27.35.27.35v1.05a.29.29,0,0,0,.25.14.2.2,0,0,0,.22-.19v-.76s0-.24.18-.24.19.24.19.24v1.46a.08.08,0,0,0,0,0,3.91,3.91,0,0,0-3.52-5.5,3.93,3.93,0,0,0-3.86,3.32C268.9,132.66,268.92,132.92,268.92,132.92Zm3.63-3.09a.67.67,0,1,1-.66.66A.66.66,0,0,1,272.55,129.83Z"/><path class="cls-30" d="M273.68,133.94s0,0,0,0a8.76,8.76,0,0,1-2.31.85c-1.94.47-3.63.35-3.78-.25-.07-.32.29-.7.93-1.06a0,0,0,1,1,0,0c-.37.28-.56.55-.51.79.15.61,1.84.72,3.78.26A10.21,10.21,0,0,0,273.68,133.94Zm2.37-2.85h0c.44.05.73.18.81.4.13.41-.48,1-1.48,1.53,1.24-.58,2-1.27,1.88-1.73-.1-.3-.6-.44-1.32-.41,0,0,0,0,0,0Z"/><text class="cls-31" transform="translate(430.19 134.8)">Pr<tspan class="cls-32" x="3.27" y="0">ofile</tspan></text><rect class="cls-33" x="183.68" y="435.58" width="361.54" height="74.79" rx="12"/><rect class="cls-34" x="192.08" y="442.67" width="14.92" height="7.43" rx="1.24"/><rect class="cls-34" x="192.08" y="452.5" width="9.27" height="7.43" rx="1.24"/><rect class="cls-34" x="203.45" y="452.5" width="9.27" height="7.43" rx="1.24"/><rect class="cls-34" x="209.53" y="442.67" width="9.27" height="7.43" rx="1.24"/><rect class="cls-34" x="214.17" y="452.5" width="9.27" height="7.43" rx="1.24"/><rect class="cls-34" x="225.54" y="452.5" width="9.27" height="7.43" rx="1.24"/><rect class="cls-34" x="237.06" y="452.5" width="9.27" height="7.43" rx="1.24"/><rect class="cls-34" x="217.85" y="462.02" width="9.27" height="7.43" rx="1.24"/><rect class="cls-34" x="229.48" y="462.02" width="9.27" height="7.43" rx="1.24"/><rect class="cls-34" x="241.11" y="462.02" width="9.27" height="7.43" rx="1.24"/><rect class="cls-34" x="221.82" y="472.16" width="9.27" height="7.43" rx="1.24"/><rect class="cls-34" x="233.12" y="472.16" width="9.27" height="7.43" rx="1.24"/><rect class="cls-34" x="243.74" y="472.16" width="9.27" height="7.43" rx="1.24"/><rect class="cls-34" x="220.9" y="442.67" width="9.27" height="7.43" rx="1.24"/><rect class="cls-34" x="232.43" y="442.67" width="9.27" height="7.43" rx="1.24"/><rect class="cls-34" x="243.74" y="442.67" width="9.27" height="7.43" rx="1.24"/><rect class="cls-34" x="255.16" y="442.67" width="9.27" height="7.43" rx="1.24"/><rect class="cls-34" x="266.68" y="442.67" width="9.27" height="7.43" rx="1.24"/><rect class="cls-34" x="277.99" y="442.67" width="9.27" height="7.43" rx="1.24"/><rect class="cls-34" x="440.71" y="443.94" width="9.27" height="7.43" rx="1.24"/><rect class="cls-34" x="452.24" y="443.94" width="9.27" height="7.43" rx="1.24"/><rect class="cls-34" x="463.55" y="443.94" width="9.27" height="7.43" rx="1.24"/><rect class="cls-34" x="504.57" y="453.77" width="9.27" height="7.43" rx="1.24" transform="translate(1018.4 914.98) rotate(-180)"/><rect class="cls-34" x="493.19" y="453.77" width="9.27" height="7.43" rx="1.24" transform="translate(995.65 914.98) rotate(-180)"/><rect class="cls-34" x="481.67" y="453.77" width="9.27" height="7.43" rx="1.24" transform="translate(972.6 914.98) rotate(-180)"/><rect class="cls-34" x="500.88" y="463.28" width="9.27" height="7.43" rx="1.24" transform="translate(1011.02 934) rotate(-180)"/><rect class="cls-34" x="489.25" y="463.28" width="9.27" height="7.43" rx="1.24" transform="translate(987.77 934) rotate(-180)"/><rect class="cls-34" x="477.63" y="463.28" width="9.27" height="7.43" rx="1.24" transform="translate(964.52 934) rotate(-180)"/><rect class="cls-34" x="496.91" y="473.43" width="9.27" height="7.43" rx="1.24" transform="translate(1003.09 954.3) rotate(-180)"/><rect class="cls-34" x="485.61" y="473.43" width="9.27" height="7.43" rx="1.24" transform="translate(980.48 954.3) rotate(-180)"/><rect class="cls-34" x="474.99" y="473.43" width="9.27" height="7.43" rx="1.24" transform="translate(959.25 954.3) rotate(-180)"/><rect class="cls-34" x="497.83" y="443.94" width="9.27" height="7.43" rx="1.24" transform="translate(1004.92 895.32) rotate(-180)"/><rect class="cls-34" x="486.3" y="443.94" width="9.27" height="7.43" rx="1.24" transform="translate(981.86 895.32) rotate(-180)"/><rect class="cls-34" x="474.99" y="443.94" width="9.27" height="7.43" rx="1.24" transform="translate(959.25 895.32) rotate(-180)"/><rect class="cls-34" x="206.23" y="462.02" width="9.27" height="7.43" rx="1.24"/><rect class="cls-34" x="210.69" y="472.16" width="9.27" height="7.43" rx="1.24"/><rect class="cls-34" x="202.37" y="481.99" width="9.27" height="7.43" rx="1.24"/><rect class="cls-34" x="203.45" y="491.82" width="9.27" height="7.43" rx="1.24"/><rect class="cls-34" x="214.17" y="491.82" width="9.27" height="7.43" rx="1.24"/><rect class="cls-34" x="214.17" y="481.99" width="9.27" height="7.43" rx="1.24"/><rect class="cls-34" x="192.34" y="462.02" width="11.79" height="7.43" rx="1.24"/><rect class="cls-34" x="192.08" y="472.16" width="16" height="7.43" rx="1.24"/><rect class="cls-34" x="192.08" y="481.99" width="8.61" height="7.43" rx="1.24"/><rect class="cls-34" x="192.08" y="491.82" width="8.61" height="7.43" rx="1.24"/><rect class="cls-34" x="521.28" y="443.87" width="14.92" height="7.43" rx="1.24" transform="translate(1057.47 895.18) rotate(-180)"/><rect class="cls-34" x="526.93" y="453.7" width="9.27" height="7.43" rx="1.24" transform="translate(1063.13 914.84) rotate(-180)"/><rect class="cls-34" x="515.56" y="453.7" width="9.27" height="7.43" rx="1.24" transform="translate(1040.39 914.84) rotate(-180)"/><rect class="cls-34" x="509.48" y="443.87" width="9.27" height="7.43" rx="1.24" transform="translate(1028.22 895.18) rotate(-180)"/><rect class="cls-34" x="512.95" y="463.53" width="9.27" height="7.43" rx="1.24" transform="translate(1035.17 934.49) rotate(-180)"/><rect class="cls-34" x="508.32" y="473.36" width="9.27" height="7.43" rx="1.24" transform="translate(1025.91 954.15) rotate(-180)"/><rect class="cls-34" x="516.64" y="483.19" width="9.27" height="7.43" rx="1.24" transform="translate(1042.55 973.81) rotate(-180)"/><rect class="cls-34" x="515.56" y="493.02" width="9.27" height="7.43" rx="1.24" transform="translate(1040.39 993.47) rotate(-180)"/><rect class="cls-34" x="504.84" y="493.02" width="9.27" height="7.43" rx="1.24" transform="translate(1018.95 993.47) rotate(-180)"/><rect class="cls-34" x="504.84" y="483.19" width="9.27" height="7.43" rx="1.24" transform="translate(1018.95 973.81) rotate(-180)"/><rect class="cls-34" x="524.41" y="463.53" width="11.79" height="7.43" rx="1.24" transform="translate(1060.6 934.49) rotate(-180)"/><rect class="cls-34" x="520.19" y="473.36" width="16" height="7.43" rx="1.24" transform="translate(1056.39 954.15) rotate(-180)"/><rect class="cls-34" x="527.58" y="483.19" width="8.61" height="7.43" rx="1.24" transform="translate(1063.78 973.81) rotate(-180)"/><rect class="cls-34" x="527.58" y="493.02" width="8.61" height="7.43" rx="1.24" transform="translate(1063.78 993.47) rotate(-180)"/><rect class="cls-35" x="160.7" y="267.13" width="7.26" height="30.86" rx="2.87" transform="translate(-142.75 394.55) rotate(-79.86)"/><path class="cls-35" d="M182.47,309.59l1,2a2.5,2.5,0,0,1-1.16,3.33L159,326.33a2.51,2.51,0,0,1-3.36-1.16l-1-2a2.51,2.51,0,0,1,1.16-3.34l23.29-11.4A2.5,2.5,0,0,1,182.47,309.59Z"/><path class="cls-35" d="M199.53,328.46l1.93,1a2.5,2.5,0,0,1,1,3.38l-12.24,23a2.5,2.5,0,0,1-3.4,1l-1.94-1a2.5,2.5,0,0,1-1-3.38l12.24-23A2.5,2.5,0,0,1,199.53,328.46Z"/><rect class="cls-35" x="537.41" y="61.18" width="7.26" height="30.86" rx="2.48" transform="translate(953.28 435.29) rotate(-147.03)"/><path class="cls-35" d="M548.26,108l1,2.71A2.17,2.17,0,0,0,552.1,112L577,102.51a2.17,2.17,0,0,0,1.25-2.82L577.17,97a2.18,2.18,0,0,0-2.79-1.24l-24.87,9.46A2.16,2.16,0,0,0,548.26,108Z"/><path class="cls-35" d="M550.59,133.35l-.74,2.78a2.17,2.17,0,0,0,1.53,2.64l25.83,7a2.16,2.16,0,0,0,2.66-1.53l.73-2.78a2.16,2.16,0,0,0-1.53-2.65l-25.82-7A2.17,2.17,0,0,0,550.59,133.35Z"/><path class="cls-36" d="M392.29,370.5c-3-2.77-25.64,10.49-25.64,10.49a1.71,1.71,0,0,0-1,.5,4.5,4.5,0,0,0-3.66-1.9h-5.38a4.62,4.62,0,0,0-4.3,2.85c-.07,0-.09-.08-.17-.08s-21.78-13.26-24.95-10.49-5.23,29.44-1,30c4,.56,23.25-8.93,25.24-9.91l0,1c-.07,2.19,2,4,4.62,4h5.38c2.62,0,4.82-1.78,4.89-4l.08-2.57s20.69,10.69,25,10.1S395.27,373.26,392.29,370.5Z"/><path class="cls-37" d="M337.89,394.23s-12.72,3.49-11.57,5.55S337.89,394.23,337.89,394.23Z"/><path class="cls-37" d="M380.13,394.23s12.73,3.49,11.58,5.55S380.13,394.23,380.13,394.23Z"/><path class="cls-2" d="M469.82,480.25c.86,1.59,29.33,0,31.58-8.06s.78-12.56,1.87-12.67,35-13.36,30.21-22.89-28.67,15.61-33.39,15.71-5.86-4.86,7.11-15.71,13.44-18.38,6.74-19.88-11.77,3.28-18.65,17.14-20.09,25.29-16,4.56c0,0,16.47-24.94,8-30.19s-21.23,12.39-25,54.5c0,0,.41,4.95-11-1.08s-17.42-7.6-18.85-2.82c-1.23,4.13,4.31,7.61,15.87,9.81A43.18,43.18,0,0,1,464.39,475,17,17,0,0,1,469.82,480.25Z"/><path class="cls-2" d="M256.11,486.85c-.87,1.58-29.33,0-31.58-8.06s-.78-12.56-1.87-12.67-35-13.36-30.21-22.89,28.67,15.61,33.39,15.7,5.85-4.85-7.11-15.7-13.44-18.38-6.74-19.88,11.77,3.27,18.65,17.14,20.09,25.29,16,4.55c0,0-16.47-24.94-8-30.19s21.23,12.4,25,54.5c0,0-.42,5,11-1.07s17.42-7.6,18.85-2.83c1.23,4.14-4.31,7.62-15.87,9.82a43.11,43.11,0,0,0-16.12,6.33A17,17,0,0,0,256.11,486.85Z"/><path class="cls-38" d="M227.07,482s23.42,94,38.27,114.82l-9.23-109.92S229.61,485.1,227.07,482Z"/><path class="cls-38" d="M500.87,473.33s-7.21,94-22.07,114.82l-7-109.92S498.33,476.49,500.87,473.33Z"/><path class="cls-2" d="M408.73,114.48c-6.82,3.17,4.29,13.32,6.19,21.56s-12.55,19.65-12.55,19.65h0c-12.64-9.5-27.92-16.82-43.26-16.8-19.09,0-35.74,10.05-48.61,20.92-4-3.61-11.71-11.55-10.29-17.72,1.9-8.24,13-18.39,6.19-21.56s-49.47,27.69-36,31.07c5.76,1.44,15.88-7.61,20-3.8,2.72,2.52,8.65,12.56,12.34,19-7.64,7.4-13.4,14.28-16.81,17.7-9.48,9.51-5.74,100.81,0,118.88s52.27,53.25,77,52.3,63.72-48.5,69.53-58,3.7-90.35,0-105.56c-1.68-6.91-9.74-18.53-21.32-29.15,3.43-6.12,10.53-18.42,13.59-21.26,4.11-3.8,14.23,5.25,20,3.81C458.2,142.17,415.55,111.31,408.73,114.48Z"/><path class="cls-39" d="M371.17,159.5c6.64,10.13-48.83,11.41-53.58,34.23s1,52.63-16.78,51.36-7.62-62.14,6.33-71S359.12,141.11,371.17,159.5Z"/><path class="cls-40" d="M284.39,132s16.24-10.56,20.39-9.09-29.2,25.55-31.89,23.07S284.39,132,284.39,132Z"/><path class="cls-40" d="M432.49,126.86s-16.24-10.57-20.39-9.1,29.19,25.56,31.89,23.08S432.49,126.86,432.49,126.86Z"/><path class="cls-41" d="M482.76,541.27C480.85,504,479,408.19,428.23,407.61s-47.55-7.45-47.55-7.45c-5.71-27,8.54-56.69,8.54-56.69s-15.32,8.5-26.29,11.08-35.2-11.08-35.2-11.08c16.8,22.48,11.43,49.8,11.43,49.8s6,11.48-45.94,17.21-37.8,142.26-37.8,142.26,3.53,55.22,25,56.36c9,.48,14.27-3.67,17.42-8.66,8.64,16.17,39.3,28.12,75.8,28.12,38,0,69.68-13,76.75-30.15,4.42,2.24,10.05,2.51,15.9,2.51C478.36,600.92,484.66,578.55,482.76,541.27Z"/></g></g></svg>