<svg xmlns="http://www.w3.org/2000/svg" viewBox="0 0 314.13 51.71"><defs><style>.cls-1{opacity:0;}.cls-2{font-size:10.88px;font-family:Nunito-Bold, Nunito;font-weight:700;letter-spacing:0.02em;}.cls-2,.cls-9{fill:#fff;}.cls-3{letter-spacing:0.02em;}.cls-4{letter-spacing:0.02em;}.cls-5{letter-spacing:0.02em;}.cls-6{letter-spacing:0.02em;}.cls-7{letter-spacing:0.07em;}.cls-8{letter-spacing:0.02em;}</style></defs><title>Asset 5</title><g id="Layer_2" data-name="Layer 2"><g id="Layer_1-2" data-name="Layer 1"><rect class="cls-1" width="314.13" height="51.71"/><text class="cls-2" transform="translate(73.93 28.64)">B<tspan class="cls-3" x="7.7" y="0">r</tspan><tspan class="cls-4" x="12.03" y="0">o</tspan><tspan class="cls-5" x="18.47" y="0">w</tspan><tspan x="27.98" y="0">se hund</tspan><tspan class="cls-3" x="69.45" y="0">r</tspan><tspan x="73.78" y="0">eds </tspan><tspan class="cls-6" x="95.41" y="0">o</tspan><tspan x="101.9" y="0">f intern oppo</tspan><tspan class="cls-7" x="170.27" y="0">r</tspan><tspan x="175.19" y="0">tunitie</tspan><tspan class="cls-8" x="209.09" y="0">s</tspan><tspan x="214.59" y="0">. </tspan></text><path class="cls-9" d="M36.38,38.07c-9.29,0-17-10.38-17-12.22,0-2.9,7.82-12.21,17-12.21S53.33,23,53.33,25.85C53.33,28.17,45.51,38.07,36.38,38.07ZM21.23,25.81c.34,1.24,6.77,10.36,15.15,10.36,8.23,0,14.89-8.94,15.15-10.34-.1-1.65-6.84-10.29-15.15-10.29S21.35,24.09,21.23,25.81Zm15.15,5.37a5.81,5.81,0,0,1-5.65-6,5.65,5.65,0,1,1,11.29,0A5.81,5.81,0,0,1,36.38,31.18Zm0-10a4.08,4.08,0,1,0,3.85,4.07A4,4,0,0,0,36.38,21.15Z"/></g></g></svg>