<svg xmlns="http://www.w3.org/2000/svg" viewBox="0 0 73.93 51.71"><defs><style>.cls-1{fill:#fff;}.cls-2{opacity:0;}</style></defs><title>Asset 8</title><g id="Layer_2" data-name="Layer 2"><g id="Layer_1-2" data-name="Layer 1"><path class="cls-1" d="M37.52,43.08H36.4a9.93,9.93,0,0,1-9.91-9.91V18.54A9.93,9.93,0,0,1,36.4,8.63h1.12a9.92,9.92,0,0,1,9.91,9.91V33.17A9.92,9.92,0,0,1,37.52,43.08ZM36.4,10.66a7.9,7.9,0,0,0-7.88,7.88V33.17A7.89,7.89,0,0,0,36.4,41h1.12a7.88,7.88,0,0,0,7.88-7.87V18.54a7.89,7.89,0,0,0-7.88-7.88ZM37,18.45a1.47,1.47,0,1,0,1.47,1.47A1.46,1.46,0,0,0,37,18.45Z"/><rect class="cls-2" width="73.93" height="51.71"/></g></g></svg>