<svg xmlns="http://www.w3.org/2000/svg" viewBox="0 0 275.27 24.43"><defs><style>.cls-1{font-size:10.88px;font-family:Nunito-Bold, Nunito;font-weight:700;letter-spacing:0.02em;}.cls-1,.cls-8{fill:#fff;}.cls-2{letter-spacing:0.02em;}.cls-3{letter-spacing:0.02em;}.cls-4{letter-spacing:0.02em;}.cls-5{letter-spacing:0.02em;}.cls-6{letter-spacing:0.07em;}.cls-7{letter-spacing:0.02em;}</style></defs><title>browse</title><g id="Layer_2" data-name="Layer 2"><g id="Layer_1-2" data-name="Layer 1"><text class="cls-1" transform="translate(54.5 15)">B<tspan class="cls-2" x="7.7" y="0">r</tspan><tspan class="cls-3" x="12.03" y="0">o</tspan><tspan class="cls-4" x="18.47" y="0">w</tspan><tspan x="27.98" y="0">se hund</tspan><tspan class="cls-2" x="69.45" y="0">r</tspan><tspan x="73.78" y="0">eds </tspan><tspan class="cls-5" x="95.41" y="0">o</tspan><tspan x="101.9" y="0">f intern oppo</tspan><tspan class="cls-6" x="170.27" y="0">r</tspan><tspan x="175.19" y="0">tunitie</tspan><tspan class="cls-7" x="209.09" y="0">s</tspan><tspan x="214.59" y="0">. </tspan></text><path class="cls-8" d="M17,24.43C7.67,24.43,0,14.05,0,12.22,0,9.31,7.82,0,17,0s17,9.31,17,12.22C33.9,14.54,26.08,24.43,17,24.43ZM1.8,12.17C2.14,13.42,8.58,22.53,17,22.53S31.84,13.59,32.1,12.2C32,10.54,25.26,1.9,17,1.9S1.92,10.45,1.8,12.17ZM17,17.55a5.82,5.82,0,0,1-5.65-6,5.82,5.82,0,0,1,5.65-6,5.83,5.83,0,0,1,5.65,6A5.83,5.83,0,0,1,17,17.55Zm0-10a4,4,0,0,0-3.85,4.06A4,4,0,0,0,17,15.65a4,4,0,0,0,3.85-4.07A4,4,0,0,0,17,7.52Z"/></g></g></svg>