<svg xmlns="http://www.w3.org/2000/svg" xmlns:xlink="http://www.w3.org/1999/xlink" viewBox="0 0 718.15 603.37"><defs><style>.cls-1{fill:url(#linear-gradient);}.cls-2{fill:#7fd686;}.cls-3{font-size:3.19px;letter-spacing:0.02em;}.cls-27,.cls-28,.cls-3,.cls-32,.cls-8,.cls-9{fill:#fff;}.cls-3,.cls-9{font-family:Nunito-Bold, Nunito;font-weight:700;}.cls-4{letter-spacing:0.02em;}.cls-24,.cls-25,.cls-5{fill:#e6e6e6;}.cls-14,.cls-20,.cls-6{font-size:2.66px;}.cls-14,.cls-20,.cls-27,.cls-28,.cls-32,.cls-6{font-family:Nunito-Regular, Nunito;}.cls-6{letter-spacing:0.03em;}.cls-7{letter-spacing:0.06em;}.cls-9{font-size:4.49px;letter-spacing:0.03em;}.cls-10{letter-spacing:0.02em;}.cls-11{letter-spacing:0.02em;}.cls-12{letter-spacing:0.02em;}.cls-13{letter-spacing:0em;}.cls-14{letter-spacing:0.02em;}.cls-15{letter-spacing:0.02em;}.cls-16{letter-spacing:0.02em;}.cls-17{letter-spacing:0.03em;}.cls-18{letter-spacing:0.01em;}.cls-19{letter-spacing:0.02em;}.cls-20{letter-spacing:0.02em;}.cls-21{fill:#333;}.cls-22{fill:#b3b3b3;}.cls-23{fill:#444;}.cls-24{opacity:0.12;}.cls-25{opacity:0.49;}.cls-26{opacity:0.91;fill:url(#linear-gradient-2);}.cls-27,.cls-32{font-size:3.18px;}.cls-27,.cls-33{letter-spacing:0.02em;}.cls-28{font-size:3.79px;}.cls-29{fill:url(#linear-gradient-3);}.cls-30{fill:url(#main_gradient);}.cls-31{fill:url(#radial-gradient);}.cls-32{letter-spacing:0.02em;}.cls-34{fill:#f2f2f2;}.cls-35{fill:#111968;}.cls-36{fill:#785793;}.cls-37{fill:#fffefa;}.cls-38{fill:#b67add;}.cls-39{fill:#1b1f3d;}.cls-40,.cls-44{fill:#e5cdf7;}.cls-41{fill:#666;}.cls-42{fill:gray;}.cls-43{fill:#f7ebbc;}.cls-44{opacity:0.2;}.cls-45{fill:#ffebab;}</style><linearGradient id="linear-gradient" x1="577.62" y1="942.51" x2="69.35" y2="1481.35" gradientTransform="matrix(-1, -0.03, 0.03, -1, 650.38, 1540.45)" gradientUnits="userSpaceOnUse"><stop offset="0" stop-color="#485fab"/><stop offset="1" stop-color="#8b0094"/></linearGradient><linearGradient id="linear-gradient-2" x1="261.91" y1="135.66" x2="467.37" y2="135.66" gradientTransform="matrix(1, 0, 0, 1, 0, 0)" xlink:href="#linear-gradient"/><linearGradient id="linear-gradient-3" x1="273.95" y1="141.31" x2="274.3" y2="133.58" gradientUnits="userSpaceOnUse"><stop offset="0" stop-color="#8400ff"/><stop offset="1" stop-color="#8b0094"/></linearGradient><linearGradient id="main_gradient" x1="274.17" y1="138.29" x2="274.29" y2="130.57" gradientUnits="userSpaceOnUse"><stop offset="0" stop-color="#00af73"/><stop offset="1" stop-color="#7fd686"/></linearGradient><radialGradient id="radial-gradient" cx="632.1" cy="-296.35" r="6.27" gradientTransform="translate(-271.08 569.9) rotate(-13.37)" xlink:href="#linear-gradient-3"/></defs><title>clienticon</title><g id="Layer_2" data-name="Layer 2"><g id="Layer_1-2" data-name="Layer 1"><path class="cls-1" d="M610.26,560.08c-33.08,36.71-172.85-10.88-210.5-16.22S238.2,607.62,181.61,574s-53.45-91.09-94.26-98.78c-106.14-20-105.74-166.26-51-207.46C76.23,237.72,51.09,139.23,89.17,97s109.22-35,171-41.21c20.34-2,79.08-70.3,158.31-52.93S544,100.1,578.82,127.34s134,47.82,138.86,125.35c5.53,89.12-39,83-74.35,159.46C623.27,455.5,668.8,495.14,610.26,560.08Z"/><rect class="cls-2" x="356.16" y="219.58" width="22.64" height="6.5" rx="2.52"/><text class="cls-3" transform="translate(362.21 223.74)">Sea<tspan class="cls-4" x="5.68" y="0">r</tspan><tspan x="6.95" y="0">ch</tspan></text><rect class="cls-5" x="349.42" y="205.4" width="36.2" height="8.32"/><path class="cls-5" d="M422.07,205.4H386.51v8.32h35.56a1.08,1.08,0,0,0,1.13-1v-6.33A1.07,1.07,0,0,0,422.07,205.4Z"/><path class="cls-5" d="M348.54,205.4H312.88a1.06,1.06,0,0,0-1.12,1v6.33a1.07,1.07,0,0,0,1.12,1h35.66Z"/><text class="cls-6" transform="translate(315.08 210.35)">Internship Title</text><text class="cls-6" transform="translate(351.21 210.35)"><tspan xml:space="preserve"> Location</tspan></text><text class="cls-6" transform="translate(388.54 210.35)">So<tspan class="cls-7" x="3.24" y="0">r</tspan><tspan x="4.35" y="0">t By</tspan></text><path class="cls-2" d="M422.07,205.4h-7.33v8.32h7.33a1.08,1.08,0,0,0,1.13-1v-6.33A1.07,1.07,0,0,0,422.07,205.4Z"/><polygon class="cls-8" points="418.97 208.57 420.42 208.57 419.7 209.83 418.97 211.08 418.25 209.83 417.52 208.57 418.97 208.57"/><text class="cls-9" transform="translate(327.81 197.8)">Help us find what <tspan class="cls-10" x="39.85" y="0">y</tspan><tspan x="42.28" y="0">ou’</tspan><tspan class="cls-11" x="48.92" y="0">r</tspan><tspan x="50.7" y="0">e looking </tspan><tspan class="cls-12" x="71.84" y="0">f</tspan><tspan x="73.54" y="0">o</tspan><tspan class="cls-13" x="76.23" y="0">r</tspan><tspan x="77.96" y="0">.</tspan></text><rect class="cls-5" x="390.08" y="213.72" width="24.67" height="20.01"/><text class="cls-14" transform="translate(392.56 217.67)">Rel<tspan class="cls-15" x="4.04" y="0">e</tspan><tspan class="cls-16" x="5.49" y="0">v</tspan><tspan class="cls-17" x="6.89" y="0">ance</tspan></text><text class="cls-6" transform="translate(392.56 223.79)">Date <tspan class="cls-18" x="6.69" y="0">P</tspan><tspan x="8.43" y="0">o</tspan><tspan class="cls-19" x="9.97" y="0">s</tspan><tspan x="11.29" y="0">ted</tspan></text><text class="cls-20" transform="translate(392.56 229.91)">Location</text><path class="cls-21" d="M542.53,83.15H186.82a19,19,0,0,0-19,19V318.3a19,19,0,0,0,19,19H339.05a4.3,4.3,0,0,0-.18,1.2v38.51a4.6,4.6,0,0,1-3.08,4.33c-10,3.52-39.2,6.74-48.53,15.05a4.54,4.54,0,0,0,1.12,7.42c16.5,8.13,81.43,35.26,149.28-2a5.83,5.83,0,0,0-.74-10.57c-7.94-3-22.52-7-49.34-11.9a4.57,4.57,0,0,1-3.76-4.41c-.15-8.5-.62-27.83-.83-36.59a4.36,4.36,0,0,0-.18-1.08H542.53a19,19,0,0,0,19-19V102.19A19,19,0,0,0,542.53,83.15Z"/><rect class="cls-22" x="191.48" y="103.8" width="346.39" height="212.89" rx="8.36"/><path class="cls-23" d="M341.37,410s52,6.63,83-11.87C424.38,398.14,395.48,424.73,341.37,410Z"/><path class="cls-24" d="M521.51,83.15H186.82a19,19,0,0,0-19,19V318.3a19,19,0,0,0,19,19h32.45C272.49,291.5,439.87,151.4,521.51,83.15Z"/><rect class="cls-25" x="261.91" y="128.34" width="205.46" height="158.31"/><rect class="cls-26" x="261.91" y="128.34" width="205.46" height="14.66"/><text class="cls-27" transform="translate(446.76 137.04)">Log Out</text><text class="cls-28" transform="translate(280.7 137.34) scale(1.15 1)">Intern Galactic</text><circle class="cls-29" cx="274.2" cy="135.73" r="3.87"/><path class="cls-30" d="M270.59,135.47v1s0,.34.3.35.15-.83.15-.83,0-.27.22-.3.22.32.22.32v.52s0,.11.24.13a.18.18,0,0,0,.2-.18V136a.15.15,0,0,1,.16-.16.16.16,0,0,1,.16.18v1.36a.17.17,0,0,0,.19.22c.24,0,.19-.28.19-.28v-1.16s0-.39.31-.39.28.36.28.36v2.08s0,.3.18.31.17-.35.17-.35v-3.63a.69.69,0,0,1,.67-.61.68.68,0,0,1,.7.55l.07,3.38a.27.27,0,0,0,.27.22c.26,0,.24-.27.24-.27v-1.13s0-.38.24-.38.27.27.27.27v.67s0,.11.19.13.14-.16.14-.16v-1.54s-.07-.38.24-.38.27.35.27.35v1s0,.13.25.15a.21.21,0,0,0,.22-.19v-.76s0-.24.17-.24.19.24.19.24v1.45a.1.1,0,0,1,0,0,3.88,3.88,0,1,0-7.37-2.18C270.57,135.2,270.59,135.47,270.59,135.47Zm3.64-3.09a.66.66,0,0,1,.66.66.67.67,0,1,1-.66-.66Z"/><path class="cls-31" d="M275.35,136.49s0,0,0,0a9.28,9.28,0,0,1-2.31.85c-1.94.46-3.64.35-3.78-.25-.07-.32.29-.7.92-1.07,0,0,0,0,0,0-.37.27-.57.55-.51.79.14.6,1.84.72,3.78.25A9.64,9.64,0,0,0,275.35,136.49Zm2.38-2.85h0c.44,0,.73.18.8.4.14.41-.47,1-1.48,1.53,1.25-.58,2-1.27,1.89-1.73-.11-.3-.61-.44-1.33-.42,0,0,0,0,0,0Z"/><text class="cls-32" transform="translate(431.87 137.34)">Pr<tspan class="cls-33" x="3.27" y="0">ofile</tspan></text><rect class="cls-21" x="185.35" y="438.12" width="361.54" height="74.79" rx="12"/><rect class="cls-22" x="193.76" y="445.22" width="14.92" height="7.43" rx="1.24"/><rect class="cls-22" x="193.76" y="455.05" width="9.27" height="7.43" rx="1.24"/><rect class="cls-22" x="205.13" y="455.05" width="9.27" height="7.43" rx="1.24"/><rect class="cls-22" x="211.21" y="445.22" width="9.27" height="7.43" rx="1.24"/><rect class="cls-22" x="207.73" y="464.88" width="9.27" height="7.43" rx="1.24"/><rect class="cls-22" x="212.37" y="474.71" width="9.27" height="7.43" rx="1.24"/><rect class="cls-22" x="204.04" y="484.54" width="9.27" height="7.43" rx="1.24"/><rect class="cls-22" x="205.13" y="494.37" width="9.27" height="7.43" rx="1.24"/><rect class="cls-22" x="215.84" y="494.37" width="9.27" height="7.43" rx="1.24"/><rect class="cls-22" x="215.84" y="484.54" width="9.27" height="7.43" rx="1.24"/><rect class="cls-22" x="193.76" y="464.88" width="11.79" height="7.43" rx="1.24"/><rect class="cls-22" x="193.76" y="474.71" width="16" height="7.43" rx="1.24"/><rect class="cls-22" x="193.76" y="484.54" width="8.61" height="7.43" rx="1.24"/><rect class="cls-22" x="193.76" y="494.37" width="8.61" height="7.43" rx="1.24"/><rect class="cls-22" x="522.95" y="446.42" width="14.92" height="7.43" rx="1.24" transform="translate(1060.82 900.27) rotate(-180)"/><rect class="cls-22" x="528.61" y="456.25" width="9.27" height="7.43" rx="1.24" transform="translate(1066.48 919.93) rotate(-180)"/><rect class="cls-22" x="517.24" y="456.25" width="9.27" height="7.43" rx="1.24" transform="translate(1043.74 919.93) rotate(-180)"/><rect class="cls-22" x="511.15" y="446.42" width="9.27" height="7.43" rx="1.24" transform="translate(1031.57 900.27) rotate(-180)"/><rect class="cls-22" x="514.63" y="466.08" width="9.27" height="7.43" rx="1.24" transform="translate(1038.53 939.59) rotate(-180)"/><rect class="cls-22" x="510" y="475.91" width="9.27" height="7.43" rx="1.24" transform="translate(1029.26 959.25) rotate(-180)"/><rect class="cls-22" x="518.32" y="485.74" width="9.27" height="7.43" rx="1.24" transform="translate(1045.9 978.91) rotate(-180)"/><rect class="cls-22" x="517.24" y="495.57" width="9.27" height="7.43" rx="1.24" transform="translate(1043.74 998.57) rotate(-180)"/><rect class="cls-22" x="506.52" y="495.57" width="9.27" height="7.43" rx="1.24" transform="translate(1022.31 998.57) rotate(-180)"/><rect class="cls-22" x="506.52" y="485.74" width="9.27" height="7.43" rx="1.24" transform="translate(1022.31 978.91) rotate(-180)"/><rect class="cls-22" x="526.08" y="466.08" width="11.79" height="7.43" rx="1.24" transform="translate(1063.96 939.59) rotate(-180)"/><rect class="cls-22" x="521.87" y="475.91" width="16" height="7.43" rx="1.24" transform="translate(1059.74 959.25) rotate(-180)"/><rect class="cls-22" x="529.26" y="485.74" width="8.61" height="7.43" rx="1.24" transform="translate(1067.13 978.91) rotate(-180)"/><rect class="cls-22" x="529.26" y="495.57" width="8.61" height="7.43" rx="1.24" transform="translate(1067.13 998.57) rotate(-180)"/><path class="cls-34" d="M237.31,575.43s-30.2-34.57-34.2-91.58c0,0,11.93-10.5,25.72-2.5Z"/><path class="cls-34" d="M228.67,447.86s-8.43-6.7-11.93,0c0,0-7.5-4.09-10.5,3,0,0-10.5-3.57-10.5,4.39,0,0-10-1.85-9,4.72s5.5,21.82,17.5,23.81S230,480.43,230,480.43Z"/><path class="cls-35" d="M203.11,483.85s14.31,2.24,24.91-5.5v5.84s-14.84,5.41-24.91,4.16Z"/><path class="cls-5" d="M195.3,460.1c-2.75,1.1.42,16.86,11.44,19.88s10.69-13.82,15.19-15.44-1.48-10.25-6.36-8.38-5.83,2.07-8.27,1.69-4.12,2.44-5.81,2.44S199.05,458.6,195.3,460.1Z"/><path class="cls-36" d="M205.86,491.54l9.71-.94s-1.65,23,8,55.49C223.52,546.09,207.11,518.72,205.86,491.54Z"/><path class="cls-34" d="M487.12,570.55S517.31,536,521.31,479c0,0-11.92-10.5-25.71-2.5Z"/><path class="cls-34" d="M495.75,443s8.43-6.69,11.93,0c0,0,7.5-4.09,10.5,3,0,0,10.5-3.56,10.5,4.4,0,0,10-1.85,9,4.71s-5.5,21.83-17.5,23.82-25.71-3.32-25.71-3.32Z"/><path class="cls-35" d="M521.31,479s-14.3,2.24-24.9-5.51v5.85s14.84,5.41,24.9,4.16Z"/><path class="cls-5" d="M529.12,455.23c2.76,1.1-.41,16.85-11.44,19.87S507,461.28,502.5,459.66s1.47-10.25,6.36-8.37,5.82,2.06,8.26,1.69,4.13,2.43,5.82,2.43S525.37,453.73,529.12,455.23Z"/><path class="cls-36" d="M518.56,486.66l-9.7-.93s1.64,23-8,55.49C500.9,541.22,517.31,513.85,518.56,486.66Z"/><path class="cls-37" d="M297.54,394s-67.45-5.8-68.71,44.47-1.89,113.29,0,120.79,10.34,29.25,24.68,30a40.41,40.41,0,0,0,24.37-6.75Z"/><path class="cls-38" d="M448.68,407.47s17-20.34,2.64-24.47-29.18,11.14-29.18,11.14S432.68,414,448.68,407.47Z"/><path class="cls-35" d="M274.82,395.55c-1.7-.71-46.35-6.13-47.28,49.33,0,0,23.38,20.88,48.23,11.93Z"/><path class="cls-38" d="M269.39,406.26s-17-20.34-2.64-24.47,29.18,11.14,29.18,11.14S285.39,412.82,269.39,406.26Z"/><path class="cls-36" d="M270.08,468.73c-3.46-.88-10.38,1.61-18.42-4.13l18.42,118.76Z"/><path class="cls-35" d="M229.46,562.78c.22-1.63,24-18.17,40.44-1.38,0,0,13.52,33.25-15.21,30.81S228.21,572.2,229.46,562.78Z"/><path class="cls-39" d="M237.31,575.43s17.27,10.12,28.5,0C265.81,575.43,254.37,594,237.31,575.43Z"/><path class="cls-5" d="M253.62,405.84c3.25,2-12.25,16-13.75,23.35S241,444.88,241,444.88s-13.58-18.1-1.62-33.07S253.62,405.84,253.62,405.84Z"/><path class="cls-5" d="M234.49,568.09s29-7.23,31.32,1.77S249.61,566.32,234.49,568.09Z"/><path class="cls-37" d="M426.89,395.29s67.45-5.81,68.71,44.47,1.88,113.28,0,120.79-10.35,29.25-24.68,30a40.38,40.38,0,0,1-24.37-6.75Z"/><path class="cls-35" d="M449.6,396.85c1.7-.7,46.35-6.12,47.28,49.34,0,0-23.38,20.88-48.23,11.92Z"/><path class="cls-36" d="M454.34,470c3.46-.88,10.39,1.61,18.43-4.14L454.34,584.67Z"/><path class="cls-35" d="M495,564.08c-.22-1.62-24-18.16-40.44-1.37,0,0-13.52,33.25,15.22,30.81S496.22,573.51,495,564.08Z"/><path class="cls-39" d="M487.12,576.73s-17.28,10.13-28.5,0C458.62,576.73,470.05,595.3,487.12,576.73Z"/><path class="cls-5" d="M470.8,407.15c-3.25,2,12.26,15.94,13.76,23.35s-1.17,15.69-1.17,15.69S497,428.08,485,413.12,470.8,407.15,470.8,407.15Z"/><path class="cls-5" d="M489.94,569.4s-29-7.23-31.32,1.77S474.82,567.62,489.94,569.4Z"/><path class="cls-37" d="M467.81,238.61c-.11-2.44-.3-4.62-.54-6.46-3.33-25.63-60.9-76.71-102.52-74.41-75,4.13-109.2,66.14-109.2,66.14-.85,5.1-1.49,10.07-2,14.92-6.23-1.66-17.07,3.26-10.55,39.11,8.15,44.74,5.27,43.72,20.14,43.08,0,0-.11-1.09-.29-3C278.28,360.28,305.56,381,305.56,381,364.75,405.89,416,381,416,381c18.75-14.13,31.22-36.54,39.23-60,14.58.63,11.79,1.37,19.88-43.1C480.61,247.77,473.81,239.5,467.81,238.61Z"/><path class="cls-40" d="M350,169.41s-66.94,14.51-74.52,53.18,1.9,64.47,12.63,68.84,23.37-66.08,35.36-69.53,48.63-4.83,52.42-14.5S382.23,167.34,350,169.41Z"/><path class="cls-40" d="M254.15,243.26s-16.33-5.14,8.44,62.1C262.59,305.36,241,241.06,254.15,243.26Z"/><path class="cls-40" d="M465.71,243.26s16.34-5.14-8.43,62.1C457.28,305.36,478.89,241.06,465.71,243.26Z"/><path class="cls-35" d="M305.56,381S287.78,391.71,290,397.22s85,25.91,147.27,0c0,0,3.61-8.69-21.26-16.19C416,381,367.8,396.8,305.56,381Z"/><rect class="cls-38" x="270.55" y="393.78" width="186.73" height="209.59" rx="12"/><ellipse class="cls-35" cx="327.94" cy="314.55" rx="4.56" ry="4.52"/><ellipse class="cls-35" cx="363.63" cy="314.55" rx="4.56" ry="4.52"/><ellipse class="cls-35" cx="399.32" cy="314.55" rx="4.56" ry="4.52"/><path class="cls-36" d="M282.22,401.74c3,1.35,151.9,2.83,151.9,2.83s8.89,1.18,8.89,10.15,7.8,172.18,0,181.67c-5.74,7-15.56,7-15.56,7h19.8s11.27,0,10.86-10c-.34-8.42,0-185.93,0-185.93s1.24-13.71-10.86-13.71c-13.5,0-160.58,4.14-160.58,4.14S274.81,398.43,282.22,401.74Z"/><ellipse class="cls-41" cx="325.92" cy="364.76" rx="12.02" ry="11.92"/><ellipse class="cls-41" cx="329.96" cy="456.81" rx="12.02" ry="11.92"/><path class="cls-42" d="M319.45,359.53s15-6.4,13.05,11.79c0,0-33.86,41.89,5.44,79.92,0,0,3.34,14.88-12,13.23C325.92,464.47,277.78,426.55,319.45,359.53Z"/><path class="cls-41" d="M306.09,388.4s9.41-1.76,11.85,3.68c0,0-9.75-4.59-12.87,0Z"/><path class="cls-41" d="M302.47,413.65s5.8-4.14,11.43,0c0,0-11.65-.11-11.21,4Z"/><path class="cls-41" d="M305.53,432.69s1.31-3,10.13-1.2c0,0-10.13,1.36-9.52,3.09Z"/><path class="cls-40" d="M442.43,546.09l.84-134.49s1.4-12-14.55-11.94c0,0,9.63,4.23,9.26,13.41S442.43,546.09,442.43,546.09Z"/><rect class="cls-36" x="378.17" y="422.03" width="4.26" height="14.33"/><rect class="cls-36" x="371.1" y="422.03" width="4.26" height="14.33"/><rect class="cls-36" x="364.03" y="422.03" width="4.26" height="14.33"/><rect class="cls-36" x="356.96" y="422.03" width="4.26" height="14.33"/><rect class="cls-36" x="324.25" y="488.35" width="70.78" height="79.74" rx="12"/><ellipse class="cls-43" cx="361.05" cy="542.65" rx="7.97" ry="7.91"/><rect class="cls-43" x="360" y="521.79" width="2.11" height="8.96"/><polygon class="cls-43" points="354.85 532.4 353.14 533.63 347.84 526.38 349.54 525.16 354.85 532.4"/><polygon class="cls-43" points="349.96 537.98 349.31 539.96 340.72 537.2 341.38 535.21 349.96 537.98"/><polygon class="cls-43" points="372.79 539.96 372.14 537.98 380.73 535.21 381.38 537.2 372.79 539.96"/><polygon class="cls-43" points="368.96 533.63 367.26 532.4 372.56 525.16 374.27 526.38 368.96 533.63"/><ellipse class="cls-35" cx="341.51" cy="497.81" rx="2.32" ry="2.3"/><ellipse class="cls-35" cx="350.79" cy="497.81" rx="2.32" ry="2.3"/><ellipse class="cls-35" cx="360.07" cy="497.81" rx="2.32" ry="2.3"/><ellipse class="cls-35" cx="369.35" cy="497.81" rx="2.32" ry="2.3"/><ellipse class="cls-35" cx="378.62" cy="497.81" rx="2.32" ry="2.3"/><path class="cls-44" d="M277,524v57.32s-3,15.8,12.77,16.17,44.06,0,42.69-8.82-33.61-.37-34.72-9.92S288.52,502.32,277,524Z"/><rect class="cls-45" x="198.82" y="59.17" width="7.26" height="30.86" rx="2.87" transform="translate(-13.31 74.39) rotate(-20.17)"/><path class="cls-45" d="M188.28,103.91,187,105.75a2.51,2.51,0,0,1-3.47.69L162,92.09a2.5,2.5,0,0,1-.69-3.49l1.24-1.85a2.51,2.51,0,0,1,3.47-.68l21.6,14.35A2.52,2.52,0,0,1,188.28,103.91Z"/><path class="cls-45" d="M180.59,128.16l.08,2.19a2.51,2.51,0,0,1-2.4,2.6L152.22,134a2.52,2.52,0,0,1-2.61-2.42l-.08-2.19a2.52,2.52,0,0,1,2.41-2.6L178,125.74A2.5,2.5,0,0,1,180.59,128.16Z"/><rect class="cls-45" x="566.76" y="280.41" width="7.26" height="30.86" rx="2.48" transform="translate(248.48 851.94) rotate(-87.35)"/><path class="cls-45" d="M546.93,317.92l-1.81,2.28a2.16,2.16,0,0,0,.34,3l20.71,16.7a2.17,2.17,0,0,0,3.06-.34l1.81-2.28a2.16,2.16,0,0,0-.34-3L550,317.58A2.17,2.17,0,0,0,546.93,317.92Z"/><path class="cls-45" d="M526.23,332.72l-2.77.77a2.16,2.16,0,0,0-1.51,2.66L529,362a2.16,2.16,0,0,0,2.67,1.52l2.77-.77a2.16,2.16,0,0,0,1.51-2.65l-7-25.82A2.17,2.17,0,0,0,526.23,332.72Z"/></g></g></svg>