<?xml version="1.0"?>
<svg xmlns="http://www.w3.org/2000/svg" height="512px" viewBox="-70 0 512 512.0005" width="512px"><path d="m365.449219 468.25c-4.128907-.65625-8.019531 2.160156-8.675781 6.292969-1.988282 12.378906-12.195313 21.515625-24.597657 22.234375-.007812.007812-.019531 0-.019531 0-8.855469-1.484375-15.679688-9.5625-15.679688-18.710938v-19.4375c0-6.199218-5.039062-11.238281-11.238281-11.238281h-249.683593v-129.371094c0-4.179687-3.390626-7.574219-7.570313-7.574219s-7.574219 3.394532-7.574219 7.574219v129.371094h-29.171875c-6.199219 0-11.238281 5.039063-11.238281 11.238281v19.4375c0 17.566406 13.667969 33.917969 35.070312 33.917969 311.367188 0 297.027344.070313 297.90625-.070313.007813.007813.019532 0 .019532 0 19.515625-1.101562 35.613281-15.472656 38.734375-34.988281.65625-4.132812-2.152344-8.007812-6.28125-8.675781zm-331.53125 28.585938c-10.351563 0-18.773438-8.421876-18.773438-18.769532v-15.53125h286.183594c.777344 10.957032-2.554687 21.851563 5.59375 34.300782-284.0625 0-110.355469 0-273.003906 0zm0 0" fill="#933EC5"/><path d="m369.558594 74.707031c-3.578125-7.410156-3.226563-4.636719-65.796875-67.003906-5.046875-4.964844-11.730469-7.703125-18.808594-7.703125h-231.941406c-6.945313 0-12.601563 5.65625-12.601563 12.601562v275.125c0 4.179688 3.394532 7.574219 7.574219 7.574219s7.570313-3.394531 7.570313-7.574219v-272.582031c48.222656.003907 228.746093-.007812 229.703124.015625v50.375c0 11.242188 9.148438 20.386719 20.390626 20.386719h51.4375c.035156.890625.019531 280.933594.023437 359.550781 0 4.179688 3.390625 7.570313 7.570313 7.570313 4.183593 0 7.574218-3.390625 7.574218-7.570313-.8125-375.269531 2.1875-361.871094-2.695312-370.765625zm-63.910156-3.929687c-2.890626 0-5.242188-2.351563-5.242188-5.242188v-39.878906l45.808594 45.121094zm0 0" fill="#933EC5"/><path d="m320.570312 130.894531c4.183594 0 7.574219-3.390625 7.574219-7.574219 0-4.183593-3.390625-7.570312-7.574219-7.570312h-36.636718c-4.183594 0-7.574219 3.386719-7.574219 7.570312 0 4.183594 3.390625 7.574219 7.574219 7.574219zm0 0" fill="#933EC5"/><path d="m92.082031 130.894531h161.558594c4.183594 0 7.574219-3.390625 7.574219-7.574219 0-4.183593-3.390625-7.570312-7.574219-7.570312h-161.558594c-4.183593 0-7.574219 3.386719-7.574219 7.570312 0 4.183594 3.390626 7.574219 7.574219 7.574219zm0 0" fill="#933EC5"/><path d="m92.082031 182.53125h228.488281c4.183594 0 7.574219-3.390625 7.574219-7.570312 0-4.183594-3.390625-7.574219-7.574219-7.574219h-228.488281c-4.183593 0-7.574219 3.390625-7.574219 7.574219 0 4.179687 3.390626 7.570312 7.574219 7.570312zm0 0" fill="#933EC5"/><path d="m92.082031 234.171875h228.488281c4.183594 0 7.574219-3.390625 7.574219-7.574219s-3.390625-7.574218-7.574219-7.574218h-228.488281c-4.183593 0-7.574219 3.390624-7.574219 7.574218s3.390626 7.574219 7.574219 7.574219zm0 0" fill="#933EC5"/><path d="m92.082031 285.808594h228.488281c4.183594 0 7.574219-3.390625 7.574219-7.574219s-3.390625-7.574219-7.574219-7.574219h-228.488281c-4.183593 0-7.574219 3.390625-7.574219 7.574219s3.390626 7.574219 7.574219 7.574219zm0 0" fill="#933EC5"/><path d="m266.515625 410.984375c-4.175781-.191406-7.71875 3.042969-7.910156 7.222656-.1875 4.179688 3.046875 7.71875 7.222656 7.90625 32.144531 1.453125 55.332031-29.625 50.632813-44.734375-2.257813-7.277344-9.359376-10.21875-12.769532-11.632812-15.175781-6.289063-30.59375-12.445313-46.023437-18.386719 1.832031-6.347656 3.070312-12.964844 3.558593-19.886719.835938-11.9375-11.53125-20.28125-22.28125-15.074218-12.546874 6.078124-18.703124 9.324218-21.449218 16.636718-4.566406 12.160156 4.863281 21.191406 17.578125 25.945313 1.046875.394531 2.089843.785156 3.136719 1.175781-8.9375 19.601562-23.882813 36.902344-37.59375 52.769531-2.734376 3.164063-2.382813 7.945313.78125 10.679688 3.164062 2.738281 7.945312 2.386719 10.679687-.777344 14.683594-16.992187 30.679687-35.507813 40.371094-57.25 2.292969.882813 47.5625 18.390625 49.496093 20.3125-.082031 1.679687-1.859374 7.160156-7.605468 13.242187-4.441406 4.695313-13.960938 12.449219-27.824219 11.851563zm-23.089844-65.046875c-17.515625-6.589844-14.503906-7.855469 2.117188-15.90625.296875-.140625.59375.074219.574219.378906-.375 5.332032-1.308594 10.503906-2.691407 15.527344zm0 0" fill="#933EC5"/></svg>
