<svg xmlns="http://www.w3.org/2000/svg" viewBox="0 0 246.25 35.32"><defs><style>.cls-1{font-size:10.88px;font-family:Nunito-Bold, Nunito;font-weight:700;letter-spacing:0.02em;}.cls-1,.cls-9{fill:#fff;}.cls-2{letter-spacing:0.02em;}.cls-3{letter-spacing:0.02em;}.cls-4{letter-spacing:0.02em;}.cls-5{letter-spacing:0.02em;}.cls-6{letter-spacing:0.02em;}.cls-7{letter-spacing:0.02em;}.cls-8{letter-spacing:0.02em;}</style></defs><title>find</title><g id="Layer_2" data-name="Layer 2"><g id="Layer_1-2" data-name="Layer 1"><text class="cls-1" transform="translate(54.04 22.66)">Find inte<tspan class="cls-2" x="46.14" y="0">r</tspan><tspan class="cls-3" x="50.52" y="0">ships mo</tspan><tspan class="cls-4" x="97.62" y="0">s</tspan><tspan x="103.11" y="0">t </tspan><tspan class="cls-5" x="110.62" y="0">r</tspan><tspan x="114.95" y="0">el</tspan><tspan class="cls-6" x="124.03" y="0">e</tspan><tspan class="cls-7" x="129.99" y="0">v</tspan><tspan x="135.91" y="0">ant to </tspan><tspan class="cls-8" x="170.23" y="0">y</tspan><tspan x="176.14" y="0">ou.</tspan></text><path class="cls-9" d="M23.11,11.56A11.56,11.56,0,1,0,11.56,23.11a11.92,11.92,0,0,0,2.25-.22L17.08,34.5a1.12,1.12,0,1,0,2.16-.61L16,22.24A11.58,11.58,0,0,0,23.11,11.56ZM11.56,21.21a9.66,9.66,0,1,1,9.65-9.65A9.66,9.66,0,0,1,11.56,21.21Z"/></g></g></svg>