<svg xmlns="http://www.w3.org/2000/svg" viewBox="0 0 314.13 51.71"><defs><style>.cls-1{opacity:0;}.cls-2{font-size:10.88px;font-family:Nunito-Bold, Nunito;font-weight:700;letter-spacing:0.02em;}.cls-10,.cls-2{fill:#fff;}.cls-3{letter-spacing:0.02em;}.cls-4{letter-spacing:0.02em;}.cls-5{letter-spacing:0.02em;}.cls-6{letter-spacing:0.02em;}.cls-7{letter-spacing:0.02em;}.cls-8{letter-spacing:0.02em;}.cls-9{letter-spacing:0.02em;}</style></defs><title>Asset 4</title><g id="Layer_2" data-name="Layer 2"><g id="Layer_1-2" data-name="Layer 1"><rect class="cls-1" width="314.13" height="51.71"/><text class="cls-2" transform="translate(78.55 30.85)">Find inte<tspan class="cls-3" x="46.14" y="0">r</tspan><tspan class="cls-4" x="50.52" y="0">ships mo</tspan><tspan class="cls-5" x="97.62" y="0">s</tspan><tspan x="103.11" y="0">t </tspan><tspan class="cls-6" x="110.62" y="0">r</tspan><tspan x="114.95" y="0">el</tspan><tspan class="cls-7" x="124.03" y="0">e</tspan><tspan class="cls-8" x="129.99" y="0">v</tspan><tspan x="135.91" y="0">ant to </tspan><tspan class="cls-9" x="170.23" y="0">y</tspan><tspan x="176.14" y="0">ou.</tspan></text><path class="cls-10" d="M47.62,19.75A11.56,11.56,0,1,0,36.06,31.3a11.92,11.92,0,0,0,2.25-.22L41.59,42.7a1.12,1.12,0,0,0,2.16-.61L40.46,30.43A11.58,11.58,0,0,0,47.62,19.75ZM36.06,29.41a9.66,9.66,0,1,1,9.66-9.66A9.68,9.68,0,0,1,36.06,29.41Z"/></g></g></svg>