<svg xmlns="http://www.w3.org/2000/svg" viewBox="0 0 73.93 51.71"><defs><style>.cls-1{fill:#fff;}.cls-2{opacity:0;}</style></defs><title>Asset 9</title><g id="Layer_2" data-name="Layer 2"><g id="Layer_1-2" data-name="Layer 1"><path class="cls-1" d="M37,35.73C27.68,35.73,20,25.35,20,23.51c0-2.9,7.82-12.21,17-12.21s16.95,9.31,16.95,12.21C53.91,25.83,46.09,35.73,37,35.73ZM21.81,23.47c.35,1.24,6.78,10.36,15.15,10.36s14.9-8.94,15.15-10.34C52,21.83,45.27,13.19,37,13.19S21.94,21.75,21.81,23.47ZM37,28.84a5.81,5.81,0,0,1-5.64-6,5.65,5.65,0,1,1,11.29,0A5.81,5.81,0,0,1,37,28.84Zm0-10a4.08,4.08,0,1,0,3.85,4.07A4,4,0,0,0,37,18.81Z"/><rect class="cls-2" width="73.93" height="51.71"/></g></g></svg>