<svg xmlns="http://www.w3.org/2000/svg" viewBox="0 0 223.64 34.44"><defs><style>.cls-1{fill:#fff;}</style></defs><title>getintouch</title><g id="Layer_2" data-name="Layer 2"><g id="Layer_1-2" data-name="Layer 1"><path class="cls-1" d="M58.57,13.22a.53.53,0,0,1,.15.39V16a1.51,1.51,0,0,1-.13.71,1,1,0,0,1-.54.33,4.41,4.41,0,0,1-1,.24,7.11,7.11,0,0,1-1.11.09,4.28,4.28,0,0,1-2-.47,3.17,3.17,0,0,1-1.34-1.35,4.64,4.64,0,0,1-.46-2.12,4.57,4.57,0,0,1,.46-2.09,3.25,3.25,0,0,1,1.31-1.36,4,4,0,0,1,2-.48,3.76,3.76,0,0,1,2.51.83.8.8,0,0,1,.19.24.61.61,0,0,1,.06.28.63.63,0,0,1-.13.41.39.39,0,0,1-.32.16.46.46,0,0,1-.21,0,1,1,0,0,1-.23-.12,3.42,3.42,0,0,0-.89-.48,3.05,3.05,0,0,0-.94-.13,2.22,2.22,0,0,0-1.79.7,3.13,3.13,0,0,0-.6,2.08c0,1.89.82,2.83,2.48,2.83A5.45,5.45,0,0,0,57.47,16V14.08H56.24a.63.63,0,0,1-.41-.13.53.53,0,0,1,0-.74.58.58,0,0,1,.41-.13h1.92A.62.62,0,0,1,58.57,13.22Z"/><path class="cls-1" d="M65,15.91a.61.61,0,0,1,.11.38.65.65,0,0,1-.4.56,3.5,3.5,0,0,1-.84.33,3.19,3.19,0,0,1-.89.13,2.79,2.79,0,0,1-2-.74,2.71,2.71,0,0,1-.75-2,3.07,3.07,0,0,1,.33-1.45,2.35,2.35,0,0,1,.92-1,2.6,2.6,0,0,1,1.34-.35,2.39,2.39,0,0,1,1.25.32,2.16,2.16,0,0,1,.83.89,2.9,2.9,0,0,1,.29,1.36c0,.31-.13.47-.41.47H61.49a1.67,1.67,0,0,0,.43,1.1,1.39,1.39,0,0,0,1,.35,2,2,0,0,0,.62-.08l.6-.24a1.2,1.2,0,0,1,.48-.18A.37.37,0,0,1,65,15.91Zm-3.07-2.83a1.61,1.61,0,0,0-.4,1H64a1.51,1.51,0,0,0-.33-1,1.05,1.05,0,0,0-.84-.34A1.18,1.18,0,0,0,61.89,13.08Z"/><path class="cls-1" d="M69.73,16.77a.43.43,0,0,1-.22.39,1,1,0,0,1-.6.12l-.29,0a1.75,1.75,0,0,1-1.83-2V12.92h-.54a.7.7,0,0,1-.46-.13.46.46,0,0,1-.15-.38.49.49,0,0,1,.15-.38.76.76,0,0,1,.46-.13h.54v-1a.64.64,0,0,1,.18-.47.74.74,0,0,1,.5-.17.69.69,0,0,1,.49.17.61.61,0,0,1,.19.47v1h.92a.76.76,0,0,1,.46.13.49.49,0,0,1,.15.38.46.46,0,0,1-.15.38.7.7,0,0,1-.46.13h-.92v2.47c0,.54.25.83.74.86l.29,0C69.55,16.3,69.73,16.46,69.73,16.77Z"/><path class="cls-1" d="M74,10.62a.69.69,0,0,1-.21-.52A.69.69,0,0,1,74,9.57a.85.85,0,0,1,.59-.19.85.85,0,0,1,.58.19.67.67,0,0,1,.23.53.69.69,0,0,1-.22.52.93.93,0,0,1-1.18,0Zm.11,6.5a.6.6,0,0,1-.19-.49V12.44a.59.59,0,0,1,.19-.48.7.7,0,0,1,.48-.17.73.73,0,0,1,.49.17.6.6,0,0,1,.2.48v4.19a.6.6,0,0,1-.2.49.73.73,0,0,1-.49.17A.7.7,0,0,1,74.12,17.12Z"/><path class="cls-1" d="M81.48,12.32A2.47,2.47,0,0,1,81.94,14v2.67a.62.62,0,0,1-.18.48.66.66,0,0,1-.49.18.68.68,0,0,1-.5-.18.62.62,0,0,1-.19-.48V14a1.39,1.39,0,0,0-.23-.9.89.89,0,0,0-.73-.28,1.24,1.24,0,0,0-1,.37,1.41,1.41,0,0,0-.35,1v2.42a.62.62,0,0,1-.18.48.7.7,0,0,1-.5.18.68.68,0,0,1-.5-.18.62.62,0,0,1-.18-.48V12.42a.57.57,0,0,1,.19-.45.68.68,0,0,1,.5-.18.65.65,0,0,1,.46.17.57.57,0,0,1,.18.44v.3A1.8,1.8,0,0,1,79,12a2.17,2.17,0,0,1,1-.24A1.78,1.78,0,0,1,81.48,12.32Z"/><path class="cls-1" d="M90.12,16.77a.44.44,0,0,1-.21.39,1,1,0,0,1-.6.12l-.29,0a1.75,1.75,0,0,1-1.83-2V12.92h-.55a.69.69,0,0,1-.45-.13.47.47,0,0,1-.16-.38.5.5,0,0,1,.16-.38.75.75,0,0,1,.45-.13h.55v-1a.64.64,0,0,1,.18-.47.74.74,0,0,1,.5-.17.69.69,0,0,1,.49.17.61.61,0,0,1,.19.47v1h.92a.71.71,0,0,1,.45.13.46.46,0,0,1,.16.38.44.44,0,0,1-.16.38.65.65,0,0,1-.45.13h-.92v2.47c0,.54.24.83.74.86l.29,0C89.94,16.3,90.12,16.46,90.12,16.77Z"/><path class="cls-1" d="M92.1,17a2.28,2.28,0,0,1-.95-1,3,3,0,0,1-.34-1.46,3,3,0,0,1,.34-1.47,2.26,2.26,0,0,1,.95-1,3.18,3.18,0,0,1,2.86,0,2.26,2.26,0,0,1,1,1,3.42,3.42,0,0,1,0,2.93,2.28,2.28,0,0,1-1,1,3.18,3.18,0,0,1-2.86,0Zm2.43-1.15a2,2,0,0,0,.35-1.28,2,2,0,0,0-.35-1.28,1.17,1.17,0,0,0-1-.44,1.22,1.22,0,0,0-1,.44,2,2,0,0,0-.35,1.28,2,2,0,0,0,.35,1.28,1.19,1.19,0,0,0,1,.43A1.21,1.21,0,0,0,94.53,15.82Z"/><path class="cls-1" d="M102.33,12a.62.62,0,0,1,.19.47v4.22a.59.59,0,0,1-.19.45.71.71,0,0,1-.5.18.66.66,0,0,1-.47-.17.57.57,0,0,1-.17-.44v-.27a1.75,1.75,0,0,1-.68.67,2,2,0,0,1-1,.23c-1.31,0-2-.73-2-2.2V12.44a.61.61,0,0,1,.18-.47.69.69,0,0,1,.49-.18.68.68,0,0,1,.5.18.58.58,0,0,1,.19.47v2.68a1.24,1.24,0,0,0,.23.84.89.89,0,0,0,.72.27,1.16,1.16,0,0,0,.9-.37,1.42,1.42,0,0,0,.35-1V12.44a.61.61,0,0,1,.18-.47.67.67,0,0,1,.49-.18A.68.68,0,0,1,102.33,12Z"/><path class="cls-1" d="M105.17,17a2.16,2.16,0,0,1-.93-1,3,3,0,0,1-.33-1.44,3.07,3.07,0,0,1,.34-1.47,2.45,2.45,0,0,1,1-1,2.91,2.91,0,0,1,1.43-.35,3.12,3.12,0,0,1,.85.12,2.77,2.77,0,0,1,.76.33.67.67,0,0,1,.35.57.61.61,0,0,1-.12.39.34.34,0,0,1-.3.15.61.61,0,0,1-.25-.06,2.1,2.1,0,0,1-.26-.13,3.08,3.08,0,0,0-.45-.22,1.59,1.59,0,0,0-.5-.08,1.25,1.25,0,0,0-1,.44,1.89,1.89,0,0,0-.37,1.27,1.87,1.87,0,0,0,.37,1.25,1.25,1.25,0,0,0,1,.44,1.21,1.21,0,0,0,.48-.08,3.81,3.81,0,0,0,.47-.22,1.62,1.62,0,0,1,.29-.15.69.69,0,0,1,.24,0,.35.35,0,0,1,.29.16.58.58,0,0,1,.12.38.66.66,0,0,1-.08.32.8.8,0,0,1-.27.24,2.63,2.63,0,0,1-.78.34,3.15,3.15,0,0,1-.92.13A2.73,2.73,0,0,1,105.17,17Z"/><path class="cls-1" d="M114.77,14v2.67a.62.62,0,0,1-.18.48.78.78,0,0,1-1,0,.62.62,0,0,1-.18-.48V14a1.2,1.2,0,0,0-.24-.84.91.91,0,0,0-.73-.27,1.22,1.22,0,0,0-.94.37,1.37,1.37,0,0,0-.36,1v2.42a.62.62,0,0,1-.18.48.7.7,0,0,1-.5.18.68.68,0,0,1-.5-.18.62.62,0,0,1-.18-.48v-6.5a.63.63,0,0,1,.19-.46.76.76,0,0,1,.5-.17.72.72,0,0,1,.49.16.58.58,0,0,1,.18.45v2.53a1.83,1.83,0,0,1,.73-.65,2.39,2.39,0,0,1,1-.22C114.14,11.77,114.77,12.5,114.77,14Z"/><path class="cls-1" d="M127.05,11.9a.63.63,0,0,1,.32-.1.73.73,0,0,1,.46.17.56.56,0,0,1,.2.42.49.49,0,0,1-.06.25l-1.79,4.21a.66.66,0,0,1-.27.32.77.77,0,0,1-.4.11.76.76,0,0,1-.38-.11.66.66,0,0,1-.27-.32l-1.29-3.11-1.25,3.11a.66.66,0,0,1-.27.32.77.77,0,0,1-.4.11.77.77,0,0,1-.39-.11.66.66,0,0,1-.27-.32l-1.79-4.21a.79.79,0,0,1,0-.24.54.54,0,0,1,.22-.43.72.72,0,0,1,.48-.18.64.64,0,0,1,.33.1.59.59,0,0,1,.23.3l1.29,3.31L123,12.22a.65.65,0,0,1,.25-.31.64.64,0,0,1,.72,0,.65.65,0,0,1,.25.31l1.33,3.29,1.27-3.31A.69.69,0,0,1,127.05,11.9Z"/><path class="cls-1" d="M129.31,10.62a.74.74,0,0,1,0-1,.85.85,0,0,1,.59-.19.85.85,0,0,1,.58.19.67.67,0,0,1,.22.53.69.69,0,0,1-.21.52.84.84,0,0,1-.59.21A.82.82,0,0,1,129.31,10.62Zm.1,6.5a.63.63,0,0,1-.19-.49V12.44a.62.62,0,0,1,.19-.48.73.73,0,0,1,.49-.17.75.75,0,0,1,.49.17.59.59,0,0,1,.19.48v4.19a.6.6,0,0,1-.19.49.75.75,0,0,1-.49.17A.73.73,0,0,1,129.41,17.12Z"/><path class="cls-1" d="M135.57,16.77a.43.43,0,0,1-.22.39,1,1,0,0,1-.6.12l-.29,0a1.75,1.75,0,0,1-1.83-2V12.92h-.54a.7.7,0,0,1-.46-.13.46.46,0,0,1-.15-.38.49.49,0,0,1,.15-.38.76.76,0,0,1,.46-.13h.54v-1a.64.64,0,0,1,.18-.47.74.74,0,0,1,.5-.17.69.69,0,0,1,.49.17.61.61,0,0,1,.19.47v1h.92a.76.76,0,0,1,.46.13.49.49,0,0,1,.15.38.46.46,0,0,1-.15.38.7.7,0,0,1-.46.13H134v2.47c0,.54.25.83.74.86l.29,0C135.39,16.3,135.57,16.46,135.57,16.77Z"/><path class="cls-1" d="M141.53,14v2.67a.62.62,0,0,1-.18.48.68.68,0,0,1-.5.18.7.7,0,0,1-.5-.18.62.62,0,0,1-.18-.48V14a1.2,1.2,0,0,0-.24-.84.91.91,0,0,0-.73-.27,1.22,1.22,0,0,0-.94.37,1.36,1.36,0,0,0-.35,1v2.42a.62.62,0,0,1-.19.48.78.78,0,0,1-1,0,.65.65,0,0,1-.17-.48v-6.5a.59.59,0,0,1,.19-.46.81.81,0,0,1,1,0,.59.59,0,0,1,.19.45v2.53a1.81,1.81,0,0,1,.72-.65,2.4,2.4,0,0,1,1-.22C140.9,11.77,141.53,12.5,141.53,14Z"/><path class="cls-1" d="M147.36,17a2.27,2.27,0,0,1-.93-1,3.12,3.12,0,0,1-.32-1.44,3.07,3.07,0,0,1,.34-1.47,2.45,2.45,0,0,1,1-1,2.91,2.91,0,0,1,1.43-.35,3.12,3.12,0,0,1,.85.12,2.77,2.77,0,0,1,.76.33.67.67,0,0,1,.35.57.61.61,0,0,1-.12.39.34.34,0,0,1-.3.15.61.61,0,0,1-.25-.06l-.26-.13a3.08,3.08,0,0,0-.45-.22,1.6,1.6,0,0,0-.51-.08,1.24,1.24,0,0,0-1,.44,1.89,1.89,0,0,0-.37,1.27,1.87,1.87,0,0,0,.37,1.25,1.24,1.24,0,0,0,1,.44,1.23,1.23,0,0,0,.49-.08,3.81,3.81,0,0,0,.47-.22,1.62,1.62,0,0,1,.29-.15.59.59,0,0,1,.23,0,.35.35,0,0,1,.3.16.58.58,0,0,1,.12.38.66.66,0,0,1-.08.32.8.8,0,0,1-.27.24,2.75,2.75,0,0,1-.78.34,3.2,3.2,0,0,1-.92.13A2.79,2.79,0,0,1,147.36,17Z"/><path class="cls-1" d="M153,17a2.28,2.28,0,0,1-.95-1,3,3,0,0,1-.34-1.46,3,3,0,0,1,.34-1.47,2.26,2.26,0,0,1,.95-1,3.18,3.18,0,0,1,2.86,0,2.31,2.31,0,0,1,.95,1,3.42,3.42,0,0,1,0,2.93,2.34,2.34,0,0,1-.95,1A3.18,3.18,0,0,1,153,17Zm2.43-1.15a2,2,0,0,0,.35-1.28,2,2,0,0,0-.35-1.28,1.19,1.19,0,0,0-1-.44,1.2,1.2,0,0,0-1,.44,2,2,0,0,0-.35,1.28,2,2,0,0,0,.35,1.28,1.19,1.19,0,0,0,1,.43A1.21,1.21,0,0,0,155.41,15.82Z"/><path class="cls-1" d="M166.16,12.29a2.45,2.45,0,0,1,.47,1.67v2.67a.6.6,0,0,1-.2.49.71.71,0,0,1-.49.17.69.69,0,0,1-.48-.17.6.6,0,0,1-.19-.49V14a1.39,1.39,0,0,0-.22-.86.77.77,0,0,0-.64-.25,1.07,1.07,0,0,0-.85.36,1.5,1.5,0,0,0-.32,1v2.42a.6.6,0,0,1-.19.49.72.72,0,0,1-.48.17.73.73,0,0,1-.49-.17.6.6,0,0,1-.2-.49V14a1.39,1.39,0,0,0-.21-.86.8.8,0,0,0-.65-.25,1.06,1.06,0,0,0-.84.36,1.5,1.5,0,0,0-.31,1v2.42a.6.6,0,0,1-.2.49.73.73,0,0,1-.49.17.72.72,0,0,1-.48-.17.6.6,0,0,1-.19-.49V12.42a.57.57,0,0,1,.2-.46.73.73,0,0,1,.49-.17.71.71,0,0,1,.46.16.58.58,0,0,1,.18.45v.26a1.64,1.64,0,0,1,.67-.66,2,2,0,0,1,1-.23,1.57,1.57,0,0,1,1.6,1,1.84,1.84,0,0,1,.71-.73,2.05,2.05,0,0,1,1.05-.27A1.68,1.68,0,0,1,166.16,12.29Z"/><path class="cls-1" d="M172.56,12.12a2.31,2.31,0,0,1,.84,1,3.45,3.45,0,0,1,.3,1.47,3.25,3.25,0,0,1-.3,1.44,2.2,2.2,0,0,1-2.06,1.3,2.13,2.13,0,0,1-1-.24,1.73,1.73,0,0,1-.68-.66v2.22a.55.55,0,0,1-.19.44.69.69,0,0,1-.49.16.68.68,0,0,1-.49-.17.59.59,0,0,1-.19-.46V12.44a.61.61,0,0,1,.18-.47.65.65,0,0,1,.48-.18.66.66,0,0,1,.49.18.58.58,0,0,1,.19.47v.27a1.64,1.64,0,0,1,.69-.69,2,2,0,0,1,1-.25A2.23,2.23,0,0,1,172.56,12.12ZM172,15.81a1.91,1.91,0,0,0,.36-1.24,2.06,2.06,0,0,0-.36-1.29,1.2,1.2,0,0,0-1-.45,1.23,1.23,0,0,0-1,.44,2.05,2.05,0,0,0-.35,1.28,2,2,0,0,0,.35,1.26,1.37,1.37,0,0,0,2,0Z"/><path class="cls-1" d="M179,12.32a2.3,2.3,0,0,1,.54,1.67v2.66a.64.64,0,0,1-.17.46.69.69,0,0,1-.48.17.62.62,0,0,1-.46-.18.6.6,0,0,1-.18-.45v-.24a1.49,1.49,0,0,1-.58.66,1.78,1.78,0,0,1-.92.24,2.07,2.07,0,0,1-1-.22,1.68,1.68,0,0,1-.69-.6,1.54,1.54,0,0,1-.25-.85,1.32,1.32,0,0,1,.3-.92,1.84,1.84,0,0,1,1-.49,8.87,8.87,0,0,1,1.86-.15h.27v-.25a1.12,1.12,0,0,0-.23-.78,1,1,0,0,0-.74-.24,2.41,2.41,0,0,0-.64.09c-.22.06-.48.15-.77.26a1.06,1.06,0,0,1-.42.15.39.39,0,0,1-.32-.15.53.53,0,0,1-.12-.37.57.57,0,0,1,.09-.32.82.82,0,0,1,.31-.25,3.33,3.33,0,0,1,.91-.33,4.61,4.61,0,0,1,1-.12A2.22,2.22,0,0,1,179,12.32ZM178,16a1.38,1.38,0,0,0,.34-1V14.8h-.2a8.21,8.21,0,0,0-1.13.06,1.08,1.08,0,0,0-.58.23.61.61,0,0,0-.17.45.75.75,0,0,0,.24.57.88.88,0,0,0,.61.22A1.18,1.18,0,0,0,178,16Z"/><path class="cls-1" d="M185.75,12.32a2.47,2.47,0,0,1,.47,1.64v2.67a.62.62,0,0,1-.18.48.68.68,0,0,1-.5.18.7.7,0,0,1-.5-.18.62.62,0,0,1-.18-.48V14a1.38,1.38,0,0,0-.24-.9.88.88,0,0,0-.73-.28,1.22,1.22,0,0,0-.94.37,1.36,1.36,0,0,0-.35,1v2.42a.62.62,0,0,1-.19.48.68.68,0,0,1-.5.18.64.64,0,0,1-.49-.18.62.62,0,0,1-.18-.48V12.42a.6.6,0,0,1,.18-.45.68.68,0,0,1,.5-.18.65.65,0,0,1,.46.17.57.57,0,0,1,.18.44v.3a1.86,1.86,0,0,1,.73-.69,2.21,2.21,0,0,1,1-.24A1.75,1.75,0,0,1,185.75,12.32Z"/><path class="cls-1" d="M188,10.62a.66.66,0,0,1-.22-.52.67.67,0,0,1,.22-.53,1,1,0,0,1,1.17,0,.67.67,0,0,1,.22.53.66.66,0,0,1-.22.52.79.79,0,0,1-.58.21A.8.8,0,0,1,188,10.62Zm.1,6.5a.63.63,0,0,1-.19-.49V12.44a.62.62,0,0,1,.19-.48.73.73,0,0,1,.49-.17A.75.75,0,0,1,189,12a.59.59,0,0,1,.19.48v4.19a.6.6,0,0,1-.19.49.75.75,0,0,1-.49.17A.73.73,0,0,1,188.06,17.12Z"/><path class="cls-1" d="M195.42,15.91a.61.61,0,0,1,.11.38.65.65,0,0,1-.4.56,3.5,3.5,0,0,1-.84.33,3.19,3.19,0,0,1-.89.13,2.79,2.79,0,0,1-2-.74,2.71,2.71,0,0,1-.75-2,3.07,3.07,0,0,1,.33-1.45,2.35,2.35,0,0,1,.92-1,2.6,2.6,0,0,1,1.34-.35,2.39,2.39,0,0,1,1.25.32,2.16,2.16,0,0,1,.83.89,2.9,2.9,0,0,1,.29,1.36c0,.31-.13.47-.41.47H192a1.67,1.67,0,0,0,.43,1.1,1.39,1.39,0,0,0,1,.35,1.88,1.88,0,0,0,.61-.08c.18-.06.38-.14.61-.24a1.2,1.2,0,0,1,.48-.18A.37.37,0,0,1,195.42,15.91Zm-3.07-2.83a1.61,1.61,0,0,0-.4,1h2.46a1.51,1.51,0,0,0-.33-1,1.05,1.05,0,0,0-.84-.34A1.18,1.18,0,0,0,192.35,13.08Z"/><path class="cls-1" d="M197,16.84a.64.64,0,0,1-.35-.59.51.51,0,0,1,.12-.35.38.38,0,0,1,.29-.14,1.11,1.11,0,0,1,.51.18,5.52,5.52,0,0,0,.64.25,2.5,2.5,0,0,0,.73.09,1.33,1.33,0,0,0,.72-.16.46.46,0,0,0,.25-.42.39.39,0,0,0-.1-.29,1,1,0,0,0-.37-.21q-.27-.09-.81-.21a3.1,3.1,0,0,1-1.39-.55,1.23,1.23,0,0,1-.42-1,1.44,1.44,0,0,1,.29-.87,1.81,1.81,0,0,1,.77-.6,2.88,2.88,0,0,1,1.13-.21,3.22,3.22,0,0,1,.88.12,2.37,2.37,0,0,1,.76.33.66.66,0,0,1,.35.57.57.57,0,0,1-.12.37.36.36,0,0,1-.29.15.69.69,0,0,1-.24-.05l-.29-.15a3.79,3.79,0,0,0-.54-.24,1.53,1.53,0,0,0-.56-.09,1.08,1.08,0,0,0-.64.17.49.49,0,0,0-.23.44.46.46,0,0,0,.23.42,3.9,3.9,0,0,0,.93.28,5.19,5.19,0,0,1,1.14.35,1.28,1.28,0,0,1,.59.49,1.51,1.51,0,0,1-.43,1.93,2.72,2.72,0,0,1-1.64.45A3.48,3.48,0,0,1,197,16.84Z"/><path class="cls-1" d="M209.68,12.32a2.3,2.3,0,0,1,.54,1.67v2.66a.6.6,0,0,1-.18.46.65.65,0,0,1-.48.17.63.63,0,0,1-.46-.18.6.6,0,0,1-.18-.45v-.24a1.38,1.38,0,0,1-.58.66,1.73,1.73,0,0,1-.92.24,2.1,2.1,0,0,1-1-.22,1.59,1.59,0,0,1-.68-.6,1.47,1.47,0,0,1-.25-.85,1.32,1.32,0,0,1,.3-.92,1.81,1.81,0,0,1,1-.49,9,9,0,0,1,1.86-.15h.27v-.25a1.07,1.07,0,0,0-.23-.78,1,1,0,0,0-.74-.24,2.41,2.41,0,0,0-.64.09c-.21.06-.47.15-.77.26a1.08,1.08,0,0,1-.41.15.39.39,0,0,1-.32-.15.49.49,0,0,1-.13-.37.57.57,0,0,1,.09-.32.91.91,0,0,1,.31-.25,3.59,3.59,0,0,1,.91-.33,4.68,4.68,0,0,1,1-.12A2.25,2.25,0,0,1,209.68,12.32ZM208.58,16a1.33,1.33,0,0,0,.34-1V14.8h-.19a8,8,0,0,0-1.13.06,1,1,0,0,0-.58.23.58.58,0,0,0-.18.45.76.76,0,0,0,.25.57.84.84,0,0,0,.6.22A1.17,1.17,0,0,0,208.58,16Z"/><path class="cls-1" d="M216.39,12.32a2.47,2.47,0,0,1,.46,1.64v2.67a.62.62,0,0,1-.18.48.66.66,0,0,1-.49.18.68.68,0,0,1-.5-.18.62.62,0,0,1-.19-.48V14a1.39,1.39,0,0,0-.23-.9.89.89,0,0,0-.73-.28,1.24,1.24,0,0,0-.95.37,1.41,1.41,0,0,0-.35,1v2.42a.62.62,0,0,1-.18.48.7.7,0,0,1-.5.18.68.68,0,0,1-.5-.18.62.62,0,0,1-.18-.48V12.42a.57.57,0,0,1,.19-.45.68.68,0,0,1,.5-.18A.67.67,0,0,1,213,12a.57.57,0,0,1,.18.44v.3a1.8,1.8,0,0,1,.73-.69,2.17,2.17,0,0,1,1-.24A1.78,1.78,0,0,1,216.39,12.32Z"/><path class="cls-1" d="M223.45,9.67a.59.59,0,0,1,.19.46v6.5a.61.61,0,0,1-.18.47.69.69,0,0,1-.49.18.66.66,0,0,1-.49-.18.58.58,0,0,1-.19-.47v-.27a1.72,1.72,0,0,1-.69.7,2,2,0,0,1-1,.25,2.23,2.23,0,0,1-1.22-.35,2.31,2.31,0,0,1-.84-1,3.45,3.45,0,0,1-.3-1.47,3.25,3.25,0,0,1,.3-1.44,2.2,2.2,0,0,1,2.06-1.3,2.15,2.15,0,0,1,1,.24,1.71,1.71,0,0,1,.68.68V10.11a.57.57,0,0,1,.18-.44A.65.65,0,0,1,223,9.5.76.76,0,0,1,223.45,9.67Zm-1.51,6.14a2,2,0,0,0,.35-1.27,2,2,0,0,0-.35-1.27,1.2,1.2,0,0,0-1-.44,1.24,1.24,0,0,0-1,.43,1.92,1.92,0,0,0-.36,1.25,2.06,2.06,0,0,0,.36,1.29,1.36,1.36,0,0,0,2,0Z"/><path class="cls-1" d="M53.16,30a2.39,2.39,0,0,1-.93-1,3.16,3.16,0,0,1-.32-1.45,3,3,0,0,1,.34-1.46,2.47,2.47,0,0,1,1-1,2.91,2.91,0,0,1,1.43-.34,3.12,3.12,0,0,1,.85.12,2.76,2.76,0,0,1,.76.32.68.68,0,0,1,.35.58.61.61,0,0,1-.12.39.36.36,0,0,1-.3.14.79.79,0,0,1-.25-.05l-.26-.13a2.82,2.82,0,0,0-.46-.23,1.5,1.5,0,0,0-.5-.08,1.26,1.26,0,0,0-1,.44,2.35,2.35,0,0,0,0,2.53,1.26,1.26,0,0,0,1,.44,1.44,1.44,0,0,0,.49-.08,4,4,0,0,0,.47-.23,2.41,2.41,0,0,1,.28-.14.52.52,0,0,1,.24-.05.37.37,0,0,1,.3.15.6.6,0,0,1,.12.38.66.66,0,0,1-.08.32.94.94,0,0,1-.27.25,3.07,3.07,0,0,1-.78.34,3.57,3.57,0,0,1-.92.12A2.9,2.9,0,0,1,53.16,30Z"/><path class="cls-1" d="M58,30.17a.62.62,0,0,1-.19-.48v-6.5a.59.59,0,0,1,.19-.47.73.73,0,0,1,.49-.17.75.75,0,0,1,.49.17.56.56,0,0,1,.19.47v6.5a.59.59,0,0,1-.19.48.7.7,0,0,1-.49.17A.68.68,0,0,1,58,30.17Z"/><path class="cls-1" d="M60.9,23.68a.71.71,0,0,1-.21-.53.67.67,0,0,1,.21-.52.86.86,0,0,1,.59-.2.83.83,0,0,1,.58.2.65.65,0,0,1,.23.52.72.72,0,0,1-.22.53,1,1,0,0,1-1.18,0ZM61,30.17a.59.59,0,0,1-.19-.48v-4.2A.59.59,0,0,1,61,25a.7.7,0,0,1,.48-.16A.72.72,0,0,1,62,25a.6.6,0,0,1,.2.48v4.2a.6.6,0,0,1-.2.48.68.68,0,0,1-.49.17A.66.66,0,0,1,61,30.17Z"/><path class="cls-1" d="M68.36,29a.56.56,0,0,1,.12.38.66.66,0,0,1-.41.57,3.27,3.27,0,0,1-.83.33,3.66,3.66,0,0,1-.9.12,2.74,2.74,0,0,1-2-.74,2.69,2.69,0,0,1-.75-2,3.1,3.1,0,0,1,.33-1.45,2.39,2.39,0,0,1,.91-1,2.66,2.66,0,0,1,1.35-.34,2.42,2.42,0,0,1,1.25.31,2.23,2.23,0,0,1,.83.89,3.06,3.06,0,0,1,.29,1.36c0,.32-.14.47-.41.47H64.9A1.72,1.72,0,0,0,65.32,29a1.46,1.46,0,0,0,1.05.35,1.91,1.91,0,0,0,.61-.09,6.23,6.23,0,0,0,.6-.24,1.31,1.31,0,0,1,.48-.17A.36.36,0,0,1,68.36,29Zm-3.07-2.83a1.63,1.63,0,0,0-.39,1h2.46a1.59,1.59,0,0,0-.33-1,1.08,1.08,0,0,0-.85-.35A1.18,1.18,0,0,0,65.29,26.13Z"/><path class="cls-1" d="M74.42,25.37A2.47,2.47,0,0,1,74.88,27v2.68a.65.65,0,0,1-.18.48.69.69,0,0,1-.49.17.72.72,0,0,1-.5-.17.66.66,0,0,1-.19-.48v-2.6a1.39,1.39,0,0,0-.23-.9.9.9,0,0,0-.73-.29,1.28,1.28,0,0,0-1,.37,1.41,1.41,0,0,0-.35,1v2.43a.65.65,0,0,1-.18.48.74.74,0,0,1-.5.17.72.72,0,0,1-.5-.17.65.65,0,0,1-.18-.48V25.48a.59.59,0,0,1,.19-.46.72.72,0,0,1,.5-.17.61.61,0,0,1,.46.17.57.57,0,0,1,.18.44v.29a1.77,1.77,0,0,1,.73-.68,2.17,2.17,0,0,1,1-.24A1.8,1.8,0,0,1,74.42,25.37Z"/><path class="cls-1" d="M79.84,29.82a.45.45,0,0,1-.21.4,1,1,0,0,1-.6.11l-.3,0a1.75,1.75,0,0,1-1.82-2V26h-.55a.69.69,0,0,1-.45-.13.48.48,0,0,1-.16-.38.47.47,0,0,1,.16-.38.69.69,0,0,1,.45-.13h.55V24a.61.61,0,0,1,.18-.47.7.7,0,0,1,.5-.18.66.66,0,0,1,.49.18.62.62,0,0,1,.19.47v1h.92a.65.65,0,0,1,.45.13.44.44,0,0,1,.16.38.45.45,0,0,1-.16.38.65.65,0,0,1-.45.13h-.92v2.47c0,.54.24.82.74.86l.29,0C79.66,29.35,79.84,29.52,79.84,29.82Z"/><path class="cls-1" d="M80.83,29.9a.66.66,0,0,1-.34-.59.5.5,0,0,1,.12-.35.34.34,0,0,1,.29-.14,1.3,1.3,0,0,1,.51.17,3.8,3.8,0,0,0,.64.25,2.46,2.46,0,0,0,.73.09,1.39,1.39,0,0,0,.71-.15.47.47,0,0,0,.26-.43.39.39,0,0,0-.1-.29,1,1,0,0,0-.37-.2q-.27-.09-.81-.21a3.09,3.09,0,0,1-1.39-.56,1.23,1.23,0,0,1-.42-1,1.39,1.39,0,0,1,.28-.86,1.82,1.82,0,0,1,.78-.6,2.88,2.88,0,0,1,1.13-.21,3.22,3.22,0,0,1,.88.11,3.07,3.07,0,0,1,.76.33.67.67,0,0,1,.35.58.54.54,0,0,1-.12.36.37.37,0,0,1-.3.15.64.64,0,0,1-.23-.05,2,2,0,0,1-.29-.15,5.41,5.41,0,0,0-.54-.24,1.82,1.82,0,0,0-.57-.08,1,1,0,0,0-.63.16.52.52,0,0,0-.24.45.44.44,0,0,0,.24.41,3.14,3.14,0,0,0,.93.28,6,6,0,0,1,1.14.35,1.4,1.4,0,0,1,.59.49,1.44,1.44,0,0,1,.18.75,1.39,1.39,0,0,1-.61,1.19,2.72,2.72,0,0,1-1.64.44A3.55,3.55,0,0,1,80.83,29.9Z"/><path class="cls-1" d="M97,25a.51.51,0,0,1,.32-.1.72.72,0,0,1,.45.17.53.53,0,0,1,.2.42.7.7,0,0,1,0,.25l-1.8,4.21a.63.63,0,0,1-.27.31.75.75,0,0,1-.78,0,.63.63,0,0,1-.27-.31L93.52,26.8l-1.25,3.11a.63.63,0,0,1-.27.31.69.69,0,0,1-.4.11.72.72,0,0,1-.39-.11.63.63,0,0,1-.27-.31L89.16,25.7a.69.69,0,0,1-.06-.24.53.53,0,0,1,.22-.43.72.72,0,0,1,.48-.18.61.61,0,0,1,.34.1.55.55,0,0,1,.22.29l1.29,3.32L93,25.27a.72.72,0,0,1,.25-.31.65.65,0,0,1,1,.31l1.33,3.3,1.27-3.32A.57.57,0,0,1,97,25Z"/><path class="cls-1" d="M99.26,23.68a.71.71,0,0,1-.21-.53.67.67,0,0,1,.21-.52.86.86,0,0,1,.59-.2.85.85,0,0,1,.58.2.65.65,0,0,1,.23.52.72.72,0,0,1-.22.53,1,1,0,0,1-1.18,0Zm.11,6.49a.59.59,0,0,1-.19-.48v-4.2a.59.59,0,0,1,.19-.48.7.7,0,0,1,.48-.16.72.72,0,0,1,.49.16.6.6,0,0,1,.2.48v4.2a.6.6,0,0,1-.2.48.68.68,0,0,1-.49.17A.66.66,0,0,1,99.37,30.17Z"/><path class="cls-1" d="M105.52,29.82a.45.45,0,0,1-.21.4,1,1,0,0,1-.61.11l-.29,0a1.75,1.75,0,0,1-1.83-2V26H102a.65.65,0,0,1-.45-.13.45.45,0,0,1-.16-.38.44.44,0,0,1,.16-.38A.65.65,0,0,1,102,25h.54V24a.58.58,0,0,1,.19-.47.68.68,0,0,1,.5-.18.69.69,0,0,1,.49.18.61.61,0,0,1,.18.47v1h.93a.69.69,0,0,1,.45.13.46.46,0,0,1,.15.38.48.48,0,0,1-.15.38.69.69,0,0,1-.45.13h-.93v2.47a.75.75,0,0,0,.74.86l.29,0C105.34,29.35,105.52,29.52,105.52,29.82Z"/><path class="cls-1" d="M111.48,27v2.68a.65.65,0,0,1-.18.48.69.69,0,0,1-.49.17.72.72,0,0,1-.5-.17.62.62,0,0,1-.19-.48V27a1.3,1.3,0,0,0-.23-.84.93.93,0,0,0-.74-.27,1.27,1.27,0,0,0-.94.37,1.41,1.41,0,0,0-.35,1v2.43a.62.62,0,0,1-.19.48.72.72,0,0,1-.5.17.69.69,0,0,1-.49-.17.65.65,0,0,1-.18-.48V23.18a.57.57,0,0,1,.19-.45.67.67,0,0,1,.49-.18.69.69,0,0,1,.49.17.52.52,0,0,1,.19.44V25.7a1.74,1.74,0,0,1,.72-.65,2.26,2.26,0,0,1,1-.22C110.86,24.83,111.48,25.56,111.48,27Z"/><path class="cls-1" d="M119.66,29.82a.45.45,0,0,1-.21.4,1,1,0,0,1-.6.11l-.3,0a1.75,1.75,0,0,1-1.83-2V26h-.54a.65.65,0,0,1-.45-.13.45.45,0,0,1-.16-.38.44.44,0,0,1,.16-.38.65.65,0,0,1,.45-.13h.54V24a.62.62,0,0,1,.19-.47.68.68,0,0,1,.5-.18.67.67,0,0,1,.49.18.61.61,0,0,1,.18.47v1H119a.69.69,0,0,1,.45.13.47.47,0,0,1,.16.38.48.48,0,0,1-.16.38A.69.69,0,0,1,119,26h-.93v2.47a.75.75,0,0,0,.74.86l.3,0C119.48,29.35,119.66,29.52,119.66,29.82Z"/><path class="cls-1" d="M125.62,27v2.68a.65.65,0,0,1-.18.48.69.69,0,0,1-.49.17.72.72,0,0,1-.5-.17.62.62,0,0,1-.19-.48V27a1.3,1.3,0,0,0-.23-.84.93.93,0,0,0-.74-.27,1.27,1.27,0,0,0-.94.37,1.41,1.41,0,0,0-.35,1v2.43a.62.62,0,0,1-.19.48.72.72,0,0,1-.5.17.69.69,0,0,1-.49-.17.65.65,0,0,1-.18-.48V23.18a.57.57,0,0,1,.19-.45.7.7,0,0,1,.5-.18.69.69,0,0,1,.48.17.52.52,0,0,1,.19.44V25.7a1.74,1.74,0,0,1,.72-.65,2.29,2.29,0,0,1,1-.22C125,24.83,125.62,25.56,125.62,27Z"/><path class="cls-1" d="M131.79,29a.61.61,0,0,1,.11.38.65.65,0,0,1-.4.57,3.5,3.5,0,0,1-.84.33,3.58,3.58,0,0,1-.89.12,2.75,2.75,0,0,1-2-.74,2.69,2.69,0,0,1-.75-2,3.1,3.1,0,0,1,.33-1.45,2.41,2.41,0,0,1,.92-1,2.59,2.59,0,0,1,1.34-.34,2.39,2.39,0,0,1,1.25.31,2.16,2.16,0,0,1,.83.89,2.93,2.93,0,0,1,.29,1.36c0,.32-.13.47-.41.47h-3.21a1.77,1.77,0,0,0,.42,1.11,1.46,1.46,0,0,0,1,.35,1.87,1.87,0,0,0,.61-.09c.18-.06.38-.14.61-.24a1.31,1.31,0,0,1,.48-.17A.39.39,0,0,1,131.79,29Zm-3.07-2.83a1.64,1.64,0,0,0-.4,1h2.46a1.53,1.53,0,0,0-.33-1,1.06,1.06,0,0,0-.85-.35A1.16,1.16,0,0,0,128.72,26.13Z"/><path class="cls-1" d="M137.51,30a2.39,2.39,0,0,1-.93-1,3,3,0,0,1-.33-1.45,3.11,3.11,0,0,1,.34-1.46,2.43,2.43,0,0,1,1-1,2.87,2.87,0,0,1,1.42-.34,3.24,3.24,0,0,1,.86.12,2.83,2.83,0,0,1,.75.32.68.68,0,0,1,.35.58.67.67,0,0,1-.11.39.39.39,0,0,1-.3.14.74.74,0,0,1-.25-.05,2.1,2.1,0,0,1-.26-.13,3.28,3.28,0,0,0-.46-.23,1.54,1.54,0,0,0-.5-.08,1.28,1.28,0,0,0-1,.44,2.35,2.35,0,0,0,0,2.53,1.28,1.28,0,0,0,1,.44,1.42,1.42,0,0,0,.48-.08A5,5,0,0,0,140,29a1.82,1.82,0,0,1,.28-.14.52.52,0,0,1,.24-.05.36.36,0,0,1,.29.15.6.6,0,0,1,.12.38.66.66,0,0,1-.08.32.83.83,0,0,1-.27.25,2.79,2.79,0,0,1-.78.34,3.5,3.5,0,0,1-.91.12A2.87,2.87,0,0,1,137.51,30Z"/><path class="cls-1" d="M142.32,30.17a.59.59,0,0,1-.19-.48v-6.5a.56.56,0,0,1,.19-.47.69.69,0,0,1,.48-.17.73.73,0,0,1,.49.17.56.56,0,0,1,.2.47v6.5a.6.6,0,0,1-.2.48.68.68,0,0,1-.49.17A.64.64,0,0,1,142.32,30.17Z"/><path class="cls-1" d="M145.25,23.68a.68.68,0,0,1-.22-.53.65.65,0,0,1,.22-.52.84.84,0,0,1,.59-.2.85.85,0,0,1,.58.2.65.65,0,0,1,.22.52.68.68,0,0,1-.22.53.83.83,0,0,1-.58.2A.84.84,0,0,1,145.25,23.68Zm.1,6.49a.59.59,0,0,1-.19-.48v-4.2a.59.59,0,0,1,.19-.48.72.72,0,0,1,.49-.16.76.76,0,0,1,.49.16.59.59,0,0,1,.19.48v4.2a.59.59,0,0,1-.19.48.72.72,0,0,1-.49.17A.68.68,0,0,1,145.35,30.17Z"/><path class="cls-1" d="M149.16,30a2.39,2.39,0,0,1-.93-1,3,3,0,0,1-.33-1.45,3.11,3.11,0,0,1,.34-1.46,2.43,2.43,0,0,1,1-1,2.87,2.87,0,0,1,1.42-.34,3.19,3.19,0,0,1,.86.12,2.69,2.69,0,0,1,.75.32.68.68,0,0,1,.24,1,.39.39,0,0,1-.3.14.74.74,0,0,1-.25-.05l-.26-.13a3.28,3.28,0,0,0-.46-.23,1.54,1.54,0,0,0-.5-.08,1.28,1.28,0,0,0-1,.44,2.4,2.4,0,0,0,0,2.53,1.28,1.28,0,0,0,1,.44,1.42,1.42,0,0,0,.48-.08,5,5,0,0,0,.48-.23l.28-.14a.52.52,0,0,1,.24-.05.35.35,0,0,1,.29.15.6.6,0,0,1,.12.38.57.57,0,0,1-.08.32.74.74,0,0,1-.27.25,2.79,2.79,0,0,1-.78.34,3.5,3.5,0,0,1-.91.12A2.87,2.87,0,0,1,149.16,30Z"/><path class="cls-1" d="M158.73,29.69a.64.64,0,0,1-.18.45.55.55,0,0,1-.42.19.65.65,0,0,1-.45-.19l-2.54-2.31v1.86a.6.6,0,0,1-.2.48.72.72,0,0,1-.49.16.7.7,0,0,1-.48-.16.59.59,0,0,1-.19-.48v-6.5a.56.56,0,0,1,.19-.47.7.7,0,0,1,.48-.17.73.73,0,0,1,.49.17.56.56,0,0,1,.2.47v4.1l2.33-2.24a.59.59,0,0,1,.44-.19.61.61,0,0,1,.62.62.63.63,0,0,1-.21.46l-1.7,1.58,1.89,1.7A.67.67,0,0,1,158.73,29.69Z"/><path class="cls-1" d="M164.1,30a2.42,2.42,0,0,1-1-1,3.12,3.12,0,0,1-.33-1.47,3.06,3.06,0,0,1,.33-1.46,2.42,2.42,0,0,1,1-1,3.26,3.26,0,0,1,2.86,0,2.31,2.31,0,0,1,.94,1,3.06,3.06,0,0,1,.34,1.46,3.13,3.13,0,0,1-.34,1.47,2.31,2.31,0,0,1-.94,1,3.26,3.26,0,0,1-2.86,0Zm2.43-1.16a2,2,0,0,0,.35-1.28,2.05,2.05,0,0,0-.35-1.28,1.21,1.21,0,0,0-1-.44,1.23,1.23,0,0,0-1,.44,2,2,0,0,0-.35,1.28,2,2,0,0,0,.34,1.28,1.23,1.23,0,0,0,1,.44A1.22,1.22,0,0,0,166.53,28.87Z"/><path class="cls-1" d="M171.55,23.92a1.24,1.24,0,0,0-.22.79V25h.92c.41,0,.61.17.61.51s-.2.51-.61.51h-.92v3.71a.6.6,0,0,1-.2.48.68.68,0,0,1-.48.16.72.72,0,0,1-.49-.16.59.59,0,0,1-.19-.48V26h-.55c-.41,0-.61-.17-.61-.51s.2-.51.61-.51H170v-.08a2.24,2.24,0,0,1,.53-1.6,2.21,2.21,0,0,1,1.52-.66l.28,0a1,1,0,0,1,.62.09.43.43,0,0,1,.18.38c0,.32-.18.49-.53.53l-.29,0A1,1,0,0,0,171.55,23.92Z"/><path class="cls-1" d="M180.94,25.38a2.28,2.28,0,0,1,.53,1.67V29.7a.58.58,0,0,1-.17.46.63.63,0,0,1-.48.17.65.65,0,0,1-.46-.17.62.62,0,0,1-.18-.46v-.24a1.38,1.38,0,0,1-.58.66,1.75,1.75,0,0,1-.92.24,2.19,2.19,0,0,1-1-.21,1.73,1.73,0,0,1-.68-.6,1.51,1.51,0,0,1-.25-.85,1.32,1.32,0,0,1,.29-.92,1.78,1.78,0,0,1,1-.49,8.25,8.25,0,0,1,1.86-.16h.27v-.25a1.15,1.15,0,0,0-.23-.78,1,1,0,0,0-.74-.24,2.41,2.41,0,0,0-.64.09,7.31,7.31,0,0,0-.77.27,1.17,1.17,0,0,1-.42.14.43.43,0,0,1-.32-.14.55.55,0,0,1-.12-.37.57.57,0,0,1,.09-.32.93.93,0,0,1,.31-.26,3.46,3.46,0,0,1,.91-.32,4.68,4.68,0,0,1,1-.12A2.21,2.21,0,0,1,180.94,25.38ZM179.84,29a1.31,1.31,0,0,0,.34-.94v-.23H180a6.68,6.68,0,0,0-1.13.07,1.09,1.09,0,0,0-.57.22.58.58,0,0,0-.18.45.72.72,0,0,0,.25.57.84.84,0,0,0,.6.22A1.18,1.18,0,0,0,179.84,29Z"/><path class="cls-1" d="M190.64,25.16a2.36,2.36,0,0,1,.83,1,3.29,3.29,0,0,1,.3,1.45,3.37,3.37,0,0,1-.3,1.46,2.34,2.34,0,0,1-.84,1,2.22,2.22,0,0,1-1.22.34,2,2,0,0,1-1-.25,1.7,1.7,0,0,1-.69-.69v.27a.63.63,0,0,1-.19.47.69.69,0,0,1-.49.17.69.69,0,0,1-.48-.17.63.63,0,0,1-.18-.47V23.18a.57.57,0,0,1,.19-.45.77.77,0,0,1,1,0,.52.52,0,0,1,.19.44v2.57a1.69,1.69,0,0,1,.68-.67,2.13,2.13,0,0,1,1-.23A2.31,2.31,0,0,1,190.64,25.16Zm-.59,3.69a2,2,0,0,0,.36-1.28,1.9,1.9,0,0,0-.36-1.25,1.21,1.21,0,0,0-1-.44,1.23,1.23,0,0,0-1,.44,2,2,0,0,0-.35,1.27,2,2,0,0,0,.35,1.27,1.21,1.21,0,0,0,1,.45A1.2,1.2,0,0,0,190.05,28.85Z"/><path class="cls-1" d="M197.86,25a.63.63,0,0,1,.18.47v4.22a.59.59,0,0,1-.19.46.71.71,0,0,1-.49.17.65.65,0,0,1-.47-.16.57.57,0,0,1-.17-.45v-.27a1.75,1.75,0,0,1-.68.67,1.9,1.9,0,0,1-1,.23q-2,0-2-2.19V25.49a.63.63,0,0,1,.18-.47.71.71,0,0,1,.49-.17.72.72,0,0,1,.5.17.63.63,0,0,1,.19.47v2.69a1.29,1.29,0,0,0,.22.83.89.89,0,0,0,.72.28,1.18,1.18,0,0,0,.91-.38,1.4,1.4,0,0,0,.34-1V25.49a.63.63,0,0,1,.19-.47.71.71,0,0,1,.49-.17A.72.72,0,0,1,197.86,25Z"/><path class="cls-1" d="M203,29.82a.45.45,0,0,1-.21.4,1,1,0,0,1-.61.11l-.29,0a1.75,1.75,0,0,1-1.83-2V26h-.54a.7.7,0,0,1-.46-.13.48.48,0,0,1-.15-.38.46.46,0,0,1,.15-.38.7.7,0,0,1,.46-.13h.54V24a.61.61,0,0,1,.18-.47.7.7,0,0,1,.5-.18.66.66,0,0,1,.49.18.58.58,0,0,1,.19.47v1h.92a.7.7,0,0,1,.46.13.46.46,0,0,1,.15.38.48.48,0,0,1-.15.38.7.7,0,0,1-.46.13h-.92v2.47a.75.75,0,0,0,.74.86l.29,0C202.86,29.35,203,29.52,203,29.82Z"/><path class="cls-1" d="M207.25,29.82a.44.44,0,0,1-.22.4,1,1,0,0,1-.6.11l-.29,0a1.75,1.75,0,0,1-1.83-2V26h-.54a.7.7,0,0,1-.46-.13.48.48,0,0,1-.15-.38.46.46,0,0,1,.15-.38.7.7,0,0,1,.46-.13h.54V24a.61.61,0,0,1,.18-.47.7.7,0,0,1,.5-.18.66.66,0,0,1,.49.18.58.58,0,0,1,.19.47v1h.92a.7.7,0,0,1,.46.13.46.46,0,0,1,.15.38.48.48,0,0,1-.15.38.7.7,0,0,1-.46.13h-.92v2.47a.75.75,0,0,0,.74.86l.29,0C207.07,29.35,207.25,29.52,207.25,29.82Z"/><path class="cls-1" d="M209.22,30a2.34,2.34,0,0,1-.95-1,3.13,3.13,0,0,1-.34-1.47,3.06,3.06,0,0,1,.34-1.46,2.34,2.34,0,0,1,.95-1,3.26,3.26,0,0,1,2.86,0,2.34,2.34,0,0,1,.95,1,3.06,3.06,0,0,1,.33,1.46,3.12,3.12,0,0,1-.33,1.47,2.34,2.34,0,0,1-.95,1,3.26,3.26,0,0,1-2.86,0Zm2.43-1.16a2,2,0,0,0,.35-1.28,2,2,0,0,0-.35-1.28,1.2,1.2,0,0,0-1-.44,1.21,1.21,0,0,0-1,.44,2,2,0,0,0-.36,1.28,2,2,0,0,0,.35,1.28,1.37,1.37,0,0,0,2,0Z"/><path class="cls-1" d="M219.27,25.37a2.47,2.47,0,0,1,.47,1.64v2.68a.65.65,0,0,1-.18.48.82.82,0,0,1-1,0,.65.65,0,0,1-.18-.48v-2.6a1.38,1.38,0,0,0-.24-.9.89.89,0,0,0-.73-.29,1.26,1.26,0,0,0-.94.37,1.37,1.37,0,0,0-.36,1v2.43a.65.65,0,0,1-.18.48.82.82,0,0,1-1,0,.65.65,0,0,1-.18-.48V25.48a.63.63,0,0,1,.19-.46.72.72,0,0,1,.5-.17.61.61,0,0,1,.46.17.57.57,0,0,1,.18.44v.29a1.84,1.84,0,0,1,.73-.68,2.17,2.17,0,0,1,1-.24A1.79,1.79,0,0,1,219.27,25.37Z"/><path class="cls-1" d="M221.46,30.11a.82.82,0,0,1,.57-1.4.8.8,0,0,1,.58.23.86.86,0,0,1,0,1.17.8.8,0,0,1-.58.23A.78.78,0,0,1,221.46,30.11Z"/><path class="cls-1" d="M11,34.44H9.91A9.92,9.92,0,0,1,0,24.54V9.91A9.93,9.93,0,0,1,9.91,0H11a9.93,9.93,0,0,1,9.91,9.91V24.54A9.92,9.92,0,0,1,11,34.44ZM9.91,2A7.88,7.88,0,0,0,2,9.91V24.54a7.88,7.88,0,0,0,7.88,7.87H11a7.89,7.89,0,0,0,7.88-7.87V9.91A7.89,7.89,0,0,0,11,2Zm.56,7.79a1.47,1.47,0,1,0,1.46,1.46A1.46,1.46,0,0,0,10.47,9.82Z"/></g></g></svg>