<svg xmlns="http://www.w3.org/2000/svg" viewBox="0 0 314.13 51.71"><defs><style>.cls-1{opacity:0;}.cls-2{fill:#fff;}</style></defs><title>Asset 6</title><g id="Layer_2" data-name="Layer 2"><g id="Layer_1-2" data-name="Layer 1"><rect class="cls-1" width="314.13" height="51.71"/><path class="cls-2" d="M84.34,21.86a.46.46,0,0,1,.16.38v2.34a1.51,1.51,0,0,1-.13.71.93.93,0,0,1-.54.33,4.41,4.41,0,0,1-1,.24,7.11,7.11,0,0,1-1.11.09,4.17,4.17,0,0,1-2-.47,3.17,3.17,0,0,1-1.34-1.35A4.64,4.64,0,0,1,77.86,22a4.57,4.57,0,0,1,.46-2.09,3.25,3.25,0,0,1,1.31-1.36,4,4,0,0,1,2-.47,3.76,3.76,0,0,1,2.51.82.8.8,0,0,1,.19.24.64.64,0,0,1,.06.28.63.63,0,0,1-.13.41A.39.39,0,0,1,84,20a.46.46,0,0,1-.21,0,.73.73,0,0,1-.23-.12,3.42,3.42,0,0,0-.89-.48,3.05,3.05,0,0,0-.94-.13,2.22,2.22,0,0,0-1.79.7,3.13,3.13,0,0,0-.6,2.08c0,1.89.82,2.83,2.48,2.83a5.45,5.45,0,0,0,1.48-.21V22.71H82a.58.58,0,0,1-.41-.13.53.53,0,0,1,0-.74.58.58,0,0,1,.41-.13h1.92A.54.54,0,0,1,84.34,21.86Z"/><path class="cls-2" d="M90.74,24.54a.61.61,0,0,1,.11.38.65.65,0,0,1-.4.56,4,4,0,0,1-.84.34,3.58,3.58,0,0,1-.89.12,2.79,2.79,0,0,1-2-.74,2.71,2.71,0,0,1-.75-2,3.07,3.07,0,0,1,.33-1.45,2.35,2.35,0,0,1,.92-1,2.6,2.6,0,0,1,1.34-.35,2.39,2.39,0,0,1,1.25.32,2.16,2.16,0,0,1,.83.89A2.9,2.9,0,0,1,90.89,23c0,.31-.13.47-.41.47H87.27a1.67,1.67,0,0,0,.43,1.1,1.38,1.38,0,0,0,1,.36,1.87,1.87,0,0,0,.61-.09c.18-.06.38-.14.61-.24a1.14,1.14,0,0,1,.48-.17A.36.36,0,0,1,90.74,24.54Zm-3.07-2.83a1.61,1.61,0,0,0-.4,1h2.46a1.51,1.51,0,0,0-.33-1,1.06,1.06,0,0,0-.85-.34A1.16,1.16,0,0,0,87.67,21.71Z"/><path class="cls-2" d="M95.51,25.4a.43.43,0,0,1-.22.39,1,1,0,0,1-.6.12l-.29,0a1.75,1.75,0,0,1-1.83-2V21.56H92a.76.76,0,0,1-.46-.13.5.5,0,0,1-.15-.39.49.49,0,0,1,.15-.38.76.76,0,0,1,.46-.13h.54v-1a.64.64,0,0,1,.18-.47.74.74,0,0,1,.5-.17.69.69,0,0,1,.49.17.61.61,0,0,1,.19.47v1h.92a.76.76,0,0,1,.46.13.49.49,0,0,1,.15.38.5.5,0,0,1-.15.39.76.76,0,0,1-.46.13h-.92V24a.74.74,0,0,0,.74.85l.29,0C95.33,24.93,95.51,25.09,95.51,25.4Z"/><path class="cls-2" d="M99.79,19.26a.72.72,0,0,1-.21-.53.67.67,0,0,1,.21-.52.81.81,0,0,1,.59-.2.8.8,0,0,1,.58.2.65.65,0,0,1,.22.52.72.72,0,0,1-.21.53,1,1,0,0,1-1.18,0Zm.11,6.49a.59.59,0,0,1-.19-.48v-4.2a.59.59,0,0,1,.19-.48.69.69,0,0,1,.48-.17.73.73,0,0,1,.49.17.6.6,0,0,1,.2.48v4.2a.6.6,0,0,1-.2.48.73.73,0,0,1-.49.17A.69.69,0,0,1,99.9,25.75Z"/><path class="cls-2" d="M107.26,21a2.47,2.47,0,0,1,.46,1.64v2.68a.61.61,0,0,1-.18.47.66.66,0,0,1-.49.18.68.68,0,0,1-.5-.18.62.62,0,0,1-.19-.47v-2.6a1.4,1.4,0,0,0-.23-.91.89.89,0,0,0-.73-.28,1.24,1.24,0,0,0-1,.37,1.41,1.41,0,0,0-.35,1v2.43a.61.61,0,0,1-.18.47.7.7,0,0,1-.5.18.67.67,0,0,1-.5-.18.61.61,0,0,1-.18-.47V21.06a.58.58,0,0,1,.19-.46.68.68,0,0,1,.5-.18.67.67,0,0,1,.46.17.59.59,0,0,1,.18.44v.3a1.8,1.8,0,0,1,.73-.69,2.17,2.17,0,0,1,1-.24A1.78,1.78,0,0,1,107.26,21Z"/><path class="cls-2" d="M115.9,25.4a.44.44,0,0,1-.21.39,1,1,0,0,1-.6.12l-.3,0a1.75,1.75,0,0,1-1.82-2V21.56h-.55a.75.75,0,0,1-.45-.13.5.5,0,0,1-.16-.39.5.5,0,0,1,.16-.38.75.75,0,0,1,.45-.13H113v-1a.64.64,0,0,1,.18-.47.74.74,0,0,1,.5-.17.69.69,0,0,1,.49.17.61.61,0,0,1,.19.47v1h.92a.71.71,0,0,1,.45.13.46.46,0,0,1,.16.38.47.47,0,0,1-.16.39.71.71,0,0,1-.45.13h-.92V24c0,.53.24.82.74.85l.29,0C115.72,24.93,115.9,25.09,115.9,25.4Z"/><path class="cls-2" d="M117.88,25.6a2.23,2.23,0,0,1-.95-1,3.33,3.33,0,0,1,0-2.93,2.37,2.37,0,0,1,.95-1,3.18,3.18,0,0,1,2.86,0,2.37,2.37,0,0,1,1,1,3.42,3.42,0,0,1,0,2.93,2.23,2.23,0,0,1-1,1,3.18,3.18,0,0,1-2.86,0Zm2.43-1.15a2,2,0,0,0,.35-1.28,2,2,0,0,0-.35-1.28,1.19,1.19,0,0,0-1-.44,1.2,1.2,0,0,0-1,.44,2,2,0,0,0-.35,1.28,2,2,0,0,0,.35,1.28,1.19,1.19,0,0,0,1,.43A1.21,1.21,0,0,0,120.31,24.45Z"/><path class="cls-2" d="M128.11,20.6a.62.62,0,0,1,.19.47v4.22a.56.56,0,0,1-.2.45.67.67,0,0,1-.49.18.7.7,0,0,1-.47-.16.61.61,0,0,1-.17-.45V25a1.75,1.75,0,0,1-.68.67,2,2,0,0,1-1,.23c-1.31,0-2-.73-2-2.2V21.07a.61.61,0,0,1,.18-.47.69.69,0,0,1,.49-.18.68.68,0,0,1,.5.18.58.58,0,0,1,.19.47v2.68a1.24,1.24,0,0,0,.23.84.88.88,0,0,0,.71.27,1.17,1.17,0,0,0,.91-.37,1.42,1.42,0,0,0,.35-1V21.07a.61.61,0,0,1,.18-.47.67.67,0,0,1,.49-.18A.68.68,0,0,1,128.11,20.6Z"/><path class="cls-2" d="M130.94,25.6a2.3,2.3,0,0,1-.93-1,3.19,3.19,0,0,1-.32-1.45,3,3,0,0,1,.34-1.46,2.41,2.41,0,0,1,1-1,2.91,2.91,0,0,1,1.43-.35,3.12,3.12,0,0,1,.85.12,2.77,2.77,0,0,1,.76.33.67.67,0,0,1,.35.58.58.58,0,0,1-.12.38.34.34,0,0,1-.3.15.61.61,0,0,1-.25-.06,2.1,2.1,0,0,1-.26-.13,4.6,4.6,0,0,0-.45-.22,1.59,1.59,0,0,0-.5-.08,1.28,1.28,0,0,0-1,.44,1.91,1.91,0,0,0-.37,1.27,1.87,1.87,0,0,0,.37,1.25,1.25,1.25,0,0,0,1,.44,1.21,1.21,0,0,0,.48-.08,3.81,3.81,0,0,0,.47-.22,2.74,2.74,0,0,1,.29-.15.59.59,0,0,1,.23-.05.35.35,0,0,1,.3.16.58.58,0,0,1,.12.38.66.66,0,0,1-.08.32.8.8,0,0,1-.27.24,3.08,3.08,0,0,1-.78.35,3.57,3.57,0,0,1-.92.12A2.79,2.79,0,0,1,130.94,25.6Z"/><path class="cls-2" d="M140.55,22.59v2.68a.61.61,0,0,1-.18.47.78.78,0,0,1-1,0,.61.61,0,0,1-.18-.47V22.59a1.22,1.22,0,0,0-.24-.84.91.91,0,0,0-.73-.27,1.22,1.22,0,0,0-.94.37,1.37,1.37,0,0,0-.36,1v2.43a.61.61,0,0,1-.18.47.7.7,0,0,1-.5.18.68.68,0,0,1-.5-.18.61.61,0,0,1-.18-.47V18.76a.63.63,0,0,1,.19-.46.74.74,0,0,1,.5-.17.72.72,0,0,1,.49.16.58.58,0,0,1,.18.45v2.53a1.68,1.68,0,0,1,.73-.64,2.25,2.25,0,0,1,1-.23C139.92,20.4,140.55,21.13,140.55,22.59Z"/><path class="cls-2" d="M152.83,20.53a.62.62,0,0,1,.32-.09.72.72,0,0,1,.46.16.56.56,0,0,1,.2.42.49.49,0,0,1-.06.25L152,25.48a.66.66,0,0,1-.27.32.77.77,0,0,1-.4.11.76.76,0,0,1-.38-.11.66.66,0,0,1-.27-.32l-1.29-3.11-1.25,3.11a.66.66,0,0,1-.27.32.77.77,0,0,1-.4.11.77.77,0,0,1-.39-.11.66.66,0,0,1-.27-.32L145,21.27a.79.79,0,0,1,0-.24.54.54,0,0,1,.22-.43.72.72,0,0,1,.48-.18.59.59,0,0,1,.56.4l1.28,3.31,1.32-3.28a.65.65,0,0,1,1.22,0l1.33,3.3,1.27-3.32A.69.69,0,0,1,152.83,20.53Z"/><path class="cls-2" d="M155.09,19.26a.73.73,0,0,1-.22-.53.68.68,0,0,1,.22-.52.81.81,0,0,1,.59-.2.8.8,0,0,1,.58.2.65.65,0,0,1,.22.52.72.72,0,0,1-.21.53.88.88,0,0,1-.59.2A.86.86,0,0,1,155.09,19.26Zm.1,6.49a.62.62,0,0,1-.19-.48v-4.2a.62.62,0,0,1,.19-.48.73.73,0,0,1,.49-.17.75.75,0,0,1,.49.17.59.59,0,0,1,.19.48v4.2a.59.59,0,0,1-.19.48.75.75,0,0,1-.49.17A.73.73,0,0,1,155.19,25.75Z"/><path class="cls-2" d="M161.35,25.4a.43.43,0,0,1-.22.39,1,1,0,0,1-.6.12l-.29,0a1.75,1.75,0,0,1-1.83-2V21.56h-.55a.75.75,0,0,1-.45-.13.5.5,0,0,1-.15-.39.49.49,0,0,1,.15-.38.75.75,0,0,1,.45-.13h.55v-1a.64.64,0,0,1,.18-.47.74.74,0,0,1,.5-.17.69.69,0,0,1,.49.17.61.61,0,0,1,.19.47v1h.92a.71.71,0,0,1,.45.13.46.46,0,0,1,.16.38.47.47,0,0,1-.16.39.71.71,0,0,1-.45.13h-.92V24a.74.74,0,0,0,.74.85l.29,0C161.16,24.93,161.35,25.09,161.35,25.4Z"/><path class="cls-2" d="M167.31,22.59v2.68a.61.61,0,0,1-.18.47.68.68,0,0,1-.5.18.7.7,0,0,1-.5-.18.61.61,0,0,1-.18-.47V22.59a1.22,1.22,0,0,0-.24-.84.91.91,0,0,0-.73-.27,1.22,1.22,0,0,0-.94.37,1.37,1.37,0,0,0-.36,1v2.43a.61.61,0,0,1-.18.47.78.78,0,0,1-1,0,.61.61,0,0,1-.18-.47V18.76a.6.6,0,0,1,.2-.46.81.81,0,0,1,1,0,.58.58,0,0,1,.18.45v2.53a1.8,1.8,0,0,1,.73-.64,2.26,2.26,0,0,1,1-.23C166.68,20.4,167.31,21.13,167.31,22.59Z"/><path class="cls-2" d="M173.14,25.6a2.3,2.3,0,0,1-.93-1,3.19,3.19,0,0,1-.32-1.45,3,3,0,0,1,.34-1.46,2.41,2.41,0,0,1,1-1,2.91,2.91,0,0,1,1.43-.35,3.12,3.12,0,0,1,.85.12,2.77,2.77,0,0,1,.76.33.67.67,0,0,1,.35.58.58.58,0,0,1-.12.38.34.34,0,0,1-.3.15.61.61,0,0,1-.25-.06l-.26-.13a3.81,3.81,0,0,0-.46-.22,1.5,1.5,0,0,0-.5-.08,1.26,1.26,0,0,0-1,.44,1.91,1.91,0,0,0-.37,1.27,1.87,1.87,0,0,0,.37,1.25,1.46,1.46,0,0,0,1.52.36,3.81,3.81,0,0,0,.47-.22,2.72,2.72,0,0,1,.28-.15.69.69,0,0,1,.24-.05.35.35,0,0,1,.3.16.58.58,0,0,1,.12.38.66.66,0,0,1-.08.32.8.8,0,0,1-.27.24,3.08,3.08,0,0,1-.78.35,3.57,3.57,0,0,1-.92.12A2.79,2.79,0,0,1,173.14,25.6Z"/><path class="cls-2" d="M178.76,25.6a2.23,2.23,0,0,1-.95-1,3.33,3.33,0,0,1,0-2.93,2.37,2.37,0,0,1,.95-1,3.18,3.18,0,0,1,2.86,0,2.35,2.35,0,0,1,.94,1,3.33,3.33,0,0,1,0,2.93,2.2,2.2,0,0,1-.94,1,3.18,3.18,0,0,1-2.86,0Zm2.43-1.15a2,2,0,0,0,.35-1.28,2,2,0,0,0-.35-1.28,1.19,1.19,0,0,0-1-.44,1.2,1.2,0,0,0-1,.44,2,2,0,0,0-.35,1.28,2,2,0,0,0,.35,1.28,1.19,1.19,0,0,0,1,.43A1.21,1.21,0,0,0,181.19,24.45Z"/><path class="cls-2" d="M191.94,20.92a2.45,2.45,0,0,1,.46,1.67v2.68a.59.59,0,0,1-.19.48.71.71,0,0,1-.49.17.69.69,0,0,1-.48-.17.6.6,0,0,1-.2-.48V22.59a1.34,1.34,0,0,0-.21-.85.78.78,0,0,0-.64-.26,1.07,1.07,0,0,0-.85.36,1.5,1.5,0,0,0-.32,1v2.43a.59.59,0,0,1-.19.48.72.72,0,0,1-.48.17.73.73,0,0,1-.49-.17.6.6,0,0,1-.2-.48V22.59a1.34,1.34,0,0,0-.21-.85.8.8,0,0,0-.65-.26,1.06,1.06,0,0,0-.84.36,1.5,1.5,0,0,0-.31,1v2.43a.6.6,0,0,1-.2.48.73.73,0,0,1-.49.17.72.72,0,0,1-.48-.17.59.59,0,0,1-.19-.48V21.06a.57.57,0,0,1,.19-.47.77.77,0,0,1,.49-.17.72.72,0,0,1,.47.16.58.58,0,0,1,.18.45v.27a1.66,1.66,0,0,1,.67-.67,2,2,0,0,1,1-.23,1.57,1.57,0,0,1,1.6,1,1.88,1.88,0,0,1,.7-.73,2.12,2.12,0,0,1,1.06-.27A1.71,1.71,0,0,1,191.94,20.92Z"/><path class="cls-2" d="M198.34,20.75a2.28,2.28,0,0,1,.84,1,3.37,3.37,0,0,1,.3,1.46,3.32,3.32,0,0,1-.3,1.45,2.27,2.27,0,0,1-.83,1,2.23,2.23,0,0,1-1.23.34,2.13,2.13,0,0,1-1-.24,1.73,1.73,0,0,1-.68-.66v2.22a.55.55,0,0,1-.19.44.77.77,0,0,1-1,0,.57.57,0,0,1-.19-.45V21.07a.61.61,0,0,1,.18-.47.65.65,0,0,1,.48-.18.66.66,0,0,1,.49.18.62.62,0,0,1,.19.47v.27a1.64,1.64,0,0,1,.69-.69,2,2,0,0,1,1-.25A2.23,2.23,0,0,1,198.34,20.75Zm-.58,3.69a1.89,1.89,0,0,0,.36-1.24,2,2,0,0,0-.36-1.28,1.2,1.2,0,0,0-1-.46,1.23,1.23,0,0,0-1,.44,2,2,0,0,0-.35,1.28,2,2,0,0,0,.35,1.26,1.37,1.37,0,0,0,2,0Z"/><path class="cls-2" d="M204.82,21a2.31,2.31,0,0,1,.54,1.67v2.66a.64.64,0,0,1-.17.46.69.69,0,0,1-.48.17.62.62,0,0,1-.46-.18.58.58,0,0,1-.18-.45V25a1.49,1.49,0,0,1-.58.66,1.78,1.78,0,0,1-.92.24,2.07,2.07,0,0,1-1-.22,1.68,1.68,0,0,1-.69-.6,1.53,1.53,0,0,1-.25-.84,1.35,1.35,0,0,1,.3-.93,1.85,1.85,0,0,1,1-.49,9,9,0,0,1,1.87-.15h.27v-.25a1.12,1.12,0,0,0-.23-.78,1,1,0,0,0-.74-.24,2.35,2.35,0,0,0-.64.09,7.39,7.39,0,0,0-.78.27,1.08,1.08,0,0,1-.41.14.42.42,0,0,1-.32-.14.57.57,0,0,1-.12-.37.6.6,0,0,1,.09-.33.82.82,0,0,1,.31-.25,3.33,3.33,0,0,1,.91-.33,4.61,4.61,0,0,1,1-.12A2.24,2.24,0,0,1,204.82,21Zm-1.1,3.65a1.33,1.33,0,0,0,.35-.94v-.23h-.2a8.21,8.21,0,0,0-1.13.06,1.17,1.17,0,0,0-.58.23.61.61,0,0,0-.17.45.75.75,0,0,0,.24.57.88.88,0,0,0,.61.22A1.15,1.15,0,0,0,203.72,24.6Z"/><path class="cls-2" d="M211.53,21a2.47,2.47,0,0,1,.47,1.64v2.68a.61.61,0,0,1-.18.47.68.68,0,0,1-.5.18.7.7,0,0,1-.5-.18.61.61,0,0,1-.18-.47v-2.6a1.4,1.4,0,0,0-.24-.91.88.88,0,0,0-.73-.28,1.22,1.22,0,0,0-.94.37,1.37,1.37,0,0,0-.36,1v2.43a.61.61,0,0,1-.18.47.78.78,0,0,1-1,0,.64.64,0,0,1-.17-.47V21.06a.6.6,0,0,1,.18-.46.68.68,0,0,1,.5-.18.65.65,0,0,1,.46.17.59.59,0,0,1,.18.44v.3a1.86,1.86,0,0,1,.73-.69,2.2,2.2,0,0,1,1-.24A1.76,1.76,0,0,1,211.53,21Z"/><path class="cls-2" d="M213.74,19.26a.69.69,0,0,1-.22-.53.65.65,0,0,1,.22-.52,1,1,0,0,1,1.17,0,.65.65,0,0,1,.22.52.69.69,0,0,1-.22.53.83.83,0,0,1-.58.2A.84.84,0,0,1,213.74,19.26Zm.1,6.49a.59.59,0,0,1-.19-.48v-4.2a.59.59,0,0,1,.19-.48.73.73,0,0,1,.49-.17.77.77,0,0,1,.49.17.59.59,0,0,1,.19.48v4.2a.59.59,0,0,1-.19.48.77.77,0,0,1-.49.17A.73.73,0,0,1,213.84,25.75Z"/><path class="cls-2" d="M221.2,24.54a.61.61,0,0,1,.11.38.65.65,0,0,1-.4.56,4,4,0,0,1-.84.34,3.58,3.58,0,0,1-.89.12,2.79,2.79,0,0,1-2-.74,2.71,2.71,0,0,1-.75-2,3.07,3.07,0,0,1,.33-1.45,2.35,2.35,0,0,1,.92-1A2.6,2.6,0,0,1,219,20.4a2.39,2.39,0,0,1,1.25.32,2.16,2.16,0,0,1,.83.89,2.9,2.9,0,0,1,.29,1.36c0,.31-.13.47-.41.47h-3.21a1.67,1.67,0,0,0,.43,1.1,1.38,1.38,0,0,0,1,.36,1.87,1.87,0,0,0,.61-.09c.18-.06.38-.14.61-.24a1.14,1.14,0,0,1,.48-.17A.36.36,0,0,1,221.2,24.54Zm-3.07-2.83a1.61,1.61,0,0,0-.4,1h2.46a1.51,1.51,0,0,0-.33-1,1.06,1.06,0,0,0-.85-.34A1.16,1.16,0,0,0,218.13,21.71Z"/><path class="cls-2" d="M222.75,25.47a.64.64,0,0,1-.35-.59.51.51,0,0,1,.12-.35.37.37,0,0,1,.29-.13,1.11,1.11,0,0,1,.51.17,5.52,5.52,0,0,0,.64.25,2.5,2.5,0,0,0,.73.09,1.33,1.33,0,0,0,.72-.16.46.46,0,0,0,.25-.42.39.39,0,0,0-.1-.29.84.84,0,0,0-.37-.2,6.11,6.11,0,0,0-.81-.22,3.1,3.1,0,0,1-1.39-.55,1.23,1.23,0,0,1-.42-1,1.5,1.5,0,0,1,.28-.87,2,2,0,0,1,.78-.6,2.88,2.88,0,0,1,1.13-.21,3.22,3.22,0,0,1,.88.12,2.37,2.37,0,0,1,.76.33.66.66,0,0,1,.35.58.56.56,0,0,1-.12.36.36.36,0,0,1-.29.15.69.69,0,0,1-.24-.05l-.29-.15a3.79,3.79,0,0,0-.54-.24,1.55,1.55,0,0,0-.57-.09,1.07,1.07,0,0,0-.63.17.51.51,0,0,0-.24.44.46.46,0,0,0,.24.42,3.47,3.47,0,0,0,.93.28,5.37,5.37,0,0,1,1.14.35,1.28,1.28,0,0,1,.59.49,1.51,1.51,0,0,1-.43,1.93,2.72,2.72,0,0,1-1.64.45A3.48,3.48,0,0,1,222.75,25.47Z"/><path class="cls-2" d="M235.46,21a2.31,2.31,0,0,1,.54,1.67v2.66a.6.6,0,0,1-.18.46.65.65,0,0,1-.48.17.63.63,0,0,1-.46-.18.58.58,0,0,1-.18-.45V25a1.43,1.43,0,0,1-.58.66,1.75,1.75,0,0,1-.92.24,2.1,2.1,0,0,1-1-.22,1.59,1.59,0,0,1-.68-.6,1.46,1.46,0,0,1-.25-.84,1.35,1.35,0,0,1,.3-.93,1.81,1.81,0,0,1,1-.49,9,9,0,0,1,1.86-.15h.27v-.25a1.07,1.07,0,0,0-.23-.78,1,1,0,0,0-.74-.24,2.41,2.41,0,0,0-.64.09,7.31,7.31,0,0,0-.77.27,1.2,1.2,0,0,1-.41.14.45.45,0,0,1-.33-.14.57.57,0,0,1-.12-.37.6.6,0,0,1,.09-.33.91.91,0,0,1,.31-.25,3.59,3.59,0,0,1,.91-.33,4.68,4.68,0,0,1,1-.12A2.25,2.25,0,0,1,235.46,21Zm-1.1,3.65a1.33,1.33,0,0,0,.34-.94v-.23h-.19a8.27,8.27,0,0,0-1.14.06,1.13,1.13,0,0,0-.57.23.58.58,0,0,0-.18.45.76.76,0,0,0,.25.57.84.84,0,0,0,.6.22A1.17,1.17,0,0,0,234.36,24.6Z"/><path class="cls-2" d="M242.17,21a2.47,2.47,0,0,1,.46,1.64v2.68a.61.61,0,0,1-.18.47.66.66,0,0,1-.49.18.68.68,0,0,1-.5-.18.58.58,0,0,1-.19-.47v-2.6a1.4,1.4,0,0,0-.23-.91.89.89,0,0,0-.73-.28,1.24,1.24,0,0,0-.95.37,1.41,1.41,0,0,0-.35,1v2.43a.61.61,0,0,1-.18.47.7.7,0,0,1-.5.18.67.67,0,0,1-.5-.18.61.61,0,0,1-.18-.47V21.06a.58.58,0,0,1,.19-.46.68.68,0,0,1,.5-.18.67.67,0,0,1,.46.17A.59.59,0,0,1,239,21v.3a1.8,1.8,0,0,1,.73-.69,2.17,2.17,0,0,1,1-.24A1.78,1.78,0,0,1,242.17,21Z"/><path class="cls-2" d="M249.22,18.3a.57.57,0,0,1,.2.46v6.51a.6.6,0,0,1-.18.46.69.69,0,0,1-.49.18.66.66,0,0,1-.49-.18.58.58,0,0,1-.19-.46V25a1.72,1.72,0,0,1-.69.7,2,2,0,0,1-1,.25,2.23,2.23,0,0,1-1.22-.35,2.31,2.31,0,0,1-.84-1,3.42,3.42,0,0,1-.3-1.47,3.25,3.25,0,0,1,.3-1.44,2.2,2.2,0,0,1,2.06-1.3,2.15,2.15,0,0,1,1,.24,1.71,1.71,0,0,1,.68.68V18.74a.57.57,0,0,1,.18-.44.69.69,0,0,1,.48-.17A.74.74,0,0,1,249.22,18.3Zm-1.5,6.14a2,2,0,0,0,.35-1.27,2,2,0,0,0-.35-1.27,1.23,1.23,0,0,0-1-.44,1.24,1.24,0,0,0-1,.43,1.92,1.92,0,0,0-.36,1.25,2,2,0,0,0,.36,1.29,1.36,1.36,0,0,0,2,0Z"/><path class="cls-2" d="M78.94,38.66a2.39,2.39,0,0,1-.93-1,3.16,3.16,0,0,1-.32-1.45A3,3,0,0,1,78,34.79a2.45,2.45,0,0,1,1-1,2.81,2.81,0,0,1,1.43-.35,3.17,3.17,0,0,1,.85.12,3.1,3.1,0,0,1,.76.32.7.7,0,0,1,.35.58.61.61,0,0,1-.12.39A.36.36,0,0,1,82,35a.59.59,0,0,1-.25,0l-.26-.13a2.13,2.13,0,0,0-.46-.22,1.28,1.28,0,0,0-.5-.09,1.29,1.29,0,0,0-1,.44,2,2,0,0,0-.36,1.27,2,2,0,0,0,.36,1.26,1.29,1.29,0,0,0,1,.44,1.48,1.48,0,0,0,.49-.08,4,4,0,0,0,.47-.23l.28-.14a.52.52,0,0,1,.24,0,.37.37,0,0,1,.3.15.6.6,0,0,1,.12.38.66.66,0,0,1-.08.32.94.94,0,0,1-.27.25,3.07,3.07,0,0,1-.78.34,3.57,3.57,0,0,1-.92.12A2.9,2.9,0,0,1,78.94,38.66Z"/><path class="cls-2" d="M83.75,38.8a.59.59,0,0,1-.19-.48V31.83a.59.59,0,0,1,.19-.48.73.73,0,0,1,.49-.17.75.75,0,0,1,.49.17.59.59,0,0,1,.19.48v6.49a.59.59,0,0,1-.19.48.7.7,0,0,1-.49.17A.68.68,0,0,1,83.75,38.8Z"/><path class="cls-2" d="M86.68,32.31a.69.69,0,0,1-.21-.53.67.67,0,0,1,.21-.52.86.86,0,0,1,.59-.2.85.85,0,0,1,.58.2.65.65,0,0,1,.23.52.7.7,0,0,1-.22.53,1,1,0,0,1-1.18,0Zm.11,6.49a.59.59,0,0,1-.19-.48v-4.2a.59.59,0,0,1,.19-.48.7.7,0,0,1,.48-.16.72.72,0,0,1,.49.16.6.6,0,0,1,.2.48v4.2a.6.6,0,0,1-.2.48.68.68,0,0,1-.49.17A.66.66,0,0,1,86.79,38.8Z"/><path class="cls-2" d="M94.14,37.59a.58.58,0,0,1,.12.38.66.66,0,0,1-.41.57,3.27,3.27,0,0,1-.83.33,3.66,3.66,0,0,1-.9.12,2.78,2.78,0,0,1-2-.73,2.73,2.73,0,0,1-.75-2,3.25,3.25,0,0,1,.32-1.45,2.39,2.39,0,0,1,.92-1,2.57,2.57,0,0,1,1.35-.35,2.42,2.42,0,0,1,1.25.31,2.19,2.19,0,0,1,.83.9A3,3,0,0,1,94.3,36c0,.31-.14.46-.41.46H90.68a1.72,1.72,0,0,0,.42,1.11,1.45,1.45,0,0,0,1,.35,1.93,1.93,0,0,0,.62-.09,3.4,3.4,0,0,0,.6-.24,1.31,1.31,0,0,1,.48-.17A.37.37,0,0,1,94.14,37.59Zm-3.07-2.83a1.66,1.66,0,0,0-.39,1h2.45a1.53,1.53,0,0,0-.32-1,1.08,1.08,0,0,0-.85-.35A1.18,1.18,0,0,0,91.07,34.76Z"/><path class="cls-2" d="M100.2,34a2.47,2.47,0,0,1,.46,1.64v2.68A.61.61,0,0,1,100,39a.68.68,0,0,1-.5-.17.66.66,0,0,1-.19-.48v-2.6a1.39,1.39,0,0,0-.23-.9.9.9,0,0,0-.73-.29,1.28,1.28,0,0,0-1,.37,1.41,1.41,0,0,0-.35,1v2.43a.65.65,0,0,1-.18.48.69.69,0,0,1-.5.17.66.66,0,0,1-.5-.17.65.65,0,0,1-.18-.48V34.11a.59.59,0,0,1,.19-.46.72.72,0,0,1,.5-.17.67.67,0,0,1,.46.17.57.57,0,0,1,.18.44v.29a1.77,1.77,0,0,1,.73-.68,2.17,2.17,0,0,1,1-.24A1.8,1.8,0,0,1,100.2,34Z"/><path class="cls-2" d="M105.62,38.45a.44.44,0,0,1-.21.4,1,1,0,0,1-.6.11l-.3,0a1.75,1.75,0,0,1-1.82-2V34.61h-.55a.69.69,0,0,1-.45-.13.53.53,0,0,1,0-.76.69.69,0,0,1,.45-.13h.55v-1a.63.63,0,0,1,.18-.47.68.68,0,0,1,.5-.17.67.67,0,0,1,.49.17.63.63,0,0,1,.19.47v1H105a.65.65,0,0,1,.45.13.53.53,0,0,1,0,.76.65.65,0,0,1-.45.13h-.92v2.47c0,.54.24.82.74.86l.29,0C105.44,38,105.62,38.15,105.62,38.45Z"/><path class="cls-2" d="M106.61,38.53a.66.66,0,0,1-.34-.59.5.5,0,0,1,.12-.35.37.37,0,0,1,.29-.14,1.3,1.3,0,0,1,.51.17,3.5,3.5,0,0,0,.64.25,2.46,2.46,0,0,0,.73.09,1.39,1.39,0,0,0,.71-.15.47.47,0,0,0,.26-.43.39.39,0,0,0-.1-.29,1,1,0,0,0-.37-.2q-.27-.09-.81-.21a3.09,3.09,0,0,1-1.39-.56,1.23,1.23,0,0,1-.42-1,1.41,1.41,0,0,1,.28-.86,1.82,1.82,0,0,1,.78-.6,2.88,2.88,0,0,1,1.13-.21,3.72,3.72,0,0,1,.88.11,3.07,3.07,0,0,1,.76.33.67.67,0,0,1,.35.58.52.52,0,0,1-.12.36.37.37,0,0,1-.3.15.48.48,0,0,1-.23-.05l-.29-.14a5.8,5.8,0,0,0-.54-.25,1.82,1.82,0,0,0-.57-.08,1,1,0,0,0-.63.16.52.52,0,0,0-.24.45.44.44,0,0,0,.24.41,3.14,3.14,0,0,0,.93.28,6,6,0,0,1,1.14.35,1.4,1.4,0,0,1,.59.49,1.44,1.44,0,0,1,.18.75,1.39,1.39,0,0,1-.61,1.19,2.72,2.72,0,0,1-1.64.44A3.55,3.55,0,0,1,106.61,38.53Z"/><path class="cls-2" d="M122.79,33.59a.51.51,0,0,1,.32-.1.72.72,0,0,1,.45.17.53.53,0,0,1,.2.42.51.51,0,0,1-.06.25l-1.79,4.21a.63.63,0,0,1-.27.31.75.75,0,0,1-.78,0,.63.63,0,0,1-.27-.31l-1.29-3.11-1.25,3.11a.63.63,0,0,1-.27.31.69.69,0,0,1-.4.11.72.72,0,0,1-.39-.11.63.63,0,0,1-.27-.31l-1.78-4.21a.69.69,0,0,1-.06-.24.53.53,0,0,1,.22-.43.72.72,0,0,1,.48-.18.56.56,0,0,1,.33.1.52.52,0,0,1,.23.29l1.29,3.32,1.31-3.29a.78.78,0,0,1,.25-.31.7.7,0,0,1,.72,0,.7.7,0,0,1,.25.31l1.33,3.3,1.27-3.32A.57.57,0,0,1,122.79,33.59Z"/><path class="cls-2" d="M125,32.31a.69.69,0,0,1-.21-.53.67.67,0,0,1,.21-.52.86.86,0,0,1,.59-.2.85.85,0,0,1,.58.2.65.65,0,0,1,.22.52.69.69,0,0,1-.21.53,1,1,0,0,1-1.18,0Zm.11,6.49a.59.59,0,0,1-.19-.48v-4.2a.59.59,0,0,1,.19-.48.68.68,0,0,1,.48-.16.72.72,0,0,1,.49.16.6.6,0,0,1,.2.48v4.2a.6.6,0,0,1-.2.48.68.68,0,0,1-.49.17A.64.64,0,0,1,125.15,38.8Z"/><path class="cls-2" d="M131.3,38.45a.44.44,0,0,1-.21.4,1,1,0,0,1-.61.11l-.29,0a1.75,1.75,0,0,1-1.83-2V34.61h-.54a.65.65,0,0,1-.45-.13.53.53,0,0,1,0-.76.65.65,0,0,1,.45-.13h.54v-1a.6.6,0,0,1,.19-.47.81.81,0,0,1,1,0,.63.63,0,0,1,.18.47v1h.93a.69.69,0,0,1,.45.13.56.56,0,0,1,0,.76.69.69,0,0,1-.45.13h-.93v2.47a.75.75,0,0,0,.74.86l.29,0C131.12,38,131.3,38.15,131.3,38.45Z"/><path class="cls-2" d="M137.26,35.64v2.68a.65.65,0,0,1-.18.48.66.66,0,0,1-.5.17.69.69,0,0,1-.5-.17.65.65,0,0,1-.18-.48V35.64a1.3,1.3,0,0,0-.23-.84.93.93,0,0,0-.74-.27,1.27,1.27,0,0,0-.94.37,1.36,1.36,0,0,0-.35,1v2.43a.62.62,0,0,1-.19.48.68.68,0,0,1-.5.17.61.61,0,0,1-.67-.65V31.81a.57.57,0,0,1,.19-.45.67.67,0,0,1,.49-.18.69.69,0,0,1,.49.17.53.53,0,0,1,.19.44v2.54a1.81,1.81,0,0,1,.72-.65,2.26,2.26,0,0,1,1-.22C136.64,33.46,137.26,34.19,137.26,35.64Z"/><path class="cls-2" d="M145.44,38.45a.44.44,0,0,1-.21.4,1,1,0,0,1-.61.11l-.29,0a1.75,1.75,0,0,1-1.83-2V34.61H142a.65.65,0,0,1-.45-.13.53.53,0,0,1,0-.76.65.65,0,0,1,.45-.13h.54v-1a.6.6,0,0,1,.19-.47.81.81,0,0,1,1,0,.63.63,0,0,1,.18.47v1h.93a.69.69,0,0,1,.45.13.53.53,0,0,1,0,.76.69.69,0,0,1-.45.13h-.93v2.47a.75.75,0,0,0,.74.86l.3,0C145.26,38,145.44,38.15,145.44,38.45Z"/><path class="cls-2" d="M151.4,35.64v2.68a.61.61,0,0,1-.67.65.68.68,0,0,1-.5-.17.62.62,0,0,1-.19-.48V35.64a1.3,1.3,0,0,0-.23-.84.93.93,0,0,0-.74-.27,1.27,1.27,0,0,0-.94.37,1.41,1.41,0,0,0-.35,1v2.43a.62.62,0,0,1-.19.48.68.68,0,0,1-.5.17.61.61,0,0,1-.67-.65V31.81a.57.57,0,0,1,.19-.45.77.77,0,0,1,1,0,.53.53,0,0,1,.19.44v2.54a1.81,1.81,0,0,1,.72-.65,2.29,2.29,0,0,1,1-.22C150.78,33.46,151.4,34.19,151.4,35.64Z"/><path class="cls-2" d="M157.56,37.59a.58.58,0,0,1,.12.38.67.67,0,0,1-.4.57,3.5,3.5,0,0,1-.84.33,3.58,3.58,0,0,1-.89.12,2.79,2.79,0,0,1-2-.73,2.73,2.73,0,0,1-.75-2,3.13,3.13,0,0,1,.33-1.45,2.33,2.33,0,0,1,.92-1,2.51,2.51,0,0,1,1.34-.35,2.39,2.39,0,0,1,1.25.31,2.13,2.13,0,0,1,.83.9,3,3,0,0,1,.29,1.36c0,.31-.14.46-.41.46H154.1a1.77,1.77,0,0,0,.42,1.11,1.46,1.46,0,0,0,1,.35,1.87,1.87,0,0,0,.61-.09,3.8,3.8,0,0,0,.61-.24,1.2,1.2,0,0,1,.48-.17A.36.36,0,0,1,157.56,37.59Zm-3.06-2.83a1.66,1.66,0,0,0-.4,1h2.46a1.53,1.53,0,0,0-.33-1,1.06,1.06,0,0,0-.85-.35A1.16,1.16,0,0,0,154.5,34.76Z"/><path class="cls-2" d="M163.29,38.66a2.27,2.27,0,0,1-.93-1,3,3,0,0,1-.33-1.45,3,3,0,0,1,.34-1.46,2.41,2.41,0,0,1,1-1,2.75,2.75,0,0,1,1.42-.35,3.24,3.24,0,0,1,.86.12,3.2,3.2,0,0,1,.75.32.7.7,0,0,1,.35.58.67.67,0,0,1-.11.39.39.39,0,0,1-.3.14.56.56,0,0,1-.25,0l-.27-.13a2.07,2.07,0,0,0-.45-.22,1.31,1.31,0,0,0-.5-.09,1.28,1.28,0,0,0-1,.44,2,2,0,0,0-.37,1.27,2,2,0,0,0,.37,1.26,1.28,1.28,0,0,0,1,.44,1.42,1.42,0,0,0,.48-.08,4,4,0,0,0,.47-.23l.29-.14a.52.52,0,0,1,.24,0,.36.36,0,0,1,.29.15.6.6,0,0,1,.12.38.66.66,0,0,1-.08.32.83.83,0,0,1-.27.25,2.79,2.79,0,0,1-.78.34,3.52,3.52,0,0,1-.92.12A2.86,2.86,0,0,1,163.29,38.66Z"/><path class="cls-2" d="M168.1,38.8a.59.59,0,0,1-.19-.48V31.83a.59.59,0,0,1,.19-.48.69.69,0,0,1,.48-.17.73.73,0,0,1,.49.17.6.6,0,0,1,.2.48v6.49a.6.6,0,0,1-.2.48.68.68,0,0,1-.49.17A.64.64,0,0,1,168.1,38.8Z"/><path class="cls-2" d="M171,32.31a.67.67,0,0,1-.22-.53.65.65,0,0,1,.22-.52.84.84,0,0,1,.59-.2.87.87,0,0,1,.58.2.65.65,0,0,1,.22.52.67.67,0,0,1-.22.53.83.83,0,0,1-.58.2A.84.84,0,0,1,171,32.31Zm.1,6.49a.59.59,0,0,1-.19-.48v-4.2a.59.59,0,0,1,.19-.48.72.72,0,0,1,.49-.16.71.71,0,0,1,.48.16.57.57,0,0,1,.2.48v4.2a.57.57,0,0,1-.2.48.67.67,0,0,1-.48.17A.68.68,0,0,1,171.13,38.8Z"/><path class="cls-2" d="M174.94,38.66a2.39,2.39,0,0,1-.93-1,3,3,0,0,1-.33-1.45,3.11,3.11,0,0,1,.34-1.46,2.41,2.41,0,0,1,1-1,2.77,2.77,0,0,1,1.42-.35,3.19,3.19,0,0,1,.86.12,3,3,0,0,1,.75.32.7.7,0,0,1,.35.58.67.67,0,0,1-.11.39.39.39,0,0,1-.3.14.56.56,0,0,1-.25,0l-.26-.13a2.37,2.37,0,0,0-.46-.22,1.31,1.31,0,0,0-.5-.09,1.28,1.28,0,0,0-1,.44,2,2,0,0,0-.36,1.27,2,2,0,0,0,.36,1.26,1.28,1.28,0,0,0,1,.44,1.42,1.42,0,0,0,.48-.08,5,5,0,0,0,.48-.23l.28-.14a.52.52,0,0,1,.24,0,.36.36,0,0,1,.29.15.6.6,0,0,1,.12.38.66.66,0,0,1-.08.32.74.74,0,0,1-.27.25,2.79,2.79,0,0,1-.78.34,3.5,3.5,0,0,1-.91.12A2.87,2.87,0,0,1,174.94,38.66Z"/><path class="cls-2" d="M184.51,38.32a.64.64,0,0,1-.18.45.55.55,0,0,1-.42.19.65.65,0,0,1-.45-.19l-2.54-2.31v1.86a.6.6,0,0,1-.2.48.72.72,0,0,1-.49.16.7.7,0,0,1-.48-.16.59.59,0,0,1-.19-.48V31.83a.59.59,0,0,1,.19-.48.7.7,0,0,1,.48-.17.73.73,0,0,1,.49.17.6.6,0,0,1,.2.48v4.09l2.32-2.23a.64.64,0,0,1,.45-.2.61.61,0,0,1,.62.62.63.63,0,0,1-.21.46l-1.7,1.59,1.89,1.69A.67.67,0,0,1,184.51,38.32Z"/><path class="cls-2" d="M189.88,38.66a2.42,2.42,0,0,1-1-1,3.12,3.12,0,0,1-.33-1.47,3.06,3.06,0,0,1,.33-1.46,2.42,2.42,0,0,1,1-1,3.26,3.26,0,0,1,2.86,0,2.31,2.31,0,0,1,.94,1,3.06,3.06,0,0,1,.34,1.46,3.13,3.13,0,0,1-.34,1.47,2.31,2.31,0,0,1-.94,1,3.26,3.26,0,0,1-2.86,0Zm2.43-1.16a2,2,0,0,0,.34-1.28,2.05,2.05,0,0,0-.34-1.28,1.37,1.37,0,0,0-2,0,2,2,0,0,0-.35,1.28,2,2,0,0,0,.34,1.28,1.23,1.23,0,0,0,1,.44A1.24,1.24,0,0,0,192.31,37.5Z"/><path class="cls-2" d="M197.33,32.55a1.24,1.24,0,0,0-.23.79v.25H198c.4,0,.61.17.61.51s-.21.51-.61.51h-.93v3.71a.59.59,0,0,1-.19.48.68.68,0,0,1-.48.16.72.72,0,0,1-.49-.16.6.6,0,0,1-.2-.48V34.61h-.54c-.41,0-.61-.17-.61-.51s.2-.51.61-.51h.54v-.08a2.26,2.26,0,0,1,.54-1.6,2.21,2.21,0,0,1,1.52-.66l.28,0a1,1,0,0,1,.62.09.43.43,0,0,1,.18.39c0,.31-.18.48-.54.52l-.28,0A1,1,0,0,0,197.33,32.55Z"/><path class="cls-2" d="M206.72,34a2.32,2.32,0,0,1,.53,1.67v2.65a.58.58,0,0,1-.17.46.64.64,0,0,1-.48.17.65.65,0,0,1-.46-.17.62.62,0,0,1-.18-.46v-.24a1.45,1.45,0,0,1-.58.67,1.75,1.75,0,0,1-.92.23,2.19,2.19,0,0,1-1-.21,1.84,1.84,0,0,1-.69-.6,1.59,1.59,0,0,1-.25-.85,1.32,1.32,0,0,1,.3-.92,1.78,1.78,0,0,1,1-.49,8.25,8.25,0,0,1,1.86-.16H206v-.25a1.11,1.11,0,0,0-.23-.77,1,1,0,0,0-.74-.25,2.41,2.41,0,0,0-.64.09c-.22.07-.48.15-.77.27a1.17,1.17,0,0,1-.42.14.43.43,0,0,1-.32-.14.55.55,0,0,1-.12-.37.57.57,0,0,1,.09-.32.83.83,0,0,1,.31-.26,3.86,3.86,0,0,1,.91-.32,4.68,4.68,0,0,1,1-.12A2.21,2.21,0,0,1,206.72,34Zm-1.1,3.64a1.31,1.31,0,0,0,.34-.94v-.23h-.2a6.68,6.68,0,0,0-1.13.07,1,1,0,0,0-.57.23.54.54,0,0,0-.18.44.72.72,0,0,0,.25.57.85.85,0,0,0,.6.23A1.19,1.19,0,0,0,205.62,37.65Z"/><path class="cls-2" d="M216.41,33.79a2.31,2.31,0,0,1,.84,1,3.32,3.32,0,0,1,.3,1.45,3.37,3.37,0,0,1-.3,1.46,2.34,2.34,0,0,1-.84,1,2.23,2.23,0,0,1-1.23.34,2,2,0,0,1-1-.25,1.64,1.64,0,0,1-.69-.69v.27a.63.63,0,0,1-.19.47.71.71,0,0,1-.49.17.69.69,0,0,1-.48-.17.63.63,0,0,1-.18-.47V31.81a.57.57,0,0,1,.19-.45.77.77,0,0,1,1,0,.53.53,0,0,1,.19.44v2.57a1.69,1.69,0,0,1,.68-.67,2.24,2.24,0,0,1,1-.23A2.26,2.26,0,0,1,216.41,33.79Zm-.58,3.69a2,2,0,0,0,.36-1.28,1.9,1.9,0,0,0-.36-1.25,1.21,1.21,0,0,0-1-.44,1.23,1.23,0,0,0-1,.44,2.48,2.48,0,0,0,0,2.54,1.21,1.21,0,0,0,1,.45A1.2,1.2,0,0,0,215.83,37.48Z"/><path class="cls-2" d="M223.64,33.65a.64.64,0,0,1,.18.47v4.22a.59.59,0,0,1-.19.46.67.67,0,0,1-.49.17.65.65,0,0,1-.47-.16.57.57,0,0,1-.17-.45v-.27a1.75,1.75,0,0,1-.68.67,1.9,1.9,0,0,1-1,.23q-2,0-2-2.19V34.12a.64.64,0,0,1,.18-.47.71.71,0,0,1,.49-.17.72.72,0,0,1,.5.17.65.65,0,0,1,.19.47v2.69a1.32,1.32,0,0,0,.22.84.91.91,0,0,0,.72.27,1.18,1.18,0,0,0,.91-.38,1.4,1.4,0,0,0,.34-1V34.12a.61.61,0,0,1,.19-.47.69.69,0,0,1,.49-.17A.72.72,0,0,1,223.64,33.65Z"/><path class="cls-2" d="M228.82,38.45a.43.43,0,0,1-.22.4,1,1,0,0,1-.6.11l-.29,0a1.75,1.75,0,0,1-1.83-2V34.61h-.54a.7.7,0,0,1-.46-.13.56.56,0,0,1,0-.76.7.7,0,0,1,.46-.13h.54v-1a.63.63,0,0,1,.18-.47.69.69,0,0,1,.5-.17.65.65,0,0,1,.49.17.6.6,0,0,1,.19.47v1h.92a.7.7,0,0,1,.46.13.56.56,0,0,1,0,.76.7.7,0,0,1-.46.13h-.92v2.47a.75.75,0,0,0,.74.86l.29,0C228.64,38,228.82,38.15,228.82,38.45Z"/><path class="cls-2" d="M233,38.45a.43.43,0,0,1-.22.4,1,1,0,0,1-.6.11l-.29,0a1.75,1.75,0,0,1-1.83-2V34.61h-.54a.7.7,0,0,1-.46-.13.56.56,0,0,1,0-.76.7.7,0,0,1,.46-.13h.54v-1a.63.63,0,0,1,.18-.47.69.69,0,0,1,.5-.17.65.65,0,0,1,.49.17.6.6,0,0,1,.19.47v1h.92a.7.7,0,0,1,.46.13.56.56,0,0,1,0,.76.7.7,0,0,1-.46.13h-.92v2.47a.75.75,0,0,0,.74.86l.29,0C232.85,38,233,38.15,233,38.45Z"/><path class="cls-2" d="M235,38.66a2.34,2.34,0,0,1-.95-1,3,3,0,0,1-.34-1.47,3,3,0,0,1,.34-1.46,2.34,2.34,0,0,1,.95-1,3.26,3.26,0,0,1,2.86,0,2.34,2.34,0,0,1,.95,1,3.06,3.06,0,0,1,.33,1.46,3.12,3.12,0,0,1-.33,1.47,2.34,2.34,0,0,1-.95,1,3.26,3.26,0,0,1-2.86,0Zm2.43-1.16a2,2,0,0,0,.35-1.28,2.05,2.05,0,0,0-.35-1.28,1.2,1.2,0,0,0-1-.44,1.21,1.21,0,0,0-1,.44,2,2,0,0,0-.36,1.28,2,2,0,0,0,.35,1.28,1.37,1.37,0,0,0,2,0Z"/><path class="cls-2" d="M245.05,34a2.47,2.47,0,0,1,.47,1.64v2.68a.65.65,0,0,1-.18.48.82.82,0,0,1-1,0,.65.65,0,0,1-.18-.48v-2.6a1.38,1.38,0,0,0-.24-.9.89.89,0,0,0-.73-.29,1.26,1.26,0,0,0-.94.37,1.37,1.37,0,0,0-.36,1v2.43a.65.65,0,0,1-.18.48.69.69,0,0,1-.5.17.68.68,0,0,1-.5-.17.65.65,0,0,1-.18-.48V34.11a.59.59,0,0,1,.19-.46.72.72,0,0,1,.5-.17.65.65,0,0,1,.46.17.57.57,0,0,1,.18.44v.29a1.77,1.77,0,0,1,.73-.68,2.17,2.17,0,0,1,1-.24A1.79,1.79,0,0,1,245.05,34Z"/><path class="cls-2" d="M247.23,38.74a.81.81,0,0,1-.22-.58.78.78,0,0,1,.22-.58.78.78,0,0,1,.58-.24.77.77,0,0,1,.58.24.78.78,0,0,1,.23.58.82.82,0,0,1-.23.58.76.76,0,0,1-.58.23A.78.78,0,0,1,247.23,38.74Z"/><path class="cls-2" d="M36.81,43.08H35.69a9.92,9.92,0,0,1-9.91-9.91V18.54a9.92,9.92,0,0,1,9.91-9.91h1.12a9.93,9.93,0,0,1,9.91,9.91V33.17A9.93,9.93,0,0,1,36.81,43.08ZM35.69,10.66a7.89,7.89,0,0,0-7.88,7.88V33.17A7.88,7.88,0,0,0,35.69,41h1.12a7.89,7.89,0,0,0,7.88-7.87V18.54a7.9,7.9,0,0,0-7.88-7.88Zm.56,7.79a1.47,1.47,0,1,0,1.46,1.47A1.46,1.46,0,0,0,36.25,18.45Z"/></g></g></svg>