<svg xmlns="http://www.w3.org/2000/svg" xmlns:xlink="http://www.w3.org/1999/xlink" viewBox="0 0 770.58 658.2"><defs><style>.cls-1{fill:url(#linear-gradient);}.cls-2{fill:#b67add;}.cls-3{fill:#7fd686;}.cls-4{fill:#e4ede4;}.cls-5{fill:#372244;}.cls-6{fill:#6cb770;}.cls-7{fill:#3e4f3e;opacity:0.23;}.cls-8{fill:#3f2e43;}.cls-9{fill:#874fb2;}.cls-10{fill:#cfabef;}.cls-11{fill:#f7ebbc;}.cls-12{fill:#111968;}.cls-13{fill:#fffdff;}.cls-14{fill:#785793;}.cls-15{fill:#e5cdf7;}.cls-16,.cls-18{fill:#fffefa;}.cls-17{fill:#ffce9a;}.cls-18{opacity:0.27;}.cls-19{fill:#383634;}.cls-20{fill:#edbf94;}.cls-21{fill:#d6aa85;}.cls-22{fill:#5b2f22;}.cls-23{fill:#4c2c12;}.cls-24{fill:#f2f2f2;}.cls-25{fill:#f5fff2;}.cls-26{fill:#1b1f3d;}</style><linearGradient id="linear-gradient" x1="2311.34" y1="871.86" x2="1765.97" y2="1450.03" gradientTransform="translate(2392.37 1578.6) rotate(-178.57)" gradientUnits="userSpaceOnUse"><stop offset="0" stop-color="#485fab"/><stop offset="1" stop-color="#8b0094"/></linearGradient></defs><title>handshake</title><g id="Layer_2" data-name="Layer 2"><g id="Layer_1-2" data-name="Layer 1"><path class="cls-1" d="M654.82,623.73c-35.5,39.38-185.48-11.68-225.88-17.41s-173.35,68.42-234.07,32.32-57.36-97.74-101.14-106C-20.16,511.19-19.74,354.25,39,310c42.79-32.21,15.82-137.89,56.68-183.23S212.87,89.22,279.16,82.59C301,80.4,364,7.16,449,25.79s134.67,104.37,172,133.6,143.84,51.32,149,134.51C776,389.53,728.27,383,690.3,465,668.77,511.51,717.63,554.05,654.82,623.73Z"/><path class="cls-2" d="M614,496.52s21.74,14.92,51.44,5.76c0,0,16.46,135,23.31,142.63,0,0-38.55,19.61-64.26,0C624.48,644.91,611.42,544.26,614,496.52Z"/><path class="cls-3" d="M649.43,580.92s3.65,1.76,30.5,3.25c0,0,8,21.75,4.11,38.45-1,4.16,4.21,29.82-2.84,29.29s-7.63-12.56-7.4-23.19-7.35-6.41-6.52-1,6,31.6-1.94,30.47-6.77-11.69-6.79-28.74-5.35-5.3-4.41-1,3.82,30.3-5.26,28.48c-13.18-2.65.75-33.24-7-33.87-3.44-.28-12.76,16.38-19.45,11.36C611.07,625.91,641.88,623.07,649.43,580.92Z"/><path class="cls-3" d="M628.09,143.88c-.6,3.78-2.26,15.88-.11,22a1,1,0,0,1-.55,1.2l-11.18,5.64a1.48,1.48,0,0,1-1.77-.32c-7.27-8.86-14.64-16.16-19.2-16.84-5.55-.83-19.24,2.05-32.75,6.19a1.36,1.36,0,0,1-1.7-.7,62,62,0,0,0-5.36-10,.91.91,0,0,1,.21-1.18c5.14-4.82,4.3-11.95,3.76-14.61a1.3,1.3,0,0,0-1.57-.87c-36.84,10.06-26.53,24.55-26.53,24.55,4.64,1.49,9.51-1.27,10.6-2.29a1.46,1.46,0,0,1,2,.18l6.43,7.6a1,1,0,0,1-.55,1.61c-9,3.38-16.54,7-19.48,9.95-14.44,14.49-17.53,75.87-17.53,78.43S520,286,554,295.32c32.36,8.92,64.71-17.61,67.82-20.25a.83.83,0,0,0,.32-.49c1.11-4.55,15.36-63,14.37-68.77-.43-2.45-5.57-11.1-12.25-20.55a1,1,0,0,1,.38-1.45l6.87-3.93a1.47,1.47,0,0,1,1.6.07c2.82,2.11,13.19,9.29,21,7.1,8.91-2.48-8.36-40.38-24.49-44.09A1.3,1.3,0,0,0,628.09,143.88Z"/><path class="cls-4" d="M560.72,187c16.55.77,17,53.71-7.74,53.71S533.39,185.74,560.72,187Z"/><ellipse class="cls-5" cx="552.74" cy="214.86" rx="13.54" ry="9.31" transform="translate(219.76 705.59) rotate(-77.08)"/><path class="cls-6" d="M572.46,207.49c-.68-11.05-4.86-20.61-11.9-20.94-11.93-.55-19.71,9.38-22.77,20.94Z"/><ellipse class="cls-6" cx="642.99" cy="163.82" rx="5.08" ry="17.08" transform="translate(4.28 343.61) rotate(-30.01)"/><ellipse class="cls-6" cx="543.96" cy="146.04" rx="12.94" ry="3.47" transform="translate(8.06 319.35) rotate(-32.95)"/><path class="cls-6" d="M564.72,270s19.77-2.32,21.56-12.29C586.28,257.67,594.51,280.47,564.72,270Z"/><ellipse class="cls-4" cx="557.38" cy="212.35" rx="2.32" ry="1.92"/><path class="cls-7" d="M560.56,186.55s-16.67,1.36-20.62,20.11h10.31S541.31,200,560.56,186.55Z"/><path class="cls-8" d="M585.55,292.7s12,.35,30.06-13.57c0,0,17.37,33.65,27.59,40.14,0,0,52.3,46.05,60.89,153.5l-18.9,125.74s-32.64,3-40.37-9.44c0,0,32.64-106.27,30.92-119.26l-6.87-17.12-3.44,49.59s-21.47,12.4-50.68-1.77c0,0-14.6-36-6.87-73.2,0,0-16.32,67.3-121.11,23.61,0,0,18-13.58,7.73-28.34,0,0,73.87,41.33,91.91-1.77,0,0-9.45-73.2-3.44-86.19s15.46-10.54,15.46-10.54S616.47,312.78,585.55,292.7Z"/><path class="cls-2" d="M635.23,310.17c-1.82-2.21-20.39,3.75-20.39,3.75a1.42,1.42,0,0,0-.84.2,3.34,3.34,0,0,0-2.43-1.72l-4-.67a3.61,3.61,0,0,0-3.56,1.35s-.07-.06-.12-.08S589.68,301.47,587,302.91s-8,18.89-4.92,19.82,18.41-3,20-3.42l-.16.67c-.36,1.44.92,2.89,2.85,3.22l4,.67c1.93.33,3.8-.58,4.16-2l.42-1.7s13.77,9.69,17,9.83S637,312.38,635.23,310.17Z"/><path class="cls-9" d="M633.18,310.36s-18.11,4.13-18.23,5.33S635.39,313.18,633.18,310.36Z"/><path class="cls-9" d="M588.08,303.39s13,8,12.65,8.89S585.16,304.85,588.08,303.39Z"/><path class="cls-10" d="M609.46,313.13s-6.31-1.89-5.76,7.58C603.7,320.71,606.93,312.56,609.46,313.13Z"/><path class="cls-3" d="M498.4,424.63c1.88.8.73,27.65-8.62,29.8s-14.62.79-14.71,1.82-14.72,33.07-25.94,28.58,17.49-27.1,17.49-31.55-5.8-5.5-18.13,6.77-21.1,12.74-23,6.44S429,455.38,445,448.83s29-19,4.92-15.08c0,0-28.66,15.63-35,7.67s13.92-20.07,62.9-23.82c0,0,5.78.37-1.53-10.4s-9.28-16.4-3.75-17.76c4.79-1.18,9,4,11.83,14.92a37.6,37.6,0,0,0,7.77,15.17A18.89,18.89,0,0,0,498.4,424.63Z"/><path class="cls-6" d="M417.9,439c-.57,4-5.93-9.37,23.72-13.64,27.33-3.93,39.7-6.82,42.54-3s-7.74,20-3.35,23a12.29,12.29,0,0,0,8.25,2.34s-10.57,9-16.5,1.28.51-21.31-2.32-23S420,424.27,417.9,439Z"/><path class="cls-6" d="M474.1,391.66s-5.93.85,5.16,16C479.26,407.64,478.49,397.41,474.1,391.66Z"/><path class="cls-6" d="M429.24,459.65s-5.93,9.37,5.41,7.46C434.65,467.11,427.69,465.83,429.24,459.65Z"/><path class="cls-6" d="M453.11,475.21s-6.3,6.18,0,8.52C453.11,483.73,442.43,484.58,453.11,475.21Z"/><path class="cls-11" d="M364.35,11.76s.39,38.53-29.15,39.15c0,0,33.08,14,33.87,42.15,0,0,9.35-41.59,29.68-42.15C398.75,50.91,365.13,39.72,364.35,11.76Z"/><path class="cls-11" d="M410.77,102.3s.31,30.4-23,30.9c0,0,26.11,11,26.73,33.27,0,0,7.38-32.83,23.43-33.27C437.93,133.2,411.39,124.37,410.77,102.3Z"/><path class="cls-11" d="M420.57,234.94s.08,8.72-6.61,8.87c0,0,7.5,3.16,7.68,9.55,0,0,2.11-9.43,6.72-9.55C428.36,243.81,420.74,241.27,420.57,234.94Z"/><path class="cls-11" d="M391.64,0s.09,8.73-6.6,8.87c0,0,7.49,3.16,7.67,9.55,0,0,2.12-9.42,6.72-9.55C399.43,8.87,391.82,6.33,391.64,0Z"/><path class="cls-11" d="M469.66,151.7s.09,8.73-6.6,8.87c0,0,7.49,3.17,7.67,9.55,0,0,2.12-9.42,6.73-9.55C477.46,160.57,469.84,158,469.66,151.7Z"/><path class="cls-11" d="M439,197.11s.05,4.54-3.43,4.61c0,0,3.89,1.65,4,5,0,0,1.1-4.9,3.49-5C443.05,201.72,439.09,200.4,439,197.11Z"/><path class="cls-11" d="M449.71,48.88s.19,18.69-14.14,19c0,0,16.05,6.78,16.43,20.46,0,0,4.54-20.19,14.41-20.46C466.41,67.88,450.09,62.45,449.71,48.88Z"/><path class="cls-11" d="M383,183.71s.12,12.48-9.45,12.69c0,0,10.72,4.52,11,13.66,0,0,3-13.48,9.62-13.66C394.12,196.4,383.22,192.77,383,183.71Z"/><path class="cls-12" d="M146.86,516.28V633.12a15.43,15.43,0,0,0,15.43,15.44h59.17a15.42,15.42,0,0,0,15-11.66c8.72-34.69,32.42-134.86,15.5-135.7-15-.75-64.38-.53-89.74-.35A15.43,15.43,0,0,0,146.86,516.28Z"/><path class="cls-13" d="M388.42,360.93c1.89-.18,27.51-2.68,35.75,4.21l20.09-2s12.45,18.86,2.83,21.51c0,0,9.06,5.52-3.91,8.49,0,0,7.59,7.8-5.22,9.48,0,0,10.25,8-22.73,7.76s-26.66-4.67-26.66-4.67Z"/><path class="cls-13" d="M286.33,330.82,329.13,366l11.21-1.09,2.19-4.91,44.73.34s8.94-2.15,9.68,17,4.22,32.05,4.22,32.05-80.3,13.79-91.51,11.46-39.28-16.24-39.28-16.24Z"/><path class="cls-2" d="M273.23,318.44s10.92,35.15,8.59,44.34C281.82,362.78,318,308.52,273.23,318.44Z"/><path class="cls-14" d="M273.73,373.15s9,30.72,41.78,31.8,74.87-5.14,74.87-5.14,5.62,13.11,1.71,13.07-69,12.28-87.19,8.49S256.77,406,256.77,406Z"/><path class="cls-12" d="M331,363.77c-.4-1.31,9.47-.92,9.47-.92s5.44,26.8-13.17,45.69c0,0,21.54,3,10.93,10s-40.11,8.6-52.13-2.61c0,0,3-6.7,29.7-7.59C315.76,408.38,339.41,391.56,331,363.77Z"/><path class="cls-15" d="M394.48,377.36l17.15-1.67s1.12-3,11.47-1.12,12.35-1.2,12.35-1.2.6,10.67-19.55,9.11c0,0,10.47,13.55-.85,19.14,0,0,11.38,4.34,18.8,4.09,0,0-29.71,4.66-39.09-2Z"/><path class="cls-15" d="M443.14,385s-12.15-1-18.39.11Z"/><path class="cls-15" d="M441,392.89s-12.24-.77-18.43.49Z"/><path class="cls-16" d="M117.67,151c-7.72,9.61,21.16,134.27,21.16,134.27l97.91,27.77L235,139.62s23.25,11.22,35.45,4.65-30.36-38.21-57.94-40.05S128.9,137,117.67,151Z"/><path class="cls-15" d="M162.59,159c11.33-6.28,38.32-7.61,38.32-7.61s15.48,74.21,6.81,78.93-28,9.85-40.24,3.92S162.59,159,162.59,159Z"/><path class="cls-16" d="M163.52,162.91c10.12-5.62,34.25-6.81,34.25-6.81s13.84,66.34,6.09,70.56-25,8.8-36,3.5S163.52,162.91,163.52,162.91Z"/><path class="cls-15" d="M140.84,267.79S104,160.1,118,148.7c41.7-34,68.42-39.5,68.42-39.5S133.74,148.37,134,154,140.84,267.79,140.84,267.79Z"/><path class="cls-12" d="M251,129.69c-4.4-.68-36.45,7-36.78,19.92s5.57,145.63,5.57,145.63l16.41,5.95s-15-142.51-8.46-146.92,41.8-5,41.8-5S263.48,131.62,251,129.69Z"/><path class="cls-17" d="M287.16,190.29c3.32,9.74,25.35,72.87-25.8,86.12l7.92,33.5L235,300s-16.54-138.59-8.46-146.92,36.95-8.31,41.8-5S287.16,190.29,287.16,190.29Z"/><path class="cls-18" d="M269.41,142.2s33,28.68,38.45,38.63-6.5,101.88-30,131l-50-17.08s-12.46-145.51-5-148.34S261,138.4,269.41,142.2Z"/><ellipse class="cls-16" cx="245.74" cy="197.72" rx="11.83" ry="18.79" transform="translate(-39.92 64) rotate(-13.74)"/><ellipse class="cls-19" cx="246.88" cy="199.83" rx="5.52" ry="7.44" transform="translate(-43.93 72.11) rotate(-15.28)"/><path class="cls-20" d="M257.1,194.4c-2.47-9.4-9.09-16.06-15.25-15.05s-9.6,9.3-8.06,18.85Z"/><path class="cls-21" d="M242.05,180.26s7.59-.62,13.92,13.49l-6.8,1.11S254.06,188.53,242.05,180.26Z"/><ellipse class="cls-16" cx="280.84" cy="185.87" rx="10.79" ry="17.13" transform="translate(-36.1 72) rotate(-13.74)"/><ellipse class="cls-19" cx="281.87" cy="187.8" rx="5.03" ry="6.78" transform="translate(-39.52 80.9) rotate(-15.28)"/><path class="cls-20" d="M291.19,182.85c-2.26-8.57-8.29-14.64-13.9-13.72s-8.76,8.48-7.35,17.19Z"/><path class="cls-21" d="M277.46,170s6.93-.56,12.7,12.3l-6.2,1S288.41,177.5,277.46,170Z"/><ellipse class="cls-16" cx="249.73" cy="197.76" rx="1.38" ry="1.53" transform="translate(38.18 435.92) rotate(-86.76)"/><ellipse class="cls-16" cx="284.35" cy="185.99" rx="1.38" ry="1.53" transform="translate(82.6 459.38) rotate(-86.76)"/><path class="cls-22" d="M244.41,226.48s13.67,11.42,25.8,6.51C270.21,233,248,253.65,244.41,226.48Z"/><path class="cls-21" d="M272.79,205s2.91,7.21-5.18,8.19C267.61,213.23,278.28,213.16,272.79,205Z"/><path class="cls-23" d="M228.69,182.17s2.71-8.34,5.45-10.62,15.71-4.28,15.71-4.28l.48,3.62s-13.75,1.89-14.68,2.9S228.69,182.17,228.69,182.17Z"/><path class="cls-23" d="M284.63,167.38s-4.45-5.27-6.72-6.06-9.8,2-9.8,2l1.07,2.84s7.89-3.15,8.75-2.71S284.63,167.38,284.63,167.38Z"/><path class="cls-16" d="M177.77,289.23s-74.21,69-30.91,261c0,0,58.33,16,105.06.15,0,0,55.51-162.8,22.62-227.24C274.54,323.11,247.81,305.41,177.77,289.23Z"/><path class="cls-12" d="M179.28,281.37,166.05,291l111.21,38.12.61-17.22,0-.1C277.76,311.36,270.82,306.19,179.28,281.37Z"/><path class="cls-15" d="M173.81,292.62S88.56,300.9,146.86,550.2l20.63,4.17S208.79,299.93,173.81,292.62Z"/><path class="cls-2" d="M173.81,292.62c1.12-1.51-57.86-22-64-6.67s-29.06,238.1-29.06,238.1,20.51,20,47.55,10.73l14.94-5.14S153.06,320.67,173.81,292.62Z"/><path class="cls-14" d="M173.81,292.62s-38.28-2.29-45.5,242.16l14.94-5.14S164.46,298.84,173.81,292.62Z"/><path class="cls-2" d="M228.48,325.31c16,4.54,21.44,66.38,5.77,83.39s-68.91-4.76-67.85-15.27-1-42.24,8.28-52.67S206.44,319.05,228.48,325.31Z"/><path class="cls-24" d="M168.63,394.27s-9.53,45.57-11.12,108.22,6,96.75,6,96.75S153,625,160.77,631.89s23,11.19,31.87,7.62,4-18.09,12.52-19.58S208.77,597,208.77,597l4-74.32-7.48-5,10.23-5,16.65-109.59S198.35,408,168.63,394.27Z"/><path class="cls-14" d="M167.28,397.28s19.25,2.84,26.15,8L168,503.42l-10.51-.93S157.37,428.41,167.28,397.28Z"/><path class="cls-12" d="M200.07,339c40.26,1.73,31.92,67.3,31.92,67.3s-30.45,5.9-64.71-9C167.28,397.28,155.5,337,200.07,339Z"/><path class="cls-25" d="M193.42,345.49c-4.88.85,21.05,5.05,22.33,45.72,0,0,6.63,12.74,11.56,1.61S218.92,341,193.42,345.49Z"/><path class="cls-12" d="M186.32,482.37c-2.49-1.51-32.86-8.82-33.68.12s5.3,11.39,5.3,11.39-8.57,16.93-6.34,21.5,14.54,12.68,25.27,12,19.13-16.53,20.69-22.7S195.48,487.9,186.32,482.37Z"/><path class="cls-26" d="M161.05,482.73c.16,3.76,12.68,6.56,9.82,13.62s-11.05,6.46-11.37,12.28,7.51,13.3,7.51,13.3-7.54-9,.19-13.3,13.59-12,12.47-15.85S161.05,482.73,161.05,482.73Z"/><path class="cls-25" d="M187,490.06c-4.36-6.06,4.23,17.64-7.22,21.91C179.78,512,202.33,511.37,187,490.06Z"/><polygon class="cls-15" points="161.91 589.99 194.17 605.62 208.73 602.06 208.77 596.99 195.03 600.16 160.99 583.42 161.91 589.99"/><path class="cls-14" d="M230,417.72l-14.42,94.95-10.23,5,7.48,5-1.89,34.92L216,522.18l-3.74-4.66s6.21-1.36,6.1-2.18S230,417.72,230,417.72Z"/><path class="cls-12" d="M283.23,352.92,253,403.77l-1.07,146.58S302.92,416,283.23,352.92Z"/><path class="cls-12" d="M387.26,360.29l3.12,39.52S397,365.44,387.26,360.29Z"/><path class="cls-14" d="M415.92,377.41s-12.31,1.22-10.73,6.3,5.93,10.37-.41,13.08c0,0,12.28-3.77,3.82-12.59C408.6,384.2,408.74,380.25,415.92,377.41Z"/><path class="cls-15" d="M134.61,290.57c5.43,1.09-20.51-16.92-24.82,23.61s-23.46,207.6-23.46,207.6L119,298.65S122.14,288.07,134.61,290.57Z"/></g></g></svg>