<svg xmlns="http://www.w3.org/2000/svg" xmlns:xlink="http://www.w3.org/1999/xlink" viewBox="0 0 363.95 612"><defs><style>.cls-1{opacity:0.91;fill:url(#linear-gradient);}.cls-11,.cls-2,.cls-3{fill:#fff;}.cls-2{opacity:0.03;}.cls-3{font-size:10.88px;font-family:Nunito-Bold, Nunito;font-weight:700;letter-spacing:0.02em;}.cls-4{letter-spacing:0.02em;}.cls-5{letter-spacing:0.02em;}.cls-6{letter-spacing:0.02em;}.cls-7{letter-spacing:0.02em;}.cls-8{letter-spacing:0.02em;}.cls-9{letter-spacing:0.02em;}.cls-10{letter-spacing:0.02em;}.cls-12{letter-spacing:0.02em;}.cls-13{letter-spacing:0.02em;}.cls-14{letter-spacing:0.07em;}</style><linearGradient id="linear-gradient" x1="44.31" y1="603.84" x2="377.01" y2="-115.96" gradientUnits="userSpaceOnUse"><stop offset="0" stop-color="#485fab"/><stop offset="1" stop-color="#8b0094"/></linearGradient></defs><title>leftcolumnlogin</title><g id="Layer_2" data-name="Layer 2"><g id="Layer_1-2" data-name="Layer 1"><rect class="cls-1" width="363.95" height="612"/><path class="cls-2" d="M293.93,192.1c-6.28-19-35.59-28.64-82.53-27.14a3.31,3.31,0,0,0-2.7,5l7.13,11.42h0a3.31,3.31,0,0,0,2.45,1.52c26.47,2.76,42.59,10.65,46.6,22.8,3.6,10.87-2.75,25-18.35,40.81-3.13,3.18-6.62,6.39-10.42,9.64a238.39,238.39,0,0,0-63.93-117.6C127.35,93.25,67.89,68.28,4.76,68.28H4.14V75.2A230.25,230.25,0,0,1,168,143.08a230.15,230.15,0,0,1,63.19,117.16c-14.57,11.69-33.16,23.62-54.85,35.11l2.23,4.48A480.09,480.09,0,0,0,233,270.31,234.51,234.51,0,0,1,235.9,307a231.75,231.75,0,0,1-15.82,84.49V313.5c-.46-5.85-4-16.9-14-16.71s-13,11.11-13,16.9v46c-.1,1-1.24,9.86-10.74,9.14-9.27-.72-12.26-5.41-12.91-6.68l-.15-62.69c.18-1.53,1.07-11.47-4.69-18.07-3.3-3.78-8.05-5.7-14.13-5.7-5.79,0-10.31,1.89-13.42,5.61-5.9,7.07-4.41,18.3-4.12,20.14l-.32,92.91v.34l.08.32c.25.92.6,3.65-.65,5.14s-3.55,1.47-5.36,1.32c-8.87-.74-9.22-5.07-9.23-5.19V355.94l0-.3c-.75-6.4-5.65-18.52-18.8-18.52-5,0-11.56,2.3-15,13.27a46,46,0,0,0-1.91,12.27V431c0,.07.29,7.27-3.62,11.15-1.94,1.93-4.6,2.76-8.13,2.54-12.59-.79-13.89-10.25-14-11.09l-1.56-66.29q11.4-5.43,21.61-11.13a3.29,3.29,0,0,0-3-5.85h0q-9.1,4.18-18.82,8.16l-3-129.3,0-.35c-.06-.37-6.54-36.7-44.78-35.69-.73,0-1.43.07-2.15.12v5c.76-.05,1.51-.1,2.29-.12,32.9-.86,39.17,28.61,39.68,31.36l3.07,131c-14.24,5.66-29.34,10.95-45,15.78v5.23Q14.25,378.36,24,375q-9.68,3.87-19.89,7.5v5.31C20.2,382.17,35.4,376,49.4,369.59l1.5,64.17v.13c.39,5.07,4.79,14.88,18.66,15.75,5,.31,9-1,12-4,5.33-5.3,5.13-13.91,5.09-14.9v-68.1c0-.21.16-20.54,11.89-20.54,11.49,0,13.61,12.48,13.82,14v40.16c0,.37.16,9,13.81,10.17,4.37.37,7.61-.68,9.63-3.11,2.77-3.33,2-7.89,1.72-9.28l.32-92.82,0-.45c0-.1-1.81-10.55,3-16.3,2.14-2.56,5.27-3.8,9.57-3.8,4.56,0,8,1.34,10.35,4,4.63,5.28,3.51,14.23,3.5,14.31l0,.18.16,64,.14.4c.13.38,3.43,9.23,17.37,10.3,11.84.91,15.73-8.64,16.13-13.82V313.73c0-.48.29-11.82,8.1-11.94h.12c7.45,0,8.76,11,8.87,12V402l0,.41s0,.21.1.52A231.73,231.73,0,0,1,168,470.84,230.25,230.25,0,0,1,4.14,538.72v5a235.22,235.22,0,0,0,167.42-69.35,236.84,236.84,0,0,0,45.53-63.69l.23.9,3-6.51A235,235,0,0,0,241.52,307a241.44,241.44,0,0,0-3.34-40C279.55,239.53,300.6,212.27,293.93,192.1Zm-55.39,68.6q6.36-5.35,11.55-10.63c17-17.26,23.76-33.12,19.54-45.89-4.63-14-21.92-23-50-26.11l-5.11-8.19c42.2-.93,69.34,7.69,74.66,23.79C294.92,211,275.57,235.57,238.54,260.7Z"/><path class="cls-2" d="M48.54,143.74A42.87,42.87,0,0,0,5.72,100.91c-.53,0-1,0-1.58,0v5c.53,0,1.05,0,1.58,0a37.83,37.83,0,0,1,0,75.65c-.53,0-1,0-1.58,0v5c.53,0,1.05,0,1.58,0A42.87,42.87,0,0,0,48.54,143.74Z"/><text class="cls-3" transform="translate(104.35 203.64)">Find inte<tspan class="cls-4" x="46.14" y="0">r</tspan><tspan class="cls-5" x="50.52" y="0">ships mo</tspan><tspan class="cls-6" x="97.62" y="0">s</tspan><tspan x="103.11" y="0">t </tspan><tspan class="cls-7" x="110.62" y="0">r</tspan><tspan x="114.95" y="0">el</tspan><tspan class="cls-8" x="124.03" y="0">e</tspan><tspan class="cls-9" x="129.99" y="0">v</tspan><tspan x="135.91" y="0">ant to </tspan><tspan class="cls-10" x="170.23" y="0">y</tspan><tspan x="176.14" y="0">ou.</tspan></text><path class="cls-11" d="M111.42,384a.5.5,0,0,1,.16.38v2.34a1.48,1.48,0,0,1-.13.71,1,1,0,0,1-.54.34,6,6,0,0,1-1,.24,8.53,8.53,0,0,1-1.11.08,4.21,4.21,0,0,1-2.06-.47,3.15,3.15,0,0,1-1.33-1.35,4.51,4.51,0,0,1-.46-2.12,4.44,4.44,0,0,1,.46-2.09,3.3,3.3,0,0,1,1.31-1.36,4,4,0,0,1,2-.47,3.78,3.78,0,0,1,2.52.82,1,1,0,0,1,.19.24.65.65,0,0,1,.06.29.66.66,0,0,1-.13.4.39.39,0,0,1-.32.16.54.54,0,0,1-.22,0,.81.81,0,0,1-.22-.12,3.26,3.26,0,0,0-.9-.47,2.67,2.67,0,0,0-.93-.14,2.22,2.22,0,0,0-1.79.7,3.13,3.13,0,0,0-.61,2.08c0,1.89.83,2.83,2.49,2.83a5.72,5.72,0,0,0,1.47-.2v-1.93H109.1a.58.58,0,0,1-.41-.13.53.53,0,0,1,0-.74.58.58,0,0,1,.41-.13H111A.54.54,0,0,1,111.42,384Z"/><path class="cls-11" d="M117.81,386.66a.56.56,0,0,1,.12.38.67.67,0,0,1-.4.56,4,4,0,0,1-.84.34,3.58,3.58,0,0,1-.89.12,2.79,2.79,0,0,1-2-.74,2.71,2.71,0,0,1-.75-2,3.07,3.07,0,0,1,.33-1.45,2.35,2.35,0,0,1,.92-1,2.6,2.6,0,0,1,1.34-.35,2.39,2.39,0,0,1,1.25.32,2.16,2.16,0,0,1,.83.89,3.06,3.06,0,0,1,.29,1.36c0,.31-.14.47-.41.47h-3.21a1.66,1.66,0,0,0,.42,1.1,1.42,1.42,0,0,0,1,.36,1.87,1.87,0,0,0,.61-.09c.18-.06.38-.14.61-.24a1.06,1.06,0,0,1,.48-.17A.33.33,0,0,1,117.81,386.66Zm-3.06-2.83a1.64,1.64,0,0,0-.4,1h2.46a1.62,1.62,0,0,0-.33-1,1.09,1.09,0,0,0-.85-.34A1.16,1.16,0,0,0,114.75,383.83Z"/><path class="cls-11" d="M122.58,387.52a.44.44,0,0,1-.21.39,1,1,0,0,1-.6.12l-.29,0a1.75,1.75,0,0,1-1.83-2v-2.37h-.55a.75.75,0,0,1-.45-.13.5.5,0,0,1-.16-.38.47.47,0,0,1,.16-.38.69.69,0,0,1,.45-.14h.55v-1a.6.6,0,0,1,.18-.46.7.7,0,0,1,.5-.18.66.66,0,0,1,.49.18.58.58,0,0,1,.19.46v1h.92a.65.65,0,0,1,.45.14.44.44,0,0,1,.16.38.46.46,0,0,1-.16.38.71.71,0,0,1-.45.13H121v2.47a.74.74,0,0,0,.74.86l.29,0C122.4,387.05,122.58,387.21,122.58,387.52Z"/><path class="cls-11" d="M126.87,381.38a.72.72,0,0,1-.22-.53.68.68,0,0,1,.22-.52.86.86,0,0,1,.59-.2.85.85,0,0,1,.58.2.65.65,0,0,1,.22.52.71.71,0,0,1-.21.53,1,1,0,0,1-1.18,0Zm.1,6.49a.62.62,0,0,1-.19-.48v-4.2a.62.62,0,0,1,.19-.48.72.72,0,0,1,.49-.16.74.74,0,0,1,.49.16.59.59,0,0,1,.19.48v4.2a.59.59,0,0,1-.19.48.75.75,0,0,1-.49.17A.73.73,0,0,1,127,387.87Z"/><path class="cls-11" d="M134.33,383.07a2.41,2.41,0,0,1,.47,1.64v2.68a.65.65,0,0,1-.18.48.69.69,0,0,1-.49.17.72.72,0,0,1-.5-.17.62.62,0,0,1-.19-.48v-2.6a1.46,1.46,0,0,0-.23-.91.93.93,0,0,0-.74-.28,1.24,1.24,0,0,0-.94.37,1.41,1.41,0,0,0-.35,1v2.43a.62.62,0,0,1-.19.48.72.72,0,0,1-.5.17.69.69,0,0,1-.49-.17.65.65,0,0,1-.18-.48v-4.21a.62.62,0,0,1,.18-.46.69.69,0,0,1,.5-.17.67.67,0,0,1,.47.16.6.6,0,0,1,.18.45v.29a1.8,1.8,0,0,1,.73-.69,2.15,2.15,0,0,1,1-.24A1.77,1.77,0,0,1,134.33,383.07Z"/><path class="cls-11" d="M143,387.52a.44.44,0,0,1-.21.39,1,1,0,0,1-.6.12l-.3,0a1.75,1.75,0,0,1-1.82-2v-2.37h-.55a.75.75,0,0,1-.45-.13.5.5,0,0,1-.16-.38.47.47,0,0,1,.16-.38.69.69,0,0,1,.45-.14h.55v-1a.6.6,0,0,1,.18-.46.68.68,0,0,1,.5-.18.67.67,0,0,1,.49.18.61.61,0,0,1,.19.46v1h.92a.65.65,0,0,1,.45.14.44.44,0,0,1,.16.38.46.46,0,0,1-.16.38.71.71,0,0,1-.45.13h-.92v2.47a.74.74,0,0,0,.74.86l.29,0C142.8,387.05,143,387.21,143,387.52Z"/><path class="cls-11" d="M145,387.72a2.26,2.26,0,0,1-1-1,3.35,3.35,0,0,1,0-2.94,2.37,2.37,0,0,1,1-1,3.18,3.18,0,0,1,2.86,0,2.44,2.44,0,0,1,1,1,3.44,3.44,0,0,1,0,2.94,2.31,2.31,0,0,1-1,1,3.18,3.18,0,0,1-2.86,0Zm2.43-1.15a2.52,2.52,0,0,0,0-2.56,1.21,1.21,0,0,0-1-.44,1.23,1.23,0,0,0-1,.44,2,2,0,0,0-.35,1.28,2,2,0,0,0,.35,1.28,1.2,1.2,0,0,0,1,.44A1.22,1.22,0,0,0,147.39,386.57Z"/><path class="cls-11" d="M155.19,382.72a.63.63,0,0,1,.18.47v4.22a.59.59,0,0,1-.19.46.71.71,0,0,1-.49.17.65.65,0,0,1-.47-.16.57.57,0,0,1-.17-.45v-.27a1.75,1.75,0,0,1-.68.67,2,2,0,0,1-1,.23c-1.3,0-1.95-.73-1.95-2.2v-2.67a.63.63,0,0,1,.18-.47.81.81,0,0,1,1,0,.63.63,0,0,1,.19.47v2.69a1.29,1.29,0,0,0,.22.83.91.91,0,0,0,.72.27,1.17,1.17,0,0,0,.91-.37,1.41,1.41,0,0,0,.34-1v-2.42a.63.63,0,0,1,.19-.47.67.67,0,0,1,.49-.17A.68.68,0,0,1,155.19,382.72Z"/><path class="cls-11" d="M158,387.72a2.3,2.3,0,0,1-.93-1,3.19,3.19,0,0,1-.32-1.45,3,3,0,0,1,.34-1.46,2.41,2.41,0,0,1,1-1,2.91,2.91,0,0,1,1.43-.35,3.17,3.17,0,0,1,.85.12,2.77,2.77,0,0,1,.76.33.67.67,0,0,1,.35.58.58.58,0,0,1-.12.38.34.34,0,0,1-.3.15.79.79,0,0,1-.25-.05l-.26-.13a2.82,2.82,0,0,0-.46-.23,1.5,1.5,0,0,0-.5-.08,1.29,1.29,0,0,0-1,.44,2,2,0,0,0-.36,1.27,1.92,1.92,0,0,0,.36,1.25,1.41,1.41,0,0,0,1.53.36,2.75,2.75,0,0,0,.47-.22l.28-.15a.67.67,0,0,1,.24,0,.37.37,0,0,1,.3.15.6.6,0,0,1,.12.38.66.66,0,0,1-.08.32.8.8,0,0,1-.27.24,3.08,3.08,0,0,1-.78.35,3.57,3.57,0,0,1-.92.12A2.79,2.79,0,0,1,158,387.72Z"/><path class="cls-11" d="M167.62,384.71v2.68a.65.65,0,0,1-.18.48.69.69,0,0,1-.49.17.72.72,0,0,1-.5-.17.66.66,0,0,1-.19-.48v-2.68a1.24,1.24,0,0,0-.23-.84.92.92,0,0,0-.73-.27,1.24,1.24,0,0,0-1,.37,1.41,1.41,0,0,0-.35,1v2.43a.65.65,0,0,1-.18.48.74.74,0,0,1-.5.17.72.72,0,0,1-.5-.17.65.65,0,0,1-.18-.48v-6.51a.59.59,0,0,1,.19-.46.74.74,0,0,1,.5-.17.72.72,0,0,1,.49.16.58.58,0,0,1,.18.45v2.53a1.78,1.78,0,0,1,.72-.64,2.33,2.33,0,0,1,1-.23C167,382.52,167.62,383.25,167.62,384.71Z"/><path class="cls-11" d="M179.91,382.65a.62.62,0,0,1,.32-.09.63.63,0,0,1,.45.17.51.51,0,0,1,.21.41.49.49,0,0,1-.06.25L179,387.6a.66.66,0,0,1-.27.32.77.77,0,0,1-.4.11.73.73,0,0,1-.38-.11.66.66,0,0,1-.27-.32l-1.3-3.11-1.25,3.11a.59.59,0,0,1-.26.32.77.77,0,0,1-.4.11.77.77,0,0,1-.39-.11.61.61,0,0,1-.27-.32l-1.79-4.21a.8.8,0,0,1-.05-.23.53.53,0,0,1,.22-.43.71.71,0,0,1,.47-.18.56.56,0,0,1,.57.39l1.28,3.32,1.32-3.29a.65.65,0,0,1,1.22,0l1.33,3.3,1.27-3.32A.62.62,0,0,1,179.91,382.65Z"/><path class="cls-11" d="M182.17,381.38a.68.68,0,0,1-.22-.53.65.65,0,0,1,.22-.52.84.84,0,0,1,.59-.2.85.85,0,0,1,.58.2.65.65,0,0,1,.22.52.68.68,0,0,1-.22.53.83.83,0,0,1-.58.2A.84.84,0,0,1,182.17,381.38Zm.1,6.49a.62.62,0,0,1-.19-.48v-4.2a.62.62,0,0,1,.19-.48.72.72,0,0,1,.49-.16.74.74,0,0,1,.49.16.59.59,0,0,1,.19.48v4.2a.59.59,0,0,1-.19.48.75.75,0,0,1-.49.17A.73.73,0,0,1,182.27,387.87Z"/><path class="cls-11" d="M188.42,387.52a.44.44,0,0,1-.21.39,1,1,0,0,1-.6.12l-.3,0a1.75,1.75,0,0,1-1.82-2v-2.37h-.55a.75.75,0,0,1-.45-.13.5.5,0,0,1-.16-.38.47.47,0,0,1,.16-.38.69.69,0,0,1,.45-.14h.55v-1a.6.6,0,0,1,.18-.46.7.7,0,0,1,.5-.18.66.66,0,0,1,.49.18.58.58,0,0,1,.19.46v1h.92a.65.65,0,0,1,.45.14.44.44,0,0,1,.16.38.46.46,0,0,1-.16.38.71.71,0,0,1-.45.13h-.92v2.47a.74.74,0,0,0,.74.86l.29,0C188.24,387.05,188.42,387.21,188.42,387.52Z"/><path class="cls-11" d="M194.39,384.71v2.68a.65.65,0,0,1-.18.48.82.82,0,0,1-1,0,.65.65,0,0,1-.18-.48v-2.68a1.24,1.24,0,0,0-.24-.84.91.91,0,0,0-.73-.27,1.22,1.22,0,0,0-.94.37,1.37,1.37,0,0,0-.36,1v2.43a.65.65,0,0,1-.18.48.82.82,0,0,1-1,0,.65.65,0,0,1-.18-.48v-6.51a.63.63,0,0,1,.19-.46.76.76,0,0,1,.5-.17.71.71,0,0,1,.49.16.58.58,0,0,1,.18.45v2.53a1.81,1.81,0,0,1,.73-.64,2.25,2.25,0,0,1,1-.23C193.76,382.52,194.39,383.25,194.39,384.71Z"/><path class="cls-11" d="M200.22,387.72a2.3,2.3,0,0,1-.93-1,3.07,3.07,0,0,1-.32-1.45,3,3,0,0,1,.34-1.46,2.41,2.41,0,0,1,1-1,2.88,2.88,0,0,1,1.43-.35,3.17,3.17,0,0,1,.85.12,2.77,2.77,0,0,1,.76.33.66.66,0,0,1,.34.58.57.57,0,0,1-.11.38.37.37,0,0,1-.3.15A.79.79,0,0,1,203,384l-.26-.13a2.82,2.82,0,0,0-.46-.23,1.5,1.5,0,0,0-.5-.08,1.29,1.29,0,0,0-1,.44,2,2,0,0,0-.36,1.27,1.92,1.92,0,0,0,.36,1.25,1.41,1.41,0,0,0,1.53.36,2.75,2.75,0,0,0,.47-.22l.28-.15a.67.67,0,0,1,.24,0,.37.37,0,0,1,.3.15.6.6,0,0,1,.12.38.57.57,0,0,1-.09.32.68.68,0,0,1-.26.24,3,3,0,0,1-.79.35,3.44,3.44,0,0,1-.91.12A2.77,2.77,0,0,1,200.22,387.72Z"/><path class="cls-11" d="M205.84,387.72a2.34,2.34,0,0,1-1-1,3.44,3.44,0,0,1,0-2.94,2.46,2.46,0,0,1,1-1,3.18,3.18,0,0,1,2.86,0,2.35,2.35,0,0,1,.94,1,3.35,3.35,0,0,1,0,2.94,2.23,2.23,0,0,1-.94,1,3.18,3.18,0,0,1-2.86,0Zm2.43-1.15a2.52,2.52,0,0,0,0-2.56,1.21,1.21,0,0,0-1-.44,1.23,1.23,0,0,0-1,.44,2,2,0,0,0-.35,1.28,2,2,0,0,0,.34,1.28,1.23,1.23,0,0,0,1,.44A1.22,1.22,0,0,0,208.27,386.57Z"/><path class="cls-11" d="M219,383a2.47,2.47,0,0,1,.46,1.67v2.68a.59.59,0,0,1-.19.48.71.71,0,0,1-.49.17.73.73,0,0,1-.49-.17.62.62,0,0,1-.19-.48v-2.68a1.34,1.34,0,0,0-.21-.85.8.8,0,0,0-.65-.26,1,1,0,0,0-.84.37,1.45,1.45,0,0,0-.32,1v2.43a.59.59,0,0,1-.19.48.72.72,0,0,1-.48.17.73.73,0,0,1-.49-.17.6.6,0,0,1-.2-.48v-2.68a1.34,1.34,0,0,0-.21-.85.8.8,0,0,0-.65-.26,1,1,0,0,0-.84.37,1.45,1.45,0,0,0-.31,1v2.43a.6.6,0,0,1-.2.48.73.73,0,0,1-.49.17.7.7,0,0,1-.48-.17.59.59,0,0,1-.19-.48v-4.21a.57.57,0,0,1,.19-.47.74.74,0,0,1,.49-.16.72.72,0,0,1,.47.15.58.58,0,0,1,.17.46v.26a1.73,1.73,0,0,1,.67-.67,2,2,0,0,1,1-.23,1.58,1.58,0,0,1,1.6,1,1.79,1.79,0,0,1,.7-.72,2,2,0,0,1,1.06-.28A1.71,1.71,0,0,1,219,383Z"/><path class="cls-11" d="M225.42,382.87a2.28,2.28,0,0,1,.84,1,3.37,3.37,0,0,1,.3,1.46,3.32,3.32,0,0,1-.3,1.45,2.23,2.23,0,0,1-.84,1,2.19,2.19,0,0,1-1.23.34,2.12,2.12,0,0,1-1-.24,1.73,1.73,0,0,1-.68-.66v2.22a.52.52,0,0,1-.19.44.69.69,0,0,1-.49.17.67.67,0,0,1-.49-.18.57.57,0,0,1-.19-.45v-6.17a.63.63,0,0,1,.18-.47.64.64,0,0,1,.48-.17.67.67,0,0,1,.49.17.63.63,0,0,1,.19.47v.27a1.59,1.59,0,0,1,.69-.69,2.14,2.14,0,0,1,1-.25A2.24,2.24,0,0,1,225.42,382.87Zm-.58,3.7a1.94,1.94,0,0,0,.36-1.25,2,2,0,0,0-.36-1.28,1.34,1.34,0,0,0-2,0,2.46,2.46,0,0,0,0,2.53,1.2,1.2,0,0,0,1,.45A1.24,1.24,0,0,0,224.84,386.57Z"/><path class="cls-11" d="M231.9,383.07a2.31,2.31,0,0,1,.54,1.67v2.66a.64.64,0,0,1-.17.46.69.69,0,0,1-.48.17.6.6,0,0,1-.46-.18.58.58,0,0,1-.18-.45v-.24a1.45,1.45,0,0,1-.59.66,1.73,1.73,0,0,1-.92.24,2.05,2.05,0,0,1-1-.22,1.73,1.73,0,0,1-.69-.59,1.51,1.51,0,0,1-.25-.85,1.37,1.37,0,0,1,.3-.93,1.81,1.81,0,0,1,1-.49,9,9,0,0,1,1.86-.15h.28v-.25a1.15,1.15,0,0,0-.23-.78,1,1,0,0,0-.74-.24,2.35,2.35,0,0,0-.64.09,7.39,7.39,0,0,0-.78.27,1.14,1.14,0,0,1-.41.14.42.42,0,0,1-.32-.14.57.57,0,0,1-.13-.37.49.49,0,0,1,.1-.32.83.83,0,0,1,.31-.26,3.38,3.38,0,0,1,.9-.33,4.75,4.75,0,0,1,1-.12A2.25,2.25,0,0,1,231.9,383.07Zm-1.1,3.65a1.32,1.32,0,0,0,.35-.94v-.23H231a8.11,8.11,0,0,0-1.13.06,1.17,1.17,0,0,0-.58.23.61.61,0,0,0-.17.45.75.75,0,0,0,.24.57.88.88,0,0,0,.61.22A1.16,1.16,0,0,0,230.8,386.72Z"/><path class="cls-11" d="M238.61,383.07a2.47,2.47,0,0,1,.47,1.64v2.68a.65.65,0,0,1-.18.48.82.82,0,0,1-1,0,.65.65,0,0,1-.18-.48v-2.6a1.4,1.4,0,0,0-.24-.91.91.91,0,0,0-.73-.28,1.22,1.22,0,0,0-.94.37,1.37,1.37,0,0,0-.36,1v2.43a.65.65,0,0,1-.18.48.82.82,0,0,1-1,0,.65.65,0,0,1-.18-.48v-4.21a.63.63,0,0,1,.19-.46.68.68,0,0,1,.5-.17.65.65,0,0,1,.46.16.6.6,0,0,1,.18.45v.29a1.86,1.86,0,0,1,.73-.69,2.17,2.17,0,0,1,1-.24A1.8,1.8,0,0,1,238.61,383.07Z"/><path class="cls-11" d="M240.82,381.38a.68.68,0,0,1-.22-.53.65.65,0,0,1,.22-.52.83.83,0,0,1,.58-.2.88.88,0,0,1,.59.2.65.65,0,0,1,.22.52.68.68,0,0,1-.22.53.84.84,0,0,1-.59.2A.83.83,0,0,1,240.82,381.38Zm.1,6.49a.59.59,0,0,1-.19-.48v-4.2a.59.59,0,0,1,.19-.48.71.71,0,0,1,.48-.16.72.72,0,0,1,.49.16.6.6,0,0,1,.2.48v4.2a.6.6,0,0,1-.2.48.73.73,0,0,1-.49.17A.72.72,0,0,1,240.92,387.87Z"/><path class="cls-11" d="M248.27,386.66a.56.56,0,0,1,.12.38.67.67,0,0,1-.4.56,4,4,0,0,1-.84.34,3.58,3.58,0,0,1-.89.12,2.79,2.79,0,0,1-2-.74,2.71,2.71,0,0,1-.75-2,3.07,3.07,0,0,1,.33-1.45,2.35,2.35,0,0,1,.92-1,2.6,2.6,0,0,1,1.34-.35,2.39,2.39,0,0,1,1.25.32,2.16,2.16,0,0,1,.83.89,3.06,3.06,0,0,1,.29,1.36c0,.31-.14.47-.41.47h-3.21a1.66,1.66,0,0,0,.42,1.1,1.42,1.42,0,0,0,1.05.36,1.87,1.87,0,0,0,.61-.09c.18-.06.38-.14.61-.24a1.06,1.06,0,0,1,.48-.17A.33.33,0,0,1,248.27,386.66Zm-3.06-2.83a1.64,1.64,0,0,0-.4,1h2.46a1.62,1.62,0,0,0-.33-1,1.09,1.09,0,0,0-.85-.34A1.16,1.16,0,0,0,245.21,383.83Z"/><path class="cls-11" d="M249.83,387.59a.62.62,0,0,1-.35-.58.52.52,0,0,1,.12-.36.36.36,0,0,1,.29-.13,1.15,1.15,0,0,1,.51.17,4.9,4.9,0,0,0,.64.25,2.46,2.46,0,0,0,.73.09,1.39,1.39,0,0,0,.71-.15.48.48,0,0,0,.26-.43.39.39,0,0,0-.1-.29,1,1,0,0,0-.37-.2,8.21,8.21,0,0,0-.81-.22,3.1,3.1,0,0,1-1.39-.55,1.23,1.23,0,0,1-.42-1,1.5,1.5,0,0,1,.28-.87,1.88,1.88,0,0,1,.78-.59,2.71,2.71,0,0,1,1.13-.22,3.22,3.22,0,0,1,.88.12,2.61,2.61,0,0,1,.76.33.67.67,0,0,1,.35.58.56.56,0,0,1-.12.36.37.37,0,0,1-.3.15.64.64,0,0,1-.23-.05,2,2,0,0,1-.29-.15,3.79,3.79,0,0,0-.54-.24,1.57,1.57,0,0,0-.57-.08,1,1,0,0,0-.63.16.52.52,0,0,0-.24.45.45.45,0,0,0,.24.41,3.47,3.47,0,0,0,.93.28,5.37,5.37,0,0,1,1.14.35,1.33,1.33,0,0,1,.59.49,1.53,1.53,0,0,1-.43,1.94,2.79,2.79,0,0,1-1.64.44A3.4,3.4,0,0,1,249.83,387.59Z"/><path class="cls-11" d="M262.54,383.07a2.31,2.31,0,0,1,.54,1.67v2.66a.6.6,0,0,1-.18.46.65.65,0,0,1-.48.17.62.62,0,0,1-.46-.18.58.58,0,0,1-.18-.45v-.24a1.43,1.43,0,0,1-.58.66,1.75,1.75,0,0,1-.92.24,2.07,2.07,0,0,1-1-.22,1.64,1.64,0,0,1-.68-.59,1.51,1.51,0,0,1-.25-.85,1.42,1.42,0,0,1,.29-.93,1.84,1.84,0,0,1,1-.49,9,9,0,0,1,1.86-.15h.27v-.25a1.15,1.15,0,0,0-.23-.78,1,1,0,0,0-.74-.24,2.41,2.41,0,0,0-.64.09,7.31,7.31,0,0,0-.77.27,1.17,1.17,0,0,1-.42.14.43.43,0,0,1-.32-.14.57.57,0,0,1-.12-.37.55.55,0,0,1,.09-.32.93.93,0,0,1,.31-.26,3.46,3.46,0,0,1,.91-.33,4.68,4.68,0,0,1,1-.12A2.25,2.25,0,0,1,262.54,383.07Zm-1.1,3.65a1.31,1.31,0,0,0,.34-.94v-.23h-.2a8.21,8.21,0,0,0-1.13.06,1.09,1.09,0,0,0-.57.23.58.58,0,0,0-.18.45.72.72,0,0,0,.25.57.84.84,0,0,0,.6.22A1.18,1.18,0,0,0,261.44,386.72Z"/><path class="cls-11" d="M269.24,383.07a2.41,2.41,0,0,1,.47,1.64v2.68a.65.65,0,0,1-.18.48.69.69,0,0,1-.49.17.72.72,0,0,1-.5-.17.62.62,0,0,1-.19-.48v-2.6a1.46,1.46,0,0,0-.23-.91.93.93,0,0,0-.74-.28,1.24,1.24,0,0,0-.94.37,1.41,1.41,0,0,0-.35,1v2.43a.62.62,0,0,1-.19.48.72.72,0,0,1-.5.17.69.69,0,0,1-.49-.17.65.65,0,0,1-.18-.48v-4.21a.62.62,0,0,1,.18-.46.69.69,0,0,1,.5-.17.67.67,0,0,1,.47.16.6.6,0,0,1,.18.45v.29a1.8,1.8,0,0,1,.73-.69,2.15,2.15,0,0,1,1-.24A1.77,1.77,0,0,1,269.24,383.07Z"/><path class="cls-11" d="M276.3,380.42a.6.6,0,0,1,.2.46v6.51a.58.58,0,0,1-.19.46.65.65,0,0,1-.48.18.66.66,0,0,1-.49-.18.58.58,0,0,1-.19-.46v-.27a1.76,1.76,0,0,1-.69.69,2,2,0,0,1-1,.25,2.15,2.15,0,0,1-1.22-.35,2.31,2.31,0,0,1-.84-1,3.4,3.4,0,0,1-.3-1.46,3.26,3.26,0,0,1,.3-1.45,2.36,2.36,0,0,1,.83-1,2.32,2.32,0,0,1,1.23-.34,2.08,2.08,0,0,1,1,.24,1.67,1.67,0,0,1,.69.68v-2.58a.57.57,0,0,1,.18-.44.69.69,0,0,1,.48-.17A.74.74,0,0,1,276.3,380.42Zm-1.5,6.14a2.48,2.48,0,0,0,0-2.54,1.23,1.23,0,0,0-1-.44,1.24,1.24,0,0,0-1,.43,1.93,1.93,0,0,0-.36,1.26,2,2,0,0,0,.36,1.28,1.34,1.34,0,0,0,2,0Z"/><path class="cls-11" d="M106,400.78a2.33,2.33,0,0,1-.93-1,3,3,0,0,1-.32-1.44,3,3,0,0,1,.34-1.47,2.45,2.45,0,0,1,1-1,2.78,2.78,0,0,1,1.43-.35,3.17,3.17,0,0,1,.85.12,3.1,3.1,0,0,1,.76.32.69.69,0,0,1,.34.58.6.6,0,0,1-.11.39.36.36,0,0,1-.3.14.59.59,0,0,1-.25-.05l-.26-.13a2.73,2.73,0,0,0-.46-.22,1.28,1.28,0,0,0-.5-.08,1.26,1.26,0,0,0-1,.44,2.39,2.39,0,0,0,0,2.52,1.29,1.29,0,0,0,1,.44,1.53,1.53,0,0,0,.49-.08c.14-.06.3-.13.47-.22a1.58,1.58,0,0,1,.28-.15.69.69,0,0,1,.24-.05.37.37,0,0,1,.3.15.6.6,0,0,1,.12.38.55.55,0,0,1-.09.32.7.7,0,0,1-.26.25,3,3,0,0,1-.79.34,3.45,3.45,0,0,1-.91.13A2.87,2.87,0,0,1,106,400.78Z"/><path class="cls-11" d="M110.83,400.93a.63.63,0,0,1-.19-.49V394a.59.59,0,0,1,.19-.48.71.71,0,0,1,.48-.16.72.72,0,0,1,.49.16.6.6,0,0,1,.2.48v6.49a.63.63,0,0,1-.2.49.72.72,0,0,1-.49.16A.71.71,0,0,1,110.83,400.93Z"/><path class="cls-11" d="M113.76,394.43a.74.74,0,0,1,0-1.05.85.85,0,0,1,.59-.19.85.85,0,0,1,.58.19.66.66,0,0,1,.22.52.69.69,0,0,1-.21.53,1,1,0,0,1-1.18,0Zm.11,6.5a.63.63,0,0,1-.19-.49v-4.2a.59.59,0,0,1,.19-.48.73.73,0,0,1,.48-.16.78.78,0,0,1,.49.16.6.6,0,0,1,.2.48v4.2a.63.63,0,0,1-.2.49.72.72,0,0,1-.49.16A.68.68,0,0,1,113.87,400.93Z"/><path class="cls-11" d="M121.22,399.71a.57.57,0,0,1,.11.38.65.65,0,0,1-.4.57,3.34,3.34,0,0,1-.84.33,3.61,3.61,0,0,1-.89.13,2.78,2.78,0,0,1-2-.74,2.73,2.73,0,0,1-.75-2,3.18,3.18,0,0,1,.32-1.44,2.42,2.42,0,0,1,.92-1,2.57,2.57,0,0,1,1.35-.35,2.44,2.44,0,0,1,1.25.31,2.11,2.11,0,0,1,.82.9,2.87,2.87,0,0,1,.3,1.36c0,.31-.14.46-.42.46h-3.21a1.77,1.77,0,0,0,.43,1.11,1.45,1.45,0,0,0,1,.35,1.93,1.93,0,0,0,.62-.09,4.24,4.24,0,0,0,.6-.23,1.2,1.2,0,0,1,.48-.18A.39.39,0,0,1,121.22,399.71Zm-3.07-2.83a1.73,1.73,0,0,0-.4,1h2.46a1.54,1.54,0,0,0-.32-1,1.09,1.09,0,0,0-.85-.34A1.18,1.18,0,0,0,118.15,396.88Z"/><path class="cls-11" d="M127.27,396.12a2.44,2.44,0,0,1,.47,1.65v2.67a.63.63,0,0,1-.18.48.65.65,0,0,1-.49.17.68.68,0,0,1-.5-.17.6.6,0,0,1-.19-.48v-2.6a1.45,1.45,0,0,0-.23-.9.9.9,0,0,0-.74-.28,1.24,1.24,0,0,0-.94.37,1.37,1.37,0,0,0-.35,1v2.42a.6.6,0,0,1-.19.48.68.68,0,0,1-.5.17.65.65,0,0,1-.49-.17.63.63,0,0,1-.18-.48v-4.21a.62.62,0,0,1,.18-.46.74.74,0,0,1,.5-.17.68.68,0,0,1,.47.17.57.57,0,0,1,.18.44v.29a1.84,1.84,0,0,1,.73-.68,2.15,2.15,0,0,1,1-.24A1.77,1.77,0,0,1,127.27,396.12Z"/><path class="cls-11" d="M132.7,400.57a.44.44,0,0,1-.21.4,1,1,0,0,1-.6.11l-.3,0a1.74,1.74,0,0,1-1.82-2v-2.37h-.55a.67.67,0,0,1-.45-.13.53.53,0,0,1,0-.76.67.67,0,0,1,.45-.13h.55v-1a.63.63,0,0,1,.18-.47.68.68,0,0,1,.5-.17.67.67,0,0,1,.49.17.63.63,0,0,1,.18.47v1h.93a.65.65,0,0,1,.45.13.53.53,0,0,1,0,.76.65.65,0,0,1-.45.13h-.93v2.47a.75.75,0,0,0,.74.86l.3,0C132.52,400.1,132.7,400.27,132.7,400.57Z"/><path class="cls-11" d="M133.69,400.65a.67.67,0,0,1-.35-.59.51.51,0,0,1,.12-.35.39.39,0,0,1,.3-.14,1.19,1.19,0,0,1,.51.18,6,6,0,0,0,.64.25,2.89,2.89,0,0,0,.73.08,1.41,1.41,0,0,0,.71-.15.47.47,0,0,0,.26-.42.42.42,0,0,0-.11-.3.88.88,0,0,0-.37-.2,7.34,7.34,0,0,0-.81-.21,3.09,3.09,0,0,1-1.38-.56,1.23,1.23,0,0,1-.42-1,1.43,1.43,0,0,1,.28-.86,1.82,1.82,0,0,1,.78-.6,2.85,2.85,0,0,1,1.13-.21,3.72,3.72,0,0,1,.88.11,3.07,3.07,0,0,1,.76.33.67.67,0,0,1,.35.58.57.57,0,0,1-.12.37.39.39,0,0,1-.3.14.46.46,0,0,1-.23-.05l-.29-.14a5.8,5.8,0,0,0-.54-.25,1.86,1.86,0,0,0-.57-.08,1.19,1.19,0,0,0-.64.16.53.53,0,0,0-.23.45.44.44,0,0,0,.24.41,3.41,3.41,0,0,0,.92.29,5.37,5.37,0,0,1,1.15.34,1.48,1.48,0,0,1,.59.49,1.44,1.44,0,0,1,.18.75,1.4,1.4,0,0,1-.62,1.19,2.69,2.69,0,0,1-1.63.45A3.54,3.54,0,0,1,133.69,400.65Z"/><path class="cls-11" d="M149.86,395.71a.55.55,0,0,1,.32-.1.73.73,0,0,1,.46.17.53.53,0,0,1,.2.42.51.51,0,0,1-.06.25L149,400.66a.71.71,0,0,1-.27.32.77.77,0,0,1-.4.1.75.75,0,0,1-.38-.1.71.71,0,0,1-.27-.32l-1.29-3.11-1.25,3.11a.71.71,0,0,1-.27.32.77.77,0,0,1-.4.1.76.76,0,0,1-.39-.1.71.71,0,0,1-.27-.32L142,396.45a.93.93,0,0,1,0-.24.53.53,0,0,1,.22-.43.72.72,0,0,1,.48-.18.56.56,0,0,1,.33.1.52.52,0,0,1,.23.29l1.29,3.32,1.31-3.29a.7.7,0,0,1,.25-.31.7.7,0,0,1,.72,0,.7.7,0,0,1,.25.31l1.33,3.3,1.27-3.32A.61.61,0,0,1,149.86,395.71Z"/><path class="cls-11" d="M152.12,394.43a.74.74,0,0,1,0-1.05.85.85,0,0,1,.59-.19.85.85,0,0,1,.58.19.66.66,0,0,1,.22.52.69.69,0,0,1-.21.53,1,1,0,0,1-1.18,0Zm.1,6.5a.66.66,0,0,1-.19-.49v-4.2a.62.62,0,0,1,.19-.48.78.78,0,0,1,.49-.16.8.8,0,0,1,.49.16.59.59,0,0,1,.19.48v4.2a.63.63,0,0,1-.19.49.74.74,0,0,1-.49.16A.72.72,0,0,1,152.22,400.93Z"/><path class="cls-11" d="M158.38,400.57a.43.43,0,0,1-.22.4,1,1,0,0,1-.6.11l-.29,0a1.75,1.75,0,0,1-1.83-2v-2.37h-.54a.7.7,0,0,1-.46-.13.56.56,0,0,1,0-.76.7.7,0,0,1,.46-.13h.54v-1a.63.63,0,0,1,.18-.47.69.69,0,0,1,.5-.17.65.65,0,0,1,.49.17.6.6,0,0,1,.19.47v1h.92a.7.7,0,0,1,.46.13.56.56,0,0,1,0,.76.7.7,0,0,1-.46.13h-.92v2.47a.75.75,0,0,0,.74.86l.29,0C158.2,400.1,158.38,400.27,158.38,400.57Z"/><path class="cls-11" d="M164.34,397.77v2.67a.63.63,0,0,1-.18.48.68.68,0,0,1-.5.17.69.69,0,0,1-.5-.17.63.63,0,0,1-.18-.48v-2.67a1.25,1.25,0,0,0-.24-.85.9.9,0,0,0-.73-.26,1.22,1.22,0,0,0-.94.37,1.33,1.33,0,0,0-.35,1v2.42a.64.64,0,0,1-.19.48.68.68,0,0,1-.5.17.61.61,0,0,1-.67-.65v-6.5a.59.59,0,0,1,.19-.46.67.67,0,0,1,.49-.17.71.71,0,0,1,.49.16.58.58,0,0,1,.19.44v2.54a1.81,1.81,0,0,1,.72-.65,2.26,2.26,0,0,1,1-.22C163.71,395.58,164.34,396.31,164.34,397.77Z"/><path class="cls-11" d="M172.52,400.57a.44.44,0,0,1-.21.4,1,1,0,0,1-.61.11l-.29,0a1.75,1.75,0,0,1-1.83-2v-2.37H169a.65.65,0,0,1-.45-.13.53.53,0,0,1,0-.76.65.65,0,0,1,.45-.13h.54v-1a.6.6,0,0,1,.19-.47.81.81,0,0,1,1,0,.63.63,0,0,1,.18.47v1h.93a.69.69,0,0,1,.45.13.53.53,0,0,1,0,.76.69.69,0,0,1-.45.13h-.93v2.47a.75.75,0,0,0,.74.86l.3,0C172.34,400.1,172.52,400.27,172.52,400.57Z"/><path class="cls-11" d="M178.48,397.77v2.67a.63.63,0,0,1-.18.48.65.65,0,0,1-.49.17.68.68,0,0,1-.5-.17.6.6,0,0,1-.19-.48v-2.67a1.31,1.31,0,0,0-.23-.85.93.93,0,0,0-.74-.26,1.24,1.24,0,0,0-.94.37,1.37,1.37,0,0,0-.35,1v2.42a.6.6,0,0,1-.19.48.68.68,0,0,1-.5.17.65.65,0,0,1-.49-.17.63.63,0,0,1-.18-.48v-6.5a.59.59,0,0,1,.19-.46.68.68,0,0,1,.49-.17.69.69,0,0,1,.49.16.55.55,0,0,1,.19.44v2.54a1.81,1.81,0,0,1,.72-.65,2.29,2.29,0,0,1,1-.22C177.86,395.58,178.48,396.31,178.48,397.77Z"/><path class="cls-11" d="M184.64,399.71a.58.58,0,0,1,.12.38.67.67,0,0,1-.4.57,3.5,3.5,0,0,1-.84.33,3.61,3.61,0,0,1-.89.13,2.79,2.79,0,0,1-2-.74,2.73,2.73,0,0,1-.75-2,3.06,3.06,0,0,1,.33-1.44,2.29,2.29,0,0,1,.92-1,2.51,2.51,0,0,1,1.34-.35,2.39,2.39,0,0,1,1.25.31,2.13,2.13,0,0,1,.83.9,3,3,0,0,1,.29,1.36c0,.31-.14.46-.41.46h-3.21a1.72,1.72,0,0,0,.42,1.11,1.46,1.46,0,0,0,1.05.35,1.91,1.91,0,0,0,.61-.09,4.84,4.84,0,0,0,.61-.23,1.12,1.12,0,0,1,.47-.18A.36.36,0,0,1,184.64,399.71Zm-3.06-2.83a1.61,1.61,0,0,0-.4,1h2.46a1.6,1.6,0,0,0-.33-1,1.06,1.06,0,0,0-.85-.34A1.15,1.15,0,0,0,181.58,396.88Z"/><path class="cls-11" d="M190.37,400.78a2.21,2.21,0,0,1-.93-1,3,3,0,0,1-.33-1.44,3,3,0,0,1,.34-1.47,2.45,2.45,0,0,1,1-1,2.81,2.81,0,0,1,1.43-.35,3.27,3.27,0,0,1,1.61.44.7.7,0,0,1,.35.58.61.61,0,0,1-.12.39.34.34,0,0,1-.3.14.59.59,0,0,1-.25-.05l-.26-.13a3.08,3.08,0,0,0-.45-.22,1.35,1.35,0,0,0-.5-.08,1.25,1.25,0,0,0-1,.44,2.33,2.33,0,0,0,0,2.52,1.28,1.28,0,0,0,1,.44,1.42,1.42,0,0,0,.48-.08c.14-.06.3-.13.47-.22a1.62,1.62,0,0,1,.29-.15.69.69,0,0,1,.24-.05.36.36,0,0,1,.29.15.6.6,0,0,1,.12.38.63.63,0,0,1-.08.32.82.82,0,0,1-.27.25,2.92,2.92,0,0,1-.78.34,3.52,3.52,0,0,1-.92.13A2.83,2.83,0,0,1,190.37,400.78Z"/><path class="cls-11" d="M195.17,400.93a.66.66,0,0,1-.19-.49V394a.62.62,0,0,1,.19-.48.72.72,0,0,1,.49-.16.74.74,0,0,1,.49.16.59.59,0,0,1,.19.48v6.49a.63.63,0,0,1-.19.49.74.74,0,0,1-.49.16A.72.72,0,0,1,195.17,400.93Z"/><path class="cls-11" d="M198.11,394.43a.67.67,0,0,1-.22-.53.66.66,0,0,1,.22-.52.83.83,0,0,1,.58-.19.87.87,0,0,1,.59.19.69.69,0,0,1,.22.52.67.67,0,0,1-.22.53.8.8,0,0,1-.59.2A.79.79,0,0,1,198.11,394.43Zm.1,6.5a.63.63,0,0,1-.19-.49v-4.2a.59.59,0,0,1,.19-.48.77.77,0,0,1,.48-.16.78.78,0,0,1,.49.16.6.6,0,0,1,.2.48v4.2a.63.63,0,0,1-.2.49.72.72,0,0,1-.49.16A.71.71,0,0,1,198.21,400.93Z"/><path class="cls-11" d="M202,400.78a2.21,2.21,0,0,1-.93-1,3,3,0,0,1-.33-1.44,3,3,0,0,1,.34-1.47,2.41,2.41,0,0,1,1-1,2.75,2.75,0,0,1,1.42-.35,3.24,3.24,0,0,1,.86.12,3.2,3.2,0,0,1,.75.32.7.7,0,0,1,.35.58.67.67,0,0,1-.11.39.36.36,0,0,1-.3.14.56.56,0,0,1-.25-.05l-.27-.13a2.65,2.65,0,0,0-.45-.22,1.31,1.31,0,0,0-.5-.08,1.25,1.25,0,0,0-1,.44,2.33,2.33,0,0,0,0,2.52,1.28,1.28,0,0,0,1,.44,1.42,1.42,0,0,0,.48-.08c.14-.06.3-.13.47-.22a1.62,1.62,0,0,1,.29-.15.69.69,0,0,1,.24-.05.36.36,0,0,1,.29.15.6.6,0,0,1,.12.38.63.63,0,0,1-.08.32.73.73,0,0,1-.27.25,2.79,2.79,0,0,1-.78.34,3.52,3.52,0,0,1-.92.13A2.86,2.86,0,0,1,202,400.78Z"/><path class="cls-11" d="M211.59,400.44a.64.64,0,0,1-.18.45.55.55,0,0,1-.42.19.65.65,0,0,1-.45-.19L208,398.58v1.86a.6.6,0,0,1-.2.48.72.72,0,0,1-.49.16.68.68,0,0,1-.48-.16.59.59,0,0,1-.19-.48V394a.59.59,0,0,1,.19-.48.68.68,0,0,1,.48-.16.72.72,0,0,1,.49.16.6.6,0,0,1,.2.48V398l2.32-2.23a.62.62,0,0,1,.45-.2.65.65,0,0,1,.62.62.63.63,0,0,1-.21.46l-1.71,1.59,1.9,1.69A.67.67,0,0,1,211.59,400.44Z"/><path class="cls-11" d="M217,400.78a2.4,2.4,0,0,1-.95-1,3.13,3.13,0,0,1-.34-1.47,3.09,3.09,0,0,1,.34-1.46,2.31,2.31,0,0,1,.95-1,3.2,3.2,0,0,1,2.87,0,2.23,2.23,0,0,1,.94,1,3.08,3.08,0,0,1,.33,1.46,3.12,3.12,0,0,1-.33,1.47,2.31,2.31,0,0,1-.94,1,3.2,3.2,0,0,1-2.87,0Zm2.44-1.15a2.6,2.6,0,0,0,0-2.57,1.23,1.23,0,0,0-1-.44,1.21,1.21,0,0,0-1,.44,2,2,0,0,0-.36,1.28,2,2,0,0,0,.35,1.29,1.21,1.21,0,0,0,1,.43A1.23,1.23,0,0,0,219.39,399.63Z"/><path class="cls-11" d="M224.41,394.68a1.19,1.19,0,0,0-.23.78v.25h.93c.4,0,.61.17.61.51s-.21.51-.61.51h-.93v3.71a.59.59,0,0,1-.19.48.7.7,0,0,1-.48.16.72.72,0,0,1-.49-.16.6.6,0,0,1-.2-.48v-3.71h-.54c-.41,0-.61-.17-.61-.51s.2-.51.61-.51h.54v-.08a2.26,2.26,0,0,1,.54-1.6,2.21,2.21,0,0,1,1.52-.66l.28,0a1,1,0,0,1,.62.09.43.43,0,0,1,.18.39c0,.31-.18.48-.54.52l-.28,0A1,1,0,0,0,224.41,394.68Z"/><path class="cls-11" d="M233.79,396.13a2.28,2.28,0,0,1,.54,1.67v2.65a.66.66,0,0,1-.17.47.68.68,0,0,1-.48.16.61.61,0,0,1-.46-.17.62.62,0,0,1-.18-.46v-.24a1.46,1.46,0,0,1-.58.67,1.75,1.75,0,0,1-.92.24,2.2,2.2,0,0,1-1-.22,1.84,1.84,0,0,1-.69-.6,1.57,1.57,0,0,1-.25-.85,1.32,1.32,0,0,1,.3-.92,1.78,1.78,0,0,1,1-.49,9,9,0,0,1,1.86-.15H233v-.25a1.12,1.12,0,0,0-.23-.78,1,1,0,0,0-.74-.25,2.08,2.08,0,0,0-.64.1c-.22.06-.48.15-.77.26a1,1,0,0,1-.42.14.39.39,0,0,1-.32-.14.55.55,0,0,1-.12-.37.57.57,0,0,1,.09-.32.83.83,0,0,1,.31-.26,3.86,3.86,0,0,1,.91-.32,4.68,4.68,0,0,1,1-.12A2.17,2.17,0,0,1,233.79,396.13Zm-1.09,3.64a1.34,1.34,0,0,0,.34-.94v-.23h-.2a6.68,6.68,0,0,0-1.13.07,1.08,1.08,0,0,0-.58.23.59.59,0,0,0-.17.44.7.7,0,0,0,.25.57.85.85,0,0,0,.6.23A1.16,1.16,0,0,0,232.7,399.77Z"/><path class="cls-11" d="M243.49,395.92a2.23,2.23,0,0,1,.84.95,3.47,3.47,0,0,1,.29,1.45,3.52,3.52,0,0,1-.29,1.46,2.28,2.28,0,0,1-.84,1,2.24,2.24,0,0,1-1.23.35,2.14,2.14,0,0,1-1-.25,1.69,1.69,0,0,1-.7-.7v.27a.63.63,0,0,1-.18.47.67.67,0,0,1-.49.17.64.64,0,0,1-.48-.17.63.63,0,0,1-.18-.47v-6.5a.59.59,0,0,1,.19-.46.67.67,0,0,1,.49-.17.69.69,0,0,1,.49.16.58.58,0,0,1,.19.44v2.57a1.63,1.63,0,0,1,.68-.67,2.24,2.24,0,0,1,1-.23A2.19,2.19,0,0,1,243.49,395.92Zm-.58,3.68a2.07,2.07,0,0,0,.35-1.28,1.92,1.92,0,0,0-.35-1.25,1.37,1.37,0,0,0-2,0,2,2,0,0,0-.36,1.27,2,2,0,0,0,.36,1.28,1.35,1.35,0,0,0,2,0Z"/><path class="cls-11" d="M250.72,395.77a.64.64,0,0,1,.18.47v4.22a.59.59,0,0,1-.19.46.68.68,0,0,1-.49.17.64.64,0,0,1-.47-.16.57.57,0,0,1-.18-.44v-.28a1.66,1.66,0,0,1-.67.67,1.9,1.9,0,0,1-1,.24c-1.3,0-2-.74-2-2.2v-2.68a.65.65,0,0,1,.19-.47.71.71,0,0,1,.49-.17.72.72,0,0,1,.5.17.64.64,0,0,1,.18.47v2.69a1.3,1.3,0,0,0,.23.84.9.9,0,0,0,.72.27,1.18,1.18,0,0,0,.91-.38,1.4,1.4,0,0,0,.34-1v-2.43a.61.61,0,0,1,.19-.47.69.69,0,0,1,.49-.17A.74.74,0,0,1,250.72,395.77Z"/><path class="cls-11" d="M255.89,400.57a.44.44,0,0,1-.21.4,1,1,0,0,1-.6.11l-.29,0a1.75,1.75,0,0,1-1.83-2v-2.37h-.55a.69.69,0,0,1-.45-.13.53.53,0,0,1,0-.76.69.69,0,0,1,.45-.13H253v-1a.63.63,0,0,1,.18-.47.69.69,0,0,1,.5-.17.65.65,0,0,1,.49.17.6.6,0,0,1,.19.47v1h.92a.65.65,0,0,1,.45.13.53.53,0,0,1,0,.76.65.65,0,0,1-.45.13h-.92v2.47c0,.54.24.82.74.86l.29,0C255.71,400.1,255.89,400.27,255.89,400.57Z"/><path class="cls-11" d="M260.1,400.57a.44.44,0,0,1-.21.4,1,1,0,0,1-.6.11l-.29,0a1.75,1.75,0,0,1-1.83-2v-2.37h-.55a.69.69,0,0,1-.45-.13.53.53,0,0,1,0-.76.69.69,0,0,1,.45-.13h.55v-1a.63.63,0,0,1,.18-.47.69.69,0,0,1,.5-.17.65.65,0,0,1,.49.17.6.6,0,0,1,.19.47v1h.92a.65.65,0,0,1,.45.13.53.53,0,0,1,0,.76.65.65,0,0,1-.45.13h-.92v2.47c0,.54.24.82.74.86l.29,0C259.92,400.1,260.1,400.27,260.1,400.57Z"/><path class="cls-11" d="M262.08,400.78a2.34,2.34,0,0,1-.95-1,3,3,0,0,1-.34-1.47,3,3,0,0,1,.34-1.46,2.26,2.26,0,0,1,.95-1,3.18,3.18,0,0,1,2.86,0,2.26,2.26,0,0,1,.95,1,3.08,3.08,0,0,1,.33,1.46,3.12,3.12,0,0,1-.33,1.47,2.34,2.34,0,0,1-.95,1,3.18,3.18,0,0,1-2.86,0Zm2.43-1.15a2.53,2.53,0,0,0,0-2.57,1.2,1.2,0,0,0-1-.44,1.25,1.25,0,0,0-1,.44,2.53,2.53,0,0,0,0,2.57,1.19,1.19,0,0,0,1,.43A1.21,1.21,0,0,0,264.51,399.63Z"/><path class="cls-11" d="M272.13,396.12a2.5,2.5,0,0,1,.46,1.65v2.67a.61.61,0,0,1-.67.65.68.68,0,0,1-.5-.17.64.64,0,0,1-.19-.48v-2.6a1.39,1.39,0,0,0-.23-.9.89.89,0,0,0-.73-.28,1.21,1.21,0,0,0-.94.37,1.34,1.34,0,0,0-.36,1v2.42a.63.63,0,0,1-.18.48.69.69,0,0,1-.5.17.68.68,0,0,1-.5-.17.63.63,0,0,1-.18-.48v-4.21a.59.59,0,0,1,.19-.46.72.72,0,0,1,.5-.17.65.65,0,0,1,.46.17.57.57,0,0,1,.18.44v.29a1.84,1.84,0,0,1,.73-.68,2.17,2.17,0,0,1,1-.24A1.8,1.8,0,0,1,272.13,396.12Z"/><path class="cls-11" d="M274.31,400.86a.82.82,0,0,1-.23-.58.8.8,0,0,1,.23-.58.82.82,0,0,1,1.16,0,.8.8,0,0,1,.23.58.82.82,0,0,1-.23.58.85.85,0,0,1-1.16,0Z"/><text class="cls-3" transform="translate(99.36 295.33)">B<tspan class="cls-7" x="7.7" y="0">r</tspan><tspan class="cls-10" x="12.03" y="0">o</tspan><tspan class="cls-12" x="18.47" y="0">w</tspan><tspan x="27.98" y="0">se hund</tspan><tspan class="cls-7" x="69.45" y="0">r</tspan><tspan x="73.78" y="0">eds </tspan><tspan class="cls-13" x="95.41" y="0">o</tspan><tspan x="101.9" y="0">f intern oppo</tspan><tspan class="cls-14" x="170.27" y="0">r</tspan><tspan x="175.19" y="0">tunitie</tspan><tspan class="cls-4" x="209.09" y="0">s</tspan><tspan x="214.59" y="0">. </tspan></text><path class="cls-11" d="M63.89,405.2H62.77a9.92,9.92,0,0,1-9.91-9.91V380.66a9.92,9.92,0,0,1,9.91-9.91h1.12a9.93,9.93,0,0,1,9.91,9.91v14.63A9.93,9.93,0,0,1,63.89,405.2Zm-1.12-32.42a7.89,7.89,0,0,0-7.88,7.88v14.63a7.89,7.89,0,0,0,7.88,7.88h1.12a7.9,7.9,0,0,0,7.88-7.88V380.66a7.9,7.9,0,0,0-7.88-7.88Zm.56,7.79A1.47,1.47,0,1,0,64.79,382,1.47,1.47,0,0,0,63.33,380.57Z"/><path class="cls-11" d="M73.42,192.53a11.56,11.56,0,1,0-11.56,11.56,11.18,11.18,0,0,0,2.26-.23l3.27,11.62a1.12,1.12,0,0,0,2.16-.61l-3.28-11.66A11.56,11.56,0,0,0,73.42,192.53Zm-11.56,9.66a9.66,9.66,0,1,1,9.66-9.66A9.66,9.66,0,0,1,61.86,202.19Z"/><path class="cls-11" d="M61.81,304.76c-9.28,0-16.94-10.38-16.94-12.22,0-2.9,7.81-12.21,16.94-12.21s17,9.31,17,12.21C78.76,294.86,70.94,304.76,61.81,304.76ZM46.67,292.5c.34,1.24,6.77,10.36,15.14,10.36s14.9-8.94,15.15-10.34c-.09-1.66-6.83-10.3-15.15-10.3S46.79,290.78,46.67,292.5Zm15.14,5.37a6,6,0,1,1,5.65-6A5.81,5.81,0,0,1,61.81,297.87Zm0-10a4.07,4.07,0,1,0,3.85,4.07A4,4,0,0,0,61.81,287.84Z"/></g></g></svg>