<svg xmlns="http://www.w3.org/2000/svg" xmlns:xlink="http://www.w3.org/1999/xlink" viewBox="0 0 725.93 630.56"><defs><style>.cls-1{fill:url(#linear-gradient);}.cls-2{fill:#7fd686;}.cls-3{fill:#6cb770;}.cls-4{fill:#3f2e43;}.cls-5{fill:#b67add;}.cls-6{fill:#874fb2;}.cls-7{fill:#cfabef;}.cls-8{fill:#e4ede4;}.cls-9{fill:#372244;}.cls-10{fill:#3e4f3e;opacity:0.23;}</style><linearGradient id="linear-gradient" x1="410.95" y1="-2770.74" x2="-312.68" y2="-2131.14" gradientTransform="translate(415.02 -2074.18) rotate(180) scale(0.98)" gradientUnits="userSpaceOnUse"><stop offset="0" stop-color="#485fab"/><stop offset="1" stop-color="#8b0094"/></linearGradient></defs><title>nointernbg</title><g id="Layer_2" data-name="Layer 2"><g id="Layer_1-2" data-name="Layer 1"><path class="cls-1" d="M578.49,600.08c-36.73,34.17-153.62-2.26-191.28-6.78s-143.08,61-200.31,27.86-30.55-109-84.35-137.81C49,454.72-3,398.36.14,346.15c2.42-39.76,46.41-80.43,63-109.8s19.1-82.84,56-127.27S235.09,79,255.43,80.46,322.88-3.28,402.27,12.53s97.53,71.7,132.93,98.81,127.63,5.27,166,75.3c73.77,134.53-39.51,194.7-58,223.66C626.71,436.23,665.09,519.5,578.49,600.08Z"/><path class="cls-2" d="M160.32,385.06s-43.95-24.21-67.64-19.25-17.55-25,3.15-19.7,36.7,10.59,50.7,19.9c-5.83-14.06-79.17-27.15-78.31-45.2s42.09,14.82,65.18,17.85c0,0-60.32-27.17-47.84-42s33.47,35,81.43,46.71,12.3-43.16,35.6-41.45S201,374.74,201,374.74,189.53,398.16,160.32,385.06Z"/><path class="cls-3" d="M194.79,346.46s-16,15.63-43.09-.16,2.18,32.68,9.72,31.87S158.79,361,176.13,362,194.79,346.46,194.79,346.46Z"/><path class="cls-3" d="M82.52,359.81s-4.88-20,35.13-4.82C117.65,355,84.8,347.71,82.52,359.81Z"/><path class="cls-3" d="M205.68,305.77c5.91,2.84-10.45.35-8.61,26.58C197.07,332.35,194.11,300.22,205.68,305.77Z"/><path class="cls-3" d="M78.28,318.72s-17.39-.77,1,12.62C79.29,331.34,69,319.6,78.28,318.72Z"/><path class="cls-3" d="M93.77,298s-17.39-.76,1,12.63C94.78,310.61,84.53,298.86,93.77,298Z"/><path class="cls-2" d="M610.14,378.9s42.85-26.1,66.74-22.18,16.44-25.77-4-19.54-36.2,12.17-49.79,22.09C628.3,345,701,328.69,699.35,310.7S658,327.34,635,331.36c0,0,59.07-29.77,46-44.05s-31.91,36.42-79.32,50.22-14.16-42.59-37.37-39.86S569,370.36,569,370.36,581.52,393.25,610.14,378.9Z"/><path class="cls-3" d="M574,341.83s16.64,14.92,43-2-.75,32.74-8.32,32.26,1.89-17.3-15.39-15.48S574,341.83,574,341.83Z"/><path class="cls-3" d="M686.76,350.28s4-20.17-35.3-3.28C651.46,347,684,338.3,686.76,350.28Z"/><path class="cls-3" d="M561.37,301.66c-5.79,3.09,10.45-.11,9.75,26.17C571.12,327.83,572.68,295.6,561.37,301.66Z"/><path class="cls-3" d="M689.21,309s17.34-1.52-.46,12.66C688.75,321.7,698.47,309.52,689.21,309Z"/><path class="cls-3" d="M672.83,289s17.34-1.52-.46,12.66C672.37,301.66,682.1,289.48,672.83,289Z"/><path class="cls-4" d="M569,370.36s-43.28,107.86-63,143a12.63,12.63,0,0,1-4.22,4.14,204.36,204.36,0,0,0,.19-26.55c-1.9-37.28-3.8-133.08-54.52-133.65s-47.55-7.46-47.55-7.46c-5.71-27,8.54-56.68,8.54-56.68s-15.32,8.5-26.29,11.08-35.2-11.08-35.2-11.08c16.79,22.48,11.43,49.8,11.43,49.8s6,11.47-45.94,17.21-37.8,142.26-37.8,142.26a171.79,171.79,0,0,0,2.23,17.4,13,13,0,0,1-6.62-5C249,480.62,201,374.74,201,374.74c-18.39,13.9-40.72,10.32-40.72,10.32,30.43,68.83,53.81,110.33,71.33,135.21,0,0,32,50.59,53.72,52.36S317,550.09,317,550.09c-3.42,16.12,4.78,48.6,4.78,48.6,5.23,13.64,47.64,14.95,72.73,14.95,22.84,0,55.72-2.65,71-17.08,0,0,5.14-24.82,3.28-39.69,5.3,4.48,15.48,16,24.53,14.86,21.63-2.72,51.39-54.65,51.39-54.65,16.42-25.62,38-68.09,65.38-138.18C610.14,378.9,588,383.44,569,370.36Z"/><path class="cls-5" d="M425.82,316.77C421.88,313.41,390.7,330,390.7,330a2.49,2.49,0,0,0-1.44.63,6,6,0,0,0-4.89-2.29l-7.3.08a6.56,6.56,0,0,0-5.92,3.56c-.1,0-.13-.1-.24-.11s-29-16-33.43-12.54-8.14,36.21-2.42,36.88c5.43.63,31.84-11.27,34.57-12.51l-.08,1.25c-.18,2.69,2.58,4.85,6.12,4.82l7.3-.08c3.54,0,6.58-2.25,6.76-4.94l.21-3.15s27.65,12.85,33.46,12.06S429.76,320.12,425.82,316.77Z"/><path class="cls-6" d="M422.23,317.77s-31,13.16-30.78,15.34"/><path class="cls-6" d="M339.63,319.8s25.79,10,25.39,11.8"/><path class="cls-7" d="M380.84,330.31S369,329,373,345.66"/><path class="cls-2" d="M438.82.29c-8.65,4,5.44,16.88,7.85,27.33s-15.91,24.92-15.91,24.92h0c-16-12.06-35.4-21.33-54.85-21.31-24.21,0-45.32,12.74-61.64,26.52-5-4.57-14.85-14.64-13-22.46C303.63,24.85,317.72,12,309.07,8s-62.74,35.11-45.63,39.4c7.29,1.82,20.13-9.65,25.34-4.83,3.45,3.2,11,15.93,15.65,24.16-9.69,9.37-17,18.09-21.32,22.43-12,12.06-7.28,127.83,0,150.74s66.28,67.53,97.64,66.32,80.79-61.5,88.16-73.56,4.69-114.56,0-133.85c-2.12-8.76-12.35-23.49-27-37,4.36-7.75,13.36-23.35,17.23-26.94,5.21-4.83,18.05,6.65,25.34,4.82C501.56,35.4,447.47-3.73,438.82.29Z"/><ellipse class="cls-3" cx="285.29" cy="28.07" rx="22.13" ry="5.35" transform="translate(40.1 176.59) rotate(-36.82)"/><ellipse class="cls-3" cx="463.07" cy="19.88" rx="5.35" ry="22.13" transform="matrix(0.6, -0.8, 0.8, 0.6, 169.62, 378.64)"/><ellipse class="cls-8" cx="373.95" cy="134.47" rx="39.04" ry="52.54"/><ellipse class="cls-9" cx="373.95" cy="141.1" rx="21.41" ry="28.43"/><circle class="cls-8" cx="385.57" cy="129.24" r="5.32"/><path class="cls-3" d="M374,81.93c-21.57,0-39.05,20.08-39.05,44.85H413C413,102,395.51,81.93,374,81.93Z"/><path class="cls-10" d="M375.82,87.56s-27.93.45-35.47,36.36H374S350.1,108.85,375.82,87.56Z"/><path class="cls-3" d="M346.23,258.06s6.29-33.53,29-33.44,30.18,31.19,30.18,31.19S375.82,219.49,346.23,258.06Z"/></g></g></svg>