<svg xmlns="http://www.w3.org/2000/svg" viewBox="0 0 644.8 517.73"><defs><style>.cls-1{fill:#fff;}</style></defs><title>strokeLOGO</title><g id="Layer_2" data-name="Layer 2"><g id="Layer_1-2" data-name="Layer 1"><path class="cls-1" d="M328,517.73A257.83,257.83,0,0,1,145.66,77.6,257.83,257.83,0,0,1,510.28,442.22,256.12,256.12,0,0,1,328,517.73ZM328,8.09A251.82,251.82,0,0,0,149.91,438,251.82,251.82,0,1,0,506,81.85,250.14,250.14,0,0,0,328,8.09ZM275.92,444.67c-.37,0-.73,0-1.1,0a14,14,0,0,1-10.46-5.25c-5.22-6.57-4.06-17-3.82-18.84V283.94c0-.85-.25-21-15.8-21-15.33,0-17.49,21.69-17.63,23.24l-.25,75.89c.25,1.76,1.27,11.12-3.8,17.1-2.76,3.27-6.71,4.92-11.73,4.92-5.7,0-10-1.72-12.71-5.11-3.86-4.78-3.07-11.19-2.8-12.79l0-89.67,0-.14s.28-3.9-1.9-6.25c-1.22-1.32-3-2-5.56-2-2.68,0-4.64.66-5.85,2a7.53,7.53,0,0,0-1.61,5.13l0,.27V308c0,.27-.06,6.63-4.66,10.89-3,2.77-7.09,4-12.15,3.59-15.5-1.19-18.14-10.17-18.25-10.55l-.1-.38-.09-35,0-.14c.26-3,.08-11.79-4-15.68-1.77-1.71-4.16-2.35-7.3-2-13,1.63-12.22,14.45-12,16.37.9,4.7,7.36,40.84-3,53.29a11.84,11.84,0,0,1-9.36,4.44h0c-18.06-.07-22.82-17-22.82-25.9V242.3c-.13-1.43-1.71-15-13.26-17.6l-2.73-.61.41-2.76c9.08-60.44,40-116.27,87-157.2C206.16,22.78,266.54,0,328.64,0,397.38,0,462.13,27.19,511,76.57a259.26,259.26,0,0,1,75.5,183.34,255.78,255.78,0,0,1-23.12,106.84l-3.56,7.82-2.08-8.34c-.36-1.43-.51-2.38-.52-2.42l0-.49V267.38c-.12-1.18-1.53-12.81-9.37-12.81h-.12c-8.22.13-8.52,12.2-8.53,12.71v50.31a19.72,19.72,0,0,1-2.64,8c-2.22,3.7-6.67,8-15.2,7.32-15.35-1.18-19-11-19.14-11.39L502,321l-.17-69.65,0-.2c0-.09,1.22-9.71-3.73-15.35-2.46-2.8-6.18-4.23-11.05-4.23-4.58,0-7.92,1.32-10.19,4-5.15,6.14-3.23,17.39-3.21,17.5l0,.54-.35,100.94c.36,1.58,1.14,6.6-1.93,10.3-2.26,2.71-5.87,3.89-10.71,3.48-15.11-1.26-15.29-10.93-15.29-11.34V313.39c-.24-1.68-2.53-15-14.75-15-12.48,0-12.65,21.85-12.65,22.07l0,74.08c0,1.13.26,10.57-5.62,16.4-3.29,3.27-7.75,4.76-13.23,4.41C383.84,414.44,379,403.6,378.56,398v-.16l-5.22-222.22c-.58-3.08-7.35-34.77-42.88-33.85-35.72.94-40.59,35-40.94,37.9v238.8c.28,2.33,1.6,15.8-4.73,22.51A11.85,11.85,0,0,1,275.92,444.67ZM244.74,256.92c9,0,15.68,4.82,19.25,13.92a40.11,40.11,0,0,1,2.55,13.1V421l0,.23c-.41,2.61-.73,10.31,2.56,14.44a8.15,8.15,0,0,0,6.17,3,6,6,0,0,0,5.18-1.78c3.93-4.16,3.59-14.27,3.12-17.82l0-.38V179.2c.05-.43,4.94-42.32,46.77-43.42s48.92,38.66,49,39.06l0,.42,5.22,222.35c.14,1.35,1.61,11,14.95,11.8,3.75.24,6.57-.65,8.63-2.69,4.16-4.13,3.85-11.83,3.85-11.91v-.16l0-74.15a50.47,50.47,0,0,1,2.08-13.43c3.78-12.1,11.1-14.64,16.57-14.64,14.5,0,19.9,13.35,20.73,20.41l0,.35v43.86c0,.1.42,4.58,9.78,5.36,1.92.17,4.44.06,5.6-1.34,1.32-1.58.86-4.6.66-5.32l-.11-.39.35-101.46c-.33-2.1-1.92-14.36,4.55-22.1,3.44-4.12,8.42-6.21,14.81-6.21,6.7,0,11.94,2.12,15.59,6.3,6.31,7.24,5.37,18.1,5.17,19.86l.16,68.11c.73,1.39,4,6.29,13.78,7.05s11.24-8.2,11.39-9.68v-50c.08-6.41,3.2-18.5,14.44-18.67h.23c11,0,14.84,12,15.34,18.43v84.87a249.9,249.9,0,0,0,17.32-92A253.31,253.31,0,0,0,506.69,80.79C459,32.56,395.77,6,328.64,6A253.3,253.3,0,0,0,162.56,68.66c-45.3,39.41-75.28,92.94-84.62,151,5.51,2,9.81,6.22,12.54,12.3a32.48,32.48,0,0,1,2.69,10v65c0,.81.27,19.84,16.84,19.9a5.79,5.79,0,0,0,4.78-2.27c7.31-8.82,3.68-38,1.67-48.45l0-.21a26.58,26.58,0,0,1,1.18-10.42c1.7-5.09,5.87-11.43,16-12.7,5-.62,9.11.59,12.23,3.6,6.61,6.39,5.89,18.79,5.76,20.38l.09,33.8c.51,1.06,3.1,5.16,12.81,5.91,3.31.25,5.86-.41,7.58-2,2.68-2.46,2.77-6.49,2.77-6.53V275.66a13.31,13.31,0,0,1,3.11-9.53c2.39-2.64,5.87-4,10.33-4,4.26,0,7.63,1.32,10,3.94,3.67,4,3.5,9.51,3.42,10.66l0,90-.07.31s-1,5,1.55,8.13c1.55,1.9,4.25,2.86,8,2.86,3.21,0,5.55-.91,7.14-2.78,3.07-3.61,2.79-10.27,2.43-12.53l0-.5.26-76.44a48.19,48.19,0,0,1,3.5-14C228.81,262.07,235.77,256.92,244.74,256.92Zm84.94-127.7a46.86,46.86,0,1,1,46.86-46.86A46.91,46.91,0,0,1,329.68,129.22Zm0-87.72a40.86,40.86,0,1,0,40.86,40.86A40.91,40.91,0,0,0,329.68,41.5ZM108.51,388.81c-8.67,0-17-.27-25-.81C35,384.72,5.63,371.56.72,350.94c-5.12-21.53,17-47.56,62.33-73.3a3.86,3.86,0,0,1,4.2,6.46c-24.12,18-35.61,35.48-32.35,49.19,4.18,17.59,32.37,29.42,77.34,32.46,46.75,3.17,106.47-3.17,168.15-17.83,44.55-10.6,86.85-24.82,122.32-41.14h0a3.87,3.87,0,0,1,5.06,1.76,3.81,3.81,0,0,1-1.56,5.12C366,336.13,311.78,356.14,253.44,370,201.69,382.32,151.25,388.81,108.51,388.81Zm-64.67-92C16.42,316,3,334.69,6.56,349.55,10.74,367.14,38.93,379,83.9,382c46.76,3.17,106.47-3.17,168.15-17.83a720,720,0,0,0,87-26.41c-18.39,6-37.6,11.32-57.23,16-62.25,14.8-122.61,21.19-169.95,18C63.36,368.46,34,355.3,29.06,334.68,26.32,323.16,31.4,310.29,43.84,296.79Zm361.38,15.45h0Zm112.63-59.83L515.18,247c66.3-35.14,104-73.27,96.15-97.14-4.33-13.1-21.78-21.61-50.46-24.6a3.93,3.93,0,0,1-2.87-1.8l-7.75-12.43a3.86,3.86,0,0,1,3.16-5.9c51.2-1.64,83.18,8.91,90.05,29.71C653.7,165.83,604.39,212,517.85,252.41Zm44.69-133C593.12,122.81,612,132.68,617,148c4.63,14-2.75,31.35-21.32,50.2q-3.94,4-8.52,8.06A250.23,250.23,0,0,0,611,187.43c21.9-19.84,31.16-37.36,26.76-50.67-5.73-17.32-35-26.61-80.46-25.7Z"/></g></g></svg>